LifeSavers-ExtraBold-OTF.ufo
<glyph name="exclam" format="1">
  <advance width="265"/>
  <unicode hex="0021"/>
  <outline>
    <contour>
      <point x="94" y="127" type="curve" smooth="yes"/>
      <point x="95" y="124"/>
      <point x="102" y="101"/>
      <point x="134" y="101" type="curve" smooth="yes"/>
      <point x="170" y="101"/>
      <point x="176" y="116"/>
      <point x="176" y="172" type="curve" smooth="yes"/>
      <point x="176" y="795" type="line" smooth="yes"/>
      <point x="176" y="842"/>
      <point x="138" y="842"/>
      <point x="129" y="842" type="curve" smooth="yes"/>
      <point x="111" y="842"/>
      <point x="85" y="834"/>
      <point x="85" y="795" type="curve" smooth="yes"/>
      <point x="85" y="752"/>
      <point x="89" y="141"/>
    </contour>
    <contour>
      <point x="211" y="2" type="curve" smooth="yes" name="hr01"/>
      <point x="211" y="30"/>
      <point x="190" y="66"/>
      <point x="136" y="66" type="curve" smooth="yes"/>
      <point x="76" y="66"/>
      <point x="62" y="20"/>
      <point x="62" y="-1" type="curve" smooth="yes"/>
      <point x="62" y="-25"/>
      <point x="77" y="-66"/>
      <point x="134" y="-66" type="curve" smooth="yes"/>
      <point x="190" y="-66"/>
      <point x="211" y="-29"/>
    </contour>
  </outline>
</glyph>
<glyph name="quotedbl" format="1">
  <advance width="292"/>
  <unicode hex="0022"/>
  <outline>
    <contour>
      <point x="82" y="858" type="curve" smooth="yes"/>
      <point x="38" y="858"/>
      <point x="34" y="804"/>
      <point x="34" y="783" type="curve" smooth="yes"/>
      <point x="34" y="724"/>
      <point x="48" y="641"/>
      <point x="83" y="641" type="curve" smooth="yes"/>
      <point x="113" y="641"/>
      <point x="130" y="755"/>
      <point x="130" y="798" type="curve" smooth="yes"/>
      <point x="130" y="823"/>
      <point x="124" y="858"/>
    </contour>
    <contour>
      <point x="211" y="858" type="curve" smooth="yes"/>
      <point x="167" y="858"/>
      <point x="163" y="804"/>
      <point x="163" y="783" type="curve" smooth="yes"/>
      <point x="163" y="724"/>
      <point x="177" y="641"/>
      <point x="212" y="641" type="curve" smooth="yes"/>
      <point x="242" y="641"/>
      <point x="259" y="755"/>
      <point x="259" y="798" type="curve" smooth="yes"/>
      <point x="259" y="823"/>
      <point x="253" y="858"/>
    </contour>
  </outline>
</glyph>
<glyph name="numbersign" format="1">
  <advance width="739"/>
  <unicode hex="0023"/>
  <outline>
    <contour>
      <point x="60" y="218" type="curve"/>
      <point x="153" y="218" type="line"/>
      <point x="112" y="122"/>
      <point x="81" y="44"/>
      <point x="82" y="37" type="curve" smooth="yes"/>
      <point x="85" y="17"/>
      <point x="100" y="6"/>
      <point x="117" y="6" type="curve" smooth="yes"/>
      <point x="160" y="6"/>
      <point x="167" y="23"/>
      <point x="173" y="42" type="curve" smooth="yes"/>
      <point x="179" y="63"/>
      <point x="208" y="134"/>
      <point x="245" y="220" type="curve"/>
      <point x="300" y="220"/>
      <point x="352" y="221"/>
      <point x="375" y="221" type="curve" smooth="yes"/>
      <point x="379" y="221" type="line"/>
      <point x="338" y="124"/>
      <point x="307" y="44"/>
      <point x="308" y="37" type="curve" smooth="yes"/>
      <point x="311" y="17"/>
      <point x="326" y="6"/>
      <point x="343" y="6" type="curve" smooth="yes"/>
      <point x="379" y="6"/>
      <point x="392" y="22"/>
      <point x="399" y="42" type="curve" smooth="yes"/>
      <point x="406" y="62"/>
      <point x="436" y="134"/>
      <point x="472" y="220" type="curve"/>
      <point x="539" y="220"/>
      <point x="615" y="219"/>
      <point x="627" y="219" type="curve" smooth="yes"/>
      <point x="643" y="219"/>
      <point x="659" y="241"/>
      <point x="659" y="259" type="curve"/>
      <point x="658" y="276"/>
      <point x="642" y="300"/>
      <point x="624" y="300" type="curve" smooth="yes"/>
      <point x="505" y="300" type="line"/>
      <point x="551" y="408" type="line"/>
      <point x="678" y="408" type="line" smooth="yes"/>
      <point x="698" y="408"/>
      <point x="712" y="437"/>
      <point x="712" y="451" type="curve" smooth="yes"/>
      <point x="712" y="469"/>
      <point x="697" y="489"/>
      <point x="682" y="489" type="curve" smooth="yes"/>
      <point x="669" y="489"/>
      <point x="631" y="488"/>
      <point x="585" y="488" type="curve"/>
      <point x="622" y="576"/>
      <point x="649" y="644"/>
      <point x="649" y="650" type="curve" smooth="yes"/>
      <point x="649" y="663"/>
      <point x="640" y="676"/>
      <point x="627" y="676" type="curve" smooth="yes"/>
      <point x="575" y="676"/>
      <point x="571" y="650"/>
      <point x="544" y="602" type="curve"/>
      <point x="543" y="601"/>
      <point x="522" y="553"/>
      <point x="493" y="486" type="curve"/>
      <point x="357" y="486" type="line"/>
      <point x="395" y="575"/>
      <point x="423" y="644"/>
      <point x="423" y="650" type="curve" smooth="yes"/>
      <point x="423" y="663"/>
      <point x="414" y="676"/>
      <point x="401" y="676" type="curve" smooth="yes"/>
      <point x="357" y="676"/>
      <point x="345" y="663"/>
      <point x="318" y="602" type="curve"/>
      <point x="317" y="601"/>
      <point x="297" y="553"/>
      <point x="268" y="486" type="curve"/>
      <point x="199" y="487"/>
      <point x="124" y="488"/>
      <point x="114" y="488" type="curve" smooth="yes"/>
      <point x="99" y="488"/>
      <point x="83" y="466"/>
      <point x="83" y="448" type="curve" smooth="yes"/>
      <point x="83" y="426"/>
      <point x="104" y="407"/>
      <point x="118" y="407" type="curve" smooth="yes"/>
      <point x="233" y="407" type="line"/>
      <point x="187" y="299" type="line"/>
      <point x="65" y="299" type="line" smooth="yes"/>
      <point x="41" y="299"/>
      <point x="31" y="270"/>
      <point x="31" y="256" type="curve" smooth="yes"/>
      <point x="31" y="231"/>
      <point x="55" y="218"/>
    </contour>
    <contour>
      <point x="324" y="407" type="line"/>
      <point x="459" y="407" type="line"/>
      <point x="413" y="300" type="line"/>
      <point x="368" y="300"/>
      <point x="323" y="299"/>
      <point x="278" y="299" type="curve"/>
    </contour>
  </outline>
</glyph>
<glyph name="dollar" format="1">
  <advance width="632"/>
  <unicode hex="0024"/>
  <outline>
    <contour>
      <point x="304" y="-83" type="curve" smooth="yes"/>
      <point x="334" y="-83"/>
      <point x="350" y="-75"/>
      <point x="350" y="-50" type="curve" smooth="yes"/>
      <point x="350" y="-39"/>
      <point x="349" y="-29"/>
      <point x="349" y="-18" type="curve"/>
      <point x="451" y="-9"/>
      <point x="566" y="34"/>
      <point x="566" y="140" type="curve" smooth="yes"/>
      <point x="566" y="247"/>
      <point x="449" y="313"/>
      <point x="348" y="355" type="curve"/>
      <point x="348" y="431"/>
      <point x="349" y="582"/>
      <point x="350" y="708" type="curve"/>
      <point x="408" y="690"/>
      <point x="491" y="604"/>
      <point x="502" y="503" type="curve"/>
      <point x="502" y="474"/>
      <point x="514" y="444"/>
      <point x="545" y="444" type="curve" smooth="yes"/>
      <point x="574" y="444"/>
      <point x="593" y="459"/>
      <point x="593" y="478" type="curve" smooth="yes" name="hr01"/>
      <point x="593" y="520"/>
      <point x="591" y="562"/>
      <point x="591" y="604" type="curve" smooth="yes"/>
      <point x="591" y="652"/>
      <point x="595" y="703"/>
      <point x="595" y="750" type="curve" smooth="yes"/>
      <point x="595" y="759"/>
      <point x="595" y="789"/>
      <point x="550" y="789" type="curve" smooth="yes"/>
      <point x="511" y="789"/>
      <point x="505" y="764"/>
      <point x="505" y="748" type="curve" smooth="yes"/>
      <point x="505" y="737"/>
      <point x="508" y="706"/>
      <point x="513" y="623" type="curve"/>
      <point x="479" y="721"/>
      <point x="424" y="773"/>
      <point x="350" y="786" type="curve"/>
      <point x="350" y="804" type="line" smooth="yes"/>
      <point x="350" y="827"/>
      <point x="338" y="858"/>
      <point x="305" y="858" type="curve" smooth="yes"/>
      <point x="290" y="858"/>
      <point x="259" y="850"/>
      <point x="259" y="820" type="curve" smooth="yes"/>
      <point x="259" y="786" type="line"/>
      <point x="157" y="770"/>
      <point x="50" y="705"/>
      <point x="50" y="569" type="curve" smooth="yes"/>
      <point x="50" y="409"/>
      <point x="123" y="368"/>
      <point x="260" y="298" type="curve"/>
      <point x="260" y="213"/>
      <point x="259" y="139"/>
      <point x="259" y="59" type="curve"/>
      <point x="178" y="72"/>
      <point x="134" y="124"/>
      <point x="134" y="175" type="curve" smooth="yes"/>
      <point x="134" y="204"/>
      <point x="131" y="250"/>
      <point x="87" y="250" type="curve" smooth="yes"/>
      <point x="49" y="250"/>
      <point x="42" y="219"/>
      <point x="42" y="200" type="curve" smooth="yes"/>
      <point x="42" y="158"/>
      <point x="44" y="145"/>
      <point x="44" y="103" type="curve" smooth="yes"/>
      <point x="44" y="74"/>
      <point x="40" y="17"/>
      <point x="40" y="2" type="curve" smooth="yes"/>
      <point x="40" y="-10"/>
      <point x="57" y="-37"/>
      <point x="86" y="-37" type="curve" smooth="yes"/>
      <point x="118" y="-37"/>
      <point x="130" y="-11"/>
      <point x="130" y="5" type="curve"/>
      <point x="130" y="6"/>
      <point x="127" y="77"/>
      <point x="127" y="77" type="curve"/>
      <point x="152" y="15"/>
      <point x="204" y="-9"/>
      <point x="259" y="-18" type="curve"/>
      <point x="259" y="-53" type="line" smooth="yes"/>
      <point x="259" y="-70"/>
      <point x="280" y="-83"/>
    </contour>
    <contour>
      <point x="142" y="560" type="curve" smooth="yes"/>
      <point x="142" y="643"/>
      <point x="198" y="687"/>
      <point x="259" y="705" type="curve"/>
      <point x="260" y="591"/>
      <point x="260" y="462"/>
      <point x="260" y="390" type="curve"/>
      <point x="162" y="431"/>
      <point x="142" y="475"/>
    </contour>
    <contour>
      <point x="347" y="60" type="curve"/>
      <point x="348" y="151"/>
      <point x="348" y="213"/>
      <point x="348" y="261" type="curve"/>
      <point x="415" y="229"/>
      <point x="474" y="192"/>
      <point x="474" y="140" type="curve" smooth="yes" name="hr02"/>
      <point x="474" y="103"/>
      <point x="420" y="71"/>
    </contour>
  </outline>
</glyph>
<glyph name="percent" format="1">
  <advance width="632"/>
  <unicode hex="0025"/>
  <outline>
    <contour>
      <point x="28" y="513" type="curve" smooth="yes"/>
      <point x="28" y="419"/>
      <point x="91" y="372"/>
      <point x="153" y="372" type="curve" smooth="yes"/>
      <point x="232" y="372"/>
      <point x="283" y="437"/>
      <point x="291" y="499" type="curve" smooth="yes"/>
      <point x="292" y="507"/>
      <point x="293" y="512"/>
      <point x="293" y="519" type="curve"/>
      <point x="306" y="511"/>
      <point x="338" y="504"/>
      <point x="360" y="504" type="curve" smooth="yes"/>
      <point x="373" y="504"/>
      <point x="389" y="505"/>
      <point x="400" y="507" type="curve"/>
      <point x="399" y="502"/>
      <point x="155" y="56"/>
      <point x="155" y="37" type="curve" smooth="yes"/>
      <point x="155" y="26"/>
      <point x="167" y="14"/>
      <point x="191" y="14" type="curve" smooth="yes"/>
      <point x="219" y="14"/>
      <point x="235" y="33"/>
      <point x="239" y="42" type="curve" smooth="yes"/>
      <point x="267" y="106"/>
      <point x="555" y="634"/>
      <point x="555" y="650" type="curve" smooth="yes"/>
      <point x="555" y="655"/>
      <point x="554" y="670"/>
      <point x="520" y="670" type="curve" smooth="yes"/>
      <point x="487" y="670"/>
      <point x="468" y="609"/>
      <point x="432" y="584" type="curve" smooth="yes"/>
      <point x="418" y="574"/>
      <point x="401" y="571"/>
      <point x="385" y="571" type="curve" smooth="yes"/>
      <point x="246" y="571"/>
      <point x="286" y="662"/>
      <point x="150" y="662" type="curve" smooth="yes" name="hr01"/>
      <point x="91" y="662"/>
      <point x="28" y="606"/>
    </contour>
    <contour>
      <point x="329" y="122" type="curve" smooth="yes"/>
      <point x="329" y="51"/>
      <point x="374" y="-19"/>
      <point x="458" y="-19" type="curve" smooth="yes"/>
      <point x="542" y="-19"/>
      <point x="588" y="38"/>
      <point x="588" y="125" type="curve" smooth="yes"/>
      <point x="588" y="202"/>
      <point x="555" y="266"/>
      <point x="463" y="266" type="curve" smooth="yes"/>
      <point x="388" y="266"/>
      <point x="329" y="207"/>
    </contour>
    <contour>
      <point x="402" y="124" type="curve" smooth="yes"/>
      <point x="402" y="172"/>
      <point x="425" y="195"/>
      <point x="462" y="195" type="curve" smooth="yes"/>
      <point x="486" y="195"/>
      <point x="512" y="178"/>
      <point x="512" y="128" type="curve" smooth="yes"/>
      <point x="512" y="93"/>
      <point x="497" y="52"/>
      <point x="456" y="52" type="curve" smooth="yes"/>
      <point x="413" y="52"/>
      <point x="402" y="89"/>
    </contour>
    <contour>
      <point x="102" y="513" type="curve" smooth="yes"/>
      <point x="102" y="572"/>
      <point x="134" y="591"/>
      <point x="154" y="591" type="curve" smooth="yes"/>
      <point x="184" y="591"/>
      <point x="219" y="572"/>
      <point x="219" y="521" type="curve" smooth="yes"/>
      <point x="219" y="473"/>
      <point x="198" y="443"/>
      <point x="157" y="443" type="curve" smooth="yes"/>
      <point x="125" y="443"/>
      <point x="102" y="475"/>
    </contour>
  </outline>
</glyph>
<glyph name="ampersand" format="1">
  <advance width="759"/>
  <unicode hex="0026"/>
  <outline>
    <contour>
      <point x="446" y="341" type="curve" smooth="yes"/>
      <point x="460" y="341"/>
      <point x="477" y="352"/>
      <point x="477" y="370" type="curve" smooth="yes"/>
      <point x="477" y="389"/>
      <point x="480" y="398"/>
      <point x="490" y="398" type="curve" smooth="yes"/>
      <point x="500" y="398"/>
      <point x="512" y="384"/>
      <point x="512" y="338" type="curve" smooth="yes"/>
      <point x="512" y="285"/>
      <point x="497" y="244"/>
      <point x="476" y="200" type="curve"/>
      <point x="420" y="281"/>
      <point x="353" y="367"/>
      <point x="308" y="460" type="curve"/>
      <point x="369" y="519"/>
      <point x="456" y="604"/>
      <point x="456" y="715" type="curve" smooth="yes"/>
      <point x="456" y="814"/>
      <point x="384" y="838"/>
      <point x="321" y="838" type="curve" smooth="yes"/>
      <point x="219" y="838"/>
      <point x="133" y="778"/>
      <point x="133" y="675" type="curve" smooth="yes"/>
      <point x="133" y="613"/>
      <point x="164" y="541"/>
      <point x="201" y="469" type="curve"/>
      <point x="164" y="450"/>
      <point x="26" y="340"/>
      <point x="26" y="188" type="curve" smooth="yes"/>
      <point x="26" y="34"/>
      <point x="172" y="-9"/>
      <point x="272" y="-9" type="curve" smooth="yes"/>
      <point x="346" y="-9"/>
      <point x="406" y="12"/>
      <point x="475" y="79" type="curve"/>
      <point x="521" y="24"/>
      <point x="549" y="-19"/>
      <point x="583" y="-19" type="curve" smooth="yes" name="hr01"/>
      <point x="771" y="-19"/>
      <point x="786" y="-13"/>
      <point x="786" y="13" type="curve" smooth="yes"/>
      <point x="786" y="36"/>
      <point x="765" y="42"/>
      <point x="689" y="45" type="curve" smooth="yes" name="hr02"/>
      <point x="645" y="47"/>
      <point x="612" y="47"/>
      <point x="601" y="50" type="curve" smooth="yes"/>
      <point x="591" y="53"/>
      <point x="570" y="77"/>
      <point x="524" y="140" type="curve"/>
      <point x="553" y="195"/>
      <point x="586" y="257"/>
      <point x="586" y="347" type="curve" smooth="yes"/>
      <point x="586" y="450"/>
      <point x="529" y="460"/>
      <point x="488" y="460" type="curve" smooth="yes"/>
      <point x="421" y="460"/>
      <point x="406" y="419"/>
      <point x="406" y="393" type="curve" smooth="yes"/>
      <point x="406" y="357"/>
      <point x="426" y="341"/>
    </contour>
    <contour>
      <point x="238" y="402" type="curve"/>
      <point x="311" y="276"/>
      <point x="351" y="208"/>
      <point x="415" y="130" type="curve"/>
      <point x="391" y="105"/>
      <point x="351" y="70"/>
      <point x="273" y="70" type="curve" smooth="yes" name="hr03"/>
      <point x="222" y="70"/>
      <point x="122" y="84"/>
      <point x="122" y="196" type="curve" smooth="yes"/>
      <point x="122" y="284"/>
      <point x="181" y="345"/>
    </contour>
    <contour>
      <point x="361" y="701" type="curve" smooth="yes"/>
      <point x="361" y="631"/>
      <point x="275" y="554"/>
      <point x="262" y="538" type="curve"/>
      <point x="243" y="586"/>
      <point x="229" y="631"/>
      <point x="229" y="673" type="curve" smooth="yes"/>
      <point x="229" y="727"/>
      <point x="251" y="759"/>
      <point x="305" y="759" type="curve" smooth="yes"/>
      <point x="354" y="759"/>
      <point x="361" y="732"/>
    </contour>
  </outline>
</glyph>
<glyph name="quotesingle" format="1">
  <advance width="163"/>
  <unicode hex="0027"/>
  <outline>
    <contour>
      <point x="82" y="858" type="curve" smooth="yes"/>
      <point x="38" y="858"/>
      <point x="34" y="804"/>
      <point x="34" y="783" type="curve" smooth="yes"/>
      <point x="34" y="724"/>
      <point x="48" y="641"/>
      <point x="83" y="641" type="curve" smooth="yes"/>
      <point x="113" y="641"/>
      <point x="130" y="755"/>
      <point x="130" y="798" type="curve" smooth="yes"/>
      <point x="130" y="823"/>
      <point x="124" y="858"/>
    </contour>
  </outline>
</glyph>
<glyph name="parenleft" format="1">
  <advance width="284"/>
  <unicode hex="0028"/>
  <outline>
    <contour>
      <point x="144" y="6" type="curve" smooth="yes"/>
      <point x="154" y="-8"/>
      <point x="167" y="-35"/>
      <point x="198" y="-35" type="curve" smooth="yes"/>
      <point x="229" y="-35"/>
      <point x="238" y="-13"/>
      <point x="238" y="0" type="curve" smooth="yes"/>
      <point x="238" y="50"/>
      <point x="135" y="183"/>
      <point x="135" y="411" type="curve" smooth="yes" name="hr01"/>
      <point x="135" y="636"/>
      <point x="262" y="766"/>
      <point x="262" y="819" type="curve" smooth="yes" name="hr02"/>
      <point x="262" y="831"/>
      <point x="253" y="854"/>
      <point x="221" y="854" type="curve" smooth="yes"/>
      <point x="190" y="854"/>
      <point x="175" y="824"/>
      <point x="175" y="825" type="curve"/>
      <point x="175" y="825"/>
      <point x="39" y="628"/>
      <point x="39" y="409" type="curve" smooth="yes"/>
      <point x="39" y="189"/>
      <point x="124" y="32"/>
    </contour>
  </outline>
</glyph>
<glyph name="parenright" format="1">
  <advance width="284"/>
  <unicode hex="0029"/>
  <outline>
    <contour>
      <point x="140" y="813" type="curve" smooth="yes"/>
      <point x="130" y="827"/>
      <point x="117" y="854"/>
      <point x="86" y="854" type="curve" smooth="yes"/>
      <point x="55" y="854"/>
      <point x="46" y="832"/>
      <point x="46" y="819" type="curve" smooth="yes"/>
      <point x="46" y="769"/>
      <point x="149" y="636"/>
      <point x="149" y="408" type="curve" smooth="yes" name="hr01"/>
      <point x="149" y="183"/>
      <point x="22" y="53"/>
      <point x="22" y="0" type="curve" smooth="yes" name="hr02"/>
      <point x="22" y="-12"/>
      <point x="31" y="-35"/>
      <point x="63" y="-35" type="curve" smooth="yes"/>
      <point x="94" y="-35"/>
      <point x="109" y="-5"/>
      <point x="109" y="-6" type="curve"/>
      <point x="109" y="-6"/>
      <point x="245" y="191"/>
      <point x="245" y="410" type="curve" smooth="yes"/>
      <point x="245" y="630"/>
      <point x="160" y="787"/>
    </contour>
  </outline>
</glyph>
<glyph name="asterisk" format="1">
  <advance width="394"/>
  <unicode hex="002A"/>
  <outline>
    <contour>
      <point x="273" y="832" type="curve" smooth="yes"/>
      <point x="248" y="832"/>
      <point x="230" y="782"/>
      <point x="197" y="731" type="curve"/>
      <point x="152" y="799"/>
      <point x="139" y="832"/>
      <point x="115" y="832" type="curve" smooth="yes"/>
      <point x="97" y="832"/>
      <point x="85" y="821"/>
      <point x="85" y="801" type="curve" smooth="yes"/>
      <point x="85" y="782"/>
      <point x="105" y="767"/>
      <point x="158" y="710" type="curve"/>
      <point x="115" y="714"/>
      <point x="98" y="714"/>
      <point x="66" y="714" type="curve" smooth="yes" name="hr01"/>
      <point x="38" y="714"/>
      <point x="24" y="696"/>
      <point x="24" y="683" type="curve" smooth="yes"/>
      <point x="24" y="659"/>
      <point x="50" y="655"/>
      <point x="66" y="655" type="curve" smooth="yes"/>
      <point x="95" y="655"/>
      <point x="120" y="655"/>
      <point x="158" y="656" type="curve"/>
      <point x="130" y="637"/>
      <point x="85" y="595"/>
      <point x="85" y="570" type="curve" smooth="yes"/>
      <point x="85" y="552"/>
      <point x="95" y="542"/>
      <point x="118" y="542" type="curve" smooth="yes" name="hr02"/>
      <point x="144" y="542"/>
      <point x="192" y="626"/>
      <point x="196" y="636" type="curve"/>
      <point x="203" y="627"/>
      <point x="263" y="542"/>
      <point x="288" y="542" type="curve" smooth="yes"/>
      <point x="303" y="542"/>
      <point x="318" y="548"/>
      <point x="318" y="568" type="curve" smooth="yes"/>
      <point x="318" y="606"/>
      <point x="242" y="651"/>
      <point x="238" y="656" type="curve"/>
      <point x="249" y="655"/>
      <point x="308" y="655"/>
      <point x="342" y="655" type="curve" smooth="yes" name="hr03"/>
      <point x="356" y="655"/>
      <point x="371" y="667"/>
      <point x="371" y="687" type="curve" smooth="yes"/>
      <point x="371" y="702"/>
      <point x="357" y="715"/>
      <point x="341" y="715" type="curve" smooth="yes"/>
      <point x="314" y="715"/>
      <point x="267" y="714"/>
      <point x="240" y="710" type="curve"/>
      <point x="241" y="725"/>
      <point x="303" y="776"/>
      <point x="303" y="801" type="curve" smooth="yes"/>
      <point x="303" y="815"/>
      <point x="296" y="832"/>
    </contour>
  </outline>
</glyph>
<glyph name="plus" format="1">
  <advance width="393"/>
  <unicode hex="002B"/>
  <outline>
    <contour>
      <point x="153" y="541" type="curve" smooth="yes"/>
      <point x="153" y="520"/>
      <point x="156" y="489"/>
      <point x="156" y="449" type="curve"/>
      <point x="62" y="449" type="line" smooth="yes"/>
      <point x="51" y="449"/>
      <point x="29" y="441"/>
      <point x="29" y="408" type="curve" smooth="yes" name="hr01"/>
      <point x="29" y="375"/>
      <point x="53" y="367"/>
      <point x="62" y="367" type="curve" smooth="yes"/>
      <point x="79" y="367"/>
      <point x="115" y="369"/>
      <point x="154" y="370" type="curve"/>
      <point x="153" y="339"/>
      <point x="151" y="295"/>
      <point x="151" y="276" type="curve" smooth="yes"/>
      <point x="151" y="265"/>
      <point x="160" y="244"/>
      <point x="194" y="244" type="curve" smooth="yes" name="hr02"/>
      <point x="230" y="244"/>
      <point x="240" y="263"/>
      <point x="240" y="276" type="curve"/>
      <point x="240" y="370" type="line" name="hr03"/>
      <point x="327" y="370" type="line" smooth="yes"/>
      <point x="345" y="370"/>
      <point x="363" y="380"/>
      <point x="363" y="412" type="curve" smooth="yes" name="hr04"/>
      <point x="363" y="446"/>
      <point x="347" y="454"/>
      <point x="335" y="454" type="curve" smooth="yes"/>
      <point x="312" y="454"/>
      <point x="280" y="449"/>
      <point x="240" y="449" type="curve" name="hr05"/>
      <point x="240" y="485"/>
      <point x="241" y="520"/>
      <point x="241" y="541" type="curve" smooth="yes"/>
      <point x="241" y="555"/>
      <point x="230" y="576"/>
      <point x="195" y="576" type="curve" smooth="yes" name="hr06"/>
      <point x="168" y="576"/>
      <point x="153" y="555"/>
    </contour>
  </outline>
</glyph>
<glyph name="comma" format="1">
  <advance width="213"/>
  <unicode hex="002C"/>
  <outline>
    <contour>
      <point x="42" y="36" type="curve" smooth="yes"/>
      <point x="42" y="5"/>
      <point x="78" y="3"/>
      <point x="78" y="-14" type="curve" smooth="yes" name="hr01"/>
      <point x="78" y="-54"/>
      <point x="63" y="-69"/>
      <point x="63" y="-83" type="curve" smooth="yes" name="hr02"/>
      <point x="63" y="-106"/>
      <point x="83" y="-106"/>
      <point x="89" y="-106" type="curve" smooth="yes"/>
      <point x="105" y="-106"/>
      <point x="170" y="-67"/>
      <point x="170" y="13" type="curve" smooth="yes"/>
      <point x="170" y="71"/>
      <point x="134" y="94"/>
      <point x="102" y="94" type="curve" smooth="yes"/>
      <point x="58" y="94"/>
      <point x="42" y="64"/>
    </contour>
  </outline>
</glyph>
<glyph name="hyphen" format="1">
  <advance width="402"/>
  <unicode hex="002D"/>
  <outline>
    <contour>
      <point x="319" y="309" type="curve" smooth="yes"/>
      <point x="287" y="309"/>
      <point x="246" y="306"/>
      <point x="191" y="306" type="curve" smooth="yes" name="hr01"/>
      <point x="157" y="306"/>
      <point x="109" y="308"/>
      <point x="90" y="308" type="curve" smooth="yes" name="hr02"/>
      <point x="67" y="308"/>
      <point x="57" y="287"/>
      <point x="57" y="269" type="curve" smooth="yes"/>
      <point x="57" y="251"/>
      <point x="71" y="229"/>
      <point x="90" y="229" type="curve" smooth="yes" name="hr03"/>
      <point x="137" y="229"/>
      <point x="258" y="230"/>
      <point x="311" y="230" type="curve" smooth="yes" name="hr04"/>
      <point x="340" y="230"/>
      <point x="347" y="258"/>
      <point x="347" y="272" type="curve" smooth="yes"/>
      <point x="347" y="292"/>
      <point x="332" y="309"/>
    </contour>
  </outline>
</glyph>
<glyph name="period" format="1">
  <advance width="218"/>
  <unicode hex="002E"/>
  <outline>
    <contour>
      <point x="40" y="34" type="curve" smooth="yes"/>
      <point x="40" y="6"/>
      <point x="59" y="-28"/>
      <point x="108" y="-28" type="curve" smooth="yes"/>
      <point x="154" y="-28"/>
      <point x="178" y="3"/>
      <point x="178" y="36" type="curve" smooth="yes"/>
      <point x="178" y="65"/>
      <point x="157" y="98"/>
      <point x="110" y="98" type="curve" smooth="yes"/>
      <point x="59" y="98"/>
      <point x="40" y="61"/>
    </contour>
  </outline>
</glyph>
<glyph name="slash" format="1">
  <advance width="548"/>
  <unicode hex="002F"/>
  <outline>
    <contour>
      <point x="23" y="24" type="curve" smooth="yes"/>
      <point x="22" y="22"/>
      <point x="21" y="16"/>
      <point x="21" y="14" type="curve"/>
      <point x="21" y="-7"/>
      <point x="44" y="-19"/>
      <point x="58" y="-19" type="curve" smooth="yes"/>
      <point x="85" y="-19"/>
      <point x="102" y="-9"/>
      <point x="109" y="5" type="curve" smooth="yes"/>
      <point x="514" y="768" type="line" smooth="yes"/>
      <point x="519" y="776"/>
      <point x="528" y="797"/>
      <point x="528" y="807" type="curve" smooth="yes"/>
      <point x="528" y="823"/>
      <point x="511" y="838"/>
      <point x="483" y="838" type="curve" smooth="yes"/>
      <point x="455" y="838"/>
      <point x="445" y="826"/>
      <point x="419" y="774" type="curve" smooth="yes"/>
      <point x="324" y="582"/>
      <point x="354" y="636"/>
      <point x="238" y="423" type="curve" smooth="yes"/>
      <point x="109" y="186"/>
      <point x="89" y="151"/>
    </contour>
  </outline>
</glyph>
<glyph name="zero" format="1">
  <advance width="608"/>
  <unicode hex="0030"/>
  <outline>
    <contour>
      <point x="133" y="384" type="curve" smooth="yes"/>
      <point x="133" y="559"/>
      <point x="188" y="758"/>
      <point x="304" y="758" type="curve" smooth="yes"/>
      <point x="459" y="758"/>
      <point x="474" y="531"/>
      <point x="474" y="402" type="curve" smooth="yes"/>
      <point x="474" y="153"/>
      <point x="373" y="60"/>
      <point x="300" y="60" type="curve" smooth="yes"/>
      <point x="163" y="60"/>
      <point x="133" y="245"/>
    </contour>
    <contour>
      <point x="37" y="365" type="curve" smooth="yes"/>
      <point x="37" y="72"/>
      <point x="163" y="-21"/>
      <point x="288" y="-21" type="curve" smooth="yes"/>
      <point x="412" y="-21"/>
      <point x="570" y="73"/>
      <point x="570" y="399" type="curve" smooth="yes"/>
      <point x="570" y="578"/>
      <point x="539" y="839"/>
      <point x="309" y="839" type="curve" smooth="yes"/>
      <point x="94" y="839"/>
      <point x="37" y="576"/>
    </contour>
  </outline>
</glyph>
<glyph name="one" format="1">
  <advance width="364"/>
  <unicode hex="0031"/>
  <outline>
    <contour>
      <point x="250" y="792" type="line"/>
      <point x="250" y="816"/>
      <point x="243" y="821"/>
      <point x="230" y="821" type="curve" smooth="yes"/>
      <point x="210" y="821"/>
      <point x="89" y="819"/>
      <point x="68" y="818" type="curve" smooth="yes"/>
      <point x="46" y="817"/>
      <point x="24" y="810"/>
      <point x="24" y="785" type="curve" smooth="yes"/>
      <point x="24" y="762"/>
      <point x="46" y="756"/>
      <point x="70" y="756" type="curve" smooth="yes"/>
      <point x="84" y="756"/>
      <point x="124" y="757"/>
      <point x="133" y="757" type="curve" smooth="yes"/>
      <point x="151" y="757"/>
      <point x="155" y="747"/>
      <point x="155" y="723" type="curve" smooth="yes" name="hr01"/>
      <point x="155" y="577"/>
      <point x="153" y="611"/>
      <point x="150" y="457" type="curve" smooth="yes"/>
      <point x="149" y="396"/>
      <point x="148" y="197"/>
      <point x="139" y="106" type="curve" smooth="yes"/>
      <point x="135" y="66"/>
      <point x="95" y="60"/>
      <point x="70" y="60" type="curve" smooth="yes"/>
      <point x="36" y="60"/>
      <point x="23" y="50"/>
      <point x="23" y="25" type="curve" smooth="yes"/>
      <point x="23" y="1"/>
      <point x="49" y="0"/>
      <point x="82" y="0" type="curve" smooth="yes"/>
      <point x="317" y="0" type="line" smooth="yes"/>
      <point x="332" y="0"/>
      <point x="344" y="11"/>
      <point x="344" y="29" type="curve" smooth="yes"/>
      <point x="344" y="57"/>
      <point x="323" y="63"/>
      <point x="305" y="63" type="curve" smooth="yes"/>
      <point x="235" y="63" type="line"/>
    </contour>
  </outline>
</glyph>
<glyph name="two" format="1">
  <advance width="571"/>
  <unicode hex="0032"/>
  <outline>
    <contour>
      <point x="455" y="101" type="line" smooth="yes"/>
      <point x="445" y="83"/>
      <point x="432" y="79"/>
      <point x="423" y="77" type="curve" smooth="yes"/>
      <point x="413" y="75"/>
      <point x="355" y="74"/>
      <point x="294" y="74" type="curve" smooth="yes"/>
      <point x="253" y="74"/>
      <point x="211" y="74"/>
      <point x="181" y="76" type="curve"/>
      <point x="298" y="182"/>
      <point x="509" y="432"/>
      <point x="509" y="626" type="curve" smooth="yes"/>
      <point x="509" y="738"/>
      <point x="447" y="831"/>
      <point x="281" y="831" type="curve" smooth="yes"/>
      <point x="118" y="831"/>
      <point x="29" y="679"/>
      <point x="29" y="616" type="curve" smooth="yes"/>
      <point x="29" y="582"/>
      <point x="45" y="549"/>
      <point x="92" y="549" type="curve" smooth="yes"/>
      <point x="137" y="549"/>
      <point x="152" y="577"/>
      <point x="152" y="602" type="curve" smooth="yes"/>
      <point x="152" y="627"/>
      <point x="132" y="636"/>
      <point x="132" y="655" type="curve" smooth="yes"/>
      <point x="132" y="674"/>
      <point x="184" y="752"/>
      <point x="271" y="752" type="curve" smooth="yes"/>
      <point x="376" y="752"/>
      <point x="413" y="682"/>
      <point x="413" y="628" type="curve" smooth="yes"/>
      <point x="413" y="431"/>
      <point x="176" y="149"/>
      <point x="32" y="40" type="curve" smooth="yes"/>
      <point x="21" y="31"/>
      <point x="11" y="23"/>
      <point x="11" y="10" type="curve" smooth="yes"/>
      <point x="11" y="0"/>
      <point x="20" y="-14"/>
      <point x="47" y="-14" type="curve" smooth="yes" name="hr01"/>
      <point x="75" y="-14"/>
      <point x="98" y="-3"/>
      <point x="103" y="3" type="curve"/>
      <point x="113" y="3"/>
      <point x="151" y="2"/>
      <point x="191" y="2" type="curve" smooth="yes"/>
      <point x="291" y="2"/>
      <point x="368" y="0"/>
      <point x="468" y="0" type="curve" smooth="yes" name="hr02"/>
      <point x="478" y="0"/>
      <point x="491" y="3"/>
      <point x="501" y="23" type="curve" smooth="yes"/>
      <point x="524" y="69"/>
      <point x="546" y="107"/>
      <point x="546" y="126" type="curve" smooth="yes"/>
      <point x="546" y="147"/>
      <point x="531" y="153"/>
      <point x="512" y="153" type="curve" smooth="yes"/>
      <point x="493" y="153"/>
      <point x="481" y="148"/>
      <point x="468" y="124" type="curve" smooth="yes"/>
    </contour>
  </outline>
</glyph>
<glyph name="three" format="1">
  <advance width="548"/>
  <unicode hex="0033"/>
  <outline>
    <contour>
      <point x="106" y="435" type="curve" smooth="yes"/>
      <point x="94" y="428"/>
      <point x="77" y="414"/>
      <point x="77" y="381" type="curve" smooth="yes"/>
      <point x="77" y="358"/>
      <point x="89" y="344"/>
      <point x="109" y="344" type="curve" smooth="yes"/>
      <point x="138" y="344"/>
      <point x="179" y="368"/>
      <point x="255" y="368" type="curve" smooth="yes"/>
      <point x="332" y="368"/>
      <point x="404" y="345"/>
      <point x="404" y="263" type="curve" smooth="yes"/>
      <point x="404" y="131"/>
      <point x="233" y="56"/>
      <point x="163" y="56" type="curve" smooth="yes"/>
      <point x="142" y="56"/>
      <point x="109" y="56"/>
      <point x="92" y="64" type="curve" smooth="yes"/>
      <point x="66" y="77"/>
      <point x="58" y="101"/>
      <point x="30" y="101" type="curve" smooth="yes" name="hr01"/>
      <point x="7" y="101"/>
      <point x="-5" y="81"/>
      <point x="-5" y="56" type="curve" smooth="yes" name="hr02"/>
      <point x="-5" y="10"/>
      <point x="62" y="-18"/>
      <point x="144" y="-18" type="curve" smooth="yes"/>
      <point x="330" y="-18"/>
      <point x="495" y="124"/>
      <point x="495" y="264" type="curve" smooth="yes"/>
      <point x="495" y="368"/>
      <point x="409" y="436"/>
      <point x="305" y="436" type="curve" smooth="yes"/>
      <point x="250" y="436"/>
      <point x="234" y="433"/>
      <point x="198" y="423" type="curve"/>
      <point x="264" y="445"/>
      <point x="482" y="556"/>
      <point x="482" y="708" type="curve" smooth="yes" name="hr03"/>
      <point x="482" y="812"/>
      <point x="404" y="836"/>
      <point x="301" y="836" type="curve" smooth="yes"/>
      <point x="107" y="836"/>
      <point x="34" y="684"/>
      <point x="34" y="612" type="curve" smooth="yes"/>
      <point x="34" y="609"/>
      <point x="36" y="580"/>
      <point x="72" y="580" type="curve" smooth="yes"/>
      <point x="106" y="580"/>
      <point x="127" y="622"/>
      <point x="133" y="642" type="curve" smooth="yes"/>
      <point x="154" y="720"/>
      <point x="221" y="765"/>
      <point x="283" y="765" type="curve" smooth="yes"/>
      <point x="358" y="765"/>
      <point x="391" y="740"/>
      <point x="391" y="694" type="curve" smooth="yes"/>
      <point x="391" y="585"/>
      <point x="170" y="473"/>
    </contour>
  </outline>
</glyph>
<glyph name="four" format="1">
  <advance width="580"/>
  <unicode hex="0034"/>
  <outline>
    <contour>
      <point x="541" y="244" type="line" smooth="yes"/>
      <point x="557" y="244"/>
      <point x="578" y="254"/>
      <point x="578" y="285" type="curve" smooth="yes"/>
      <point x="578" y="311"/>
      <point x="564" y="324"/>
      <point x="535" y="325" type="curve" smooth="yes"/>
      <point x="464" y="328" type="line" name="hr01"/>
      <point x="464" y="471"/>
      <point x="491" y="769"/>
      <point x="491" y="777" type="curve" smooth="yes"/>
      <point x="491" y="804"/>
      <point x="471" y="820"/>
      <point x="437" y="820" type="curve" smooth="yes"/>
      <point x="411" y="820"/>
      <point x="394" y="804"/>
      <point x="382" y="789" type="curve" smooth="yes"/>
      <point x="238" y="608"/>
      <point x="225" y="589"/>
      <point x="1" y="291" type="curve" smooth="yes"/>
      <point x="-7" y="280"/>
      <point x="-9" y="272"/>
      <point x="-9" y="264" type="curve" smooth="yes"/>
      <point x="-9" y="246"/>
      <point x="10" y="234"/>
      <point x="33" y="234" type="curve" smooth="yes"/>
      <point x="63" y="234"/>
      <point x="167" y="240"/>
      <point x="371" y="244" type="curve"/>
      <point x="362" y="101" type="line" smooth="yes"/>
      <point x="360" y="74"/>
      <point x="344" y="69"/>
      <point x="313" y="63" type="curve" smooth="yes"/>
      <point x="302" y="61"/>
      <point x="262" y="58"/>
      <point x="240" y="56" type="curve" smooth="yes"/>
      <point x="222" y="54"/>
      <point x="203" y="50"/>
      <point x="203" y="28" type="curve" smooth="yes" name="hr02"/>
      <point x="203" y="2"/>
      <point x="229" y="0"/>
      <point x="243" y="0" type="curve" smooth="yes"/>
      <point x="501" y="0" type="line" smooth="yes"/>
      <point x="527" y="0"/>
      <point x="554" y="5"/>
      <point x="554" y="31" type="curve" smooth="yes" name="hr03"/>
      <point x="554" y="53"/>
      <point x="540" y="65"/>
      <point x="481" y="65" type="curve" smooth="yes"/>
      <point x="461" y="65"/>
      <point x="452" y="70"/>
      <point x="452" y="87" type="curve" smooth="yes" name="hr04"/>
      <point x="452" y="102"/>
      <point x="456" y="192"/>
      <point x="461" y="244" type="curve"/>
    </contour>
    <contour>
      <point x="139" y="316" type="curve" smooth="yes"/>
      <point x="133" y="316"/>
      <point x="128" y="317"/>
      <point x="128" y="322" type="curve" smooth="yes"/>
      <point x="128" y="327"/>
      <point x="130" y="330"/>
      <point x="139" y="342" type="curve" smooth="yes"/>
      <point x="400" y="696" type="line"/>
      <point x="373" y="328" type="line"/>
      <point x="291" y="322"/>
      <point x="150" y="316"/>
    </contour>
  </outline>
</glyph>
<glyph name="five" format="1">
  <advance width="556"/>
  <unicode hex="0035"/>
  <outline>
    <contour>
      <point x="449" y="812" type="curve" smooth="yes"/>
      <point x="393" y="812"/>
      <point x="174" y="806"/>
      <point x="105" y="794" type="curve" smooth="yes"/>
      <point x="94" y="792"/>
      <point x="87" y="785"/>
      <point x="86" y="775" type="curve" smooth="yes"/>
      <point x="77" y="647"/>
      <point x="75" y="627"/>
      <point x="59" y="505" type="curve" smooth="yes"/>
      <point x="57" y="488"/>
      <point x="55" y="468"/>
      <point x="55" y="460" type="curve" smooth="yes"/>
      <point x="55" y="403"/>
      <point x="63" y="375"/>
      <point x="93" y="375" type="curve" smooth="yes"/>
      <point x="119" y="375"/>
      <point x="198" y="412"/>
      <point x="300" y="412" type="curve" smooth="yes"/>
      <point x="409" y="412"/>
      <point x="446" y="352"/>
      <point x="446" y="274" type="curve" smooth="yes"/>
      <point x="446" y="175"/>
      <point x="370" y="61"/>
      <point x="193" y="61" type="curve" smooth="yes"/>
      <point x="153" y="61"/>
      <point x="113" y="79"/>
      <point x="113" y="100" type="curve" smooth="yes"/>
      <point x="113" y="137"/>
      <point x="171" y="107"/>
      <point x="171" y="165" type="curve" smooth="yes" name="hr01"/>
      <point x="171" y="195"/>
      <point x="149" y="212"/>
      <point x="116" y="212" type="curve" smooth="yes"/>
      <point x="65" y="212"/>
      <point x="29" y="168"/>
      <point x="29" y="104" type="curve" smooth="yes"/>
      <point x="29" y="-2"/>
      <point x="131" y="-12"/>
      <point x="211" y="-12" type="curve" smooth="yes"/>
      <point x="433" y="-12"/>
      <point x="542" y="138"/>
      <point x="542" y="269" type="curve" smooth="yes"/>
      <point x="542" y="369"/>
      <point x="493" y="492"/>
      <point x="305" y="492" type="curve" smooth="yes"/>
      <point x="244" y="492"/>
      <point x="160" y="468"/>
      <point x="146" y="463" type="curve"/>
      <point x="170" y="706" type="line"/>
      <point x="207" y="723"/>
      <point x="410" y="725"/>
      <point x="454" y="725" type="curve" smooth="yes"/>
      <point x="475" y="725"/>
      <point x="509" y="732"/>
      <point x="509" y="771" type="curve" smooth="yes"/>
      <point x="509" y="803"/>
      <point x="485" y="812"/>
    </contour>
  </outline>
</glyph>
<glyph name="six" format="1">
  <advance width="544"/>
  <unicode hex="0036"/>
  <outline>
    <contour>
      <point x="365" y="772" type="curve" smooth="yes"/>
      <point x="374" y="780"/>
      <point x="377" y="787"/>
      <point x="377" y="796" type="curve" smooth="yes"/>
      <point x="377" y="819"/>
      <point x="362" y="830"/>
      <point x="342" y="830" type="curve" smooth="yes"/>
      <point x="332" y="830"/>
      <point x="321" y="826"/>
      <point x="301" y="816" type="curve" smooth="yes"/>
      <point x="210" y="769"/>
      <point x="31" y="501"/>
      <point x="31" y="249" type="curve" smooth="yes"/>
      <point x="31" y="52"/>
      <point x="147" y="-18"/>
      <point x="293" y="-18" type="curve" smooth="yes"/>
      <point x="486" y="-18"/>
      <point x="530" y="114"/>
      <point x="530" y="214" type="curve" smooth="yes"/>
      <point x="530" y="303"/>
      <point x="489" y="420"/>
      <point x="315" y="420" type="curve" smooth="yes"/>
      <point x="231" y="420"/>
      <point x="163" y="391"/>
      <point x="119" y="324" type="curve"/>
      <point x="126" y="404"/>
      <point x="142" y="433"/>
      <point x="166" y="489" type="curve" smooth="yes"/>
      <point x="239" y="660"/>
      <point x="298" y="712"/>
    </contour>
    <contour>
      <point x="290" y="61" type="curve" smooth="yes"/>
      <point x="229" y="61"/>
      <point x="145" y="97"/>
      <point x="145" y="194" type="curve" smooth="yes"/>
      <point x="145" y="295"/>
      <point x="229" y="338"/>
      <point x="298" y="338" type="curve" smooth="yes"/>
      <point x="400" y="338"/>
      <point x="442" y="289"/>
      <point x="442" y="203" type="curve" smooth="yes"/>
      <point x="442" y="118"/>
      <point x="386" y="61"/>
    </contour>
  </outline>
</glyph>
<glyph name="seven" format="1">
  <advance width="480"/>
  <unicode hex="0037"/>
  <outline>
    <contour>
      <point x="16" y="77" type="curve" smooth="yes"/>
      <point x="0" y="48"/>
      <point x="-11" y="28"/>
      <point x="-11" y="11" type="curve" smooth="yes"/>
      <point x="-11" y="-15"/>
      <point x="11" y="-24"/>
      <point x="28" y="-24" type="curve" smooth="yes"/>
      <point x="53" y="-24"/>
      <point x="66" y="-16"/>
      <point x="77" y="5" type="curve" smooth="yes"/>
      <point x="457" y="718" type="line" smooth="yes"/>
      <point x="461" y="725"/>
      <point x="487" y="771"/>
      <point x="487" y="790" type="curve" smooth="yes"/>
      <point x="487" y="813"/>
      <point x="479" y="819"/>
      <point x="421" y="819" type="curve" smooth="yes"/>
      <point x="374" y="819"/>
      <point x="126" y="815"/>
      <point x="81" y="815" type="curve" smooth="yes"/>
      <point x="49" y="815"/>
      <point x="25" y="808"/>
      <point x="25" y="777" type="curve" smooth="yes"/>
      <point x="25" y="751"/>
      <point x="36" y="730"/>
      <point x="57" y="730" type="curve" smooth="yes"/>
      <point x="163" y="730"/>
      <point x="248" y="737"/>
      <point x="347" y="737" type="curve" smooth="yes"/>
      <point x="357" y="737"/>
      <point x="361" y="733"/>
      <point x="361" y="726" type="curve" smooth="yes"/>
      <point x="361" y="704"/>
      <point x="173" y="356"/>
    </contour>
  </outline>
</glyph>
<glyph name="eight" format="1">
  <advance width="578"/>
  <unicode hex="0038"/>
  <outline>
    <contour>
      <point x="21" y="193" type="curve" smooth="yes"/>
      <point x="21" y="51"/>
      <point x="120" y="-20"/>
      <point x="257" y="-20" type="curve" smooth="yes"/>
      <point x="430" y="-20"/>
      <point x="527" y="89"/>
      <point x="527" y="214" type="curve" smooth="yes"/>
      <point x="527" y="326"/>
      <point x="441" y="407"/>
      <point x="369" y="420" type="curve"/>
      <point x="420" y="435"/>
      <point x="509" y="513"/>
      <point x="509" y="622" type="curve" smooth="yes" name="hr01"/>
      <point x="509" y="722"/>
      <point x="450" y="832"/>
      <point x="275" y="832" type="curve" smooth="yes"/>
      <point x="125" y="832"/>
      <point x="47" y="728"/>
      <point x="47" y="614" type="curve" smooth="yes"/>
      <point x="47" y="510"/>
      <point x="109" y="446"/>
      <point x="167" y="420" type="curve"/>
      <point x="113" y="402"/>
      <point x="21" y="332"/>
    </contour>
    <contour>
      <point x="117" y="209" type="curve" smooth="yes"/>
      <point x="117" y="304"/>
      <point x="183" y="374"/>
      <point x="271" y="374" type="curve" smooth="yes"/>
      <point x="359" y="374"/>
      <point x="432" y="311"/>
      <point x="432" y="209" type="curve" smooth="yes"/>
      <point x="432" y="110"/>
      <point x="362" y="55"/>
      <point x="262" y="55" type="curve" smooth="yes"/>
      <point x="145" y="55"/>
      <point x="117" y="126"/>
    </contour>
    <contour>
      <point x="136" y="612" type="curve" smooth="yes" name="hr03"/>
      <point x="136" y="677"/>
      <point x="178" y="753"/>
      <point x="279" y="753" type="curve" smooth="yes"/>
      <point x="367" y="753"/>
      <point x="422" y="694"/>
      <point x="422" y="616" type="curve" smooth="yes"/>
      <point x="422" y="534"/>
      <point x="356" y="467"/>
      <point x="278" y="467" type="curve" smooth="yes"/>
      <point x="207" y="467"/>
      <point x="136" y="516"/>
    </contour>
  </outline>
</glyph>
<glyph name="nine" format="1">
  <advance width="556"/>
  <unicode hex="0039"/>
  <outline>
    <contour>
      <point x="259" y="2" type="curve" smooth="yes"/>
      <point x="307" y="40"/>
      <point x="370" y="101"/>
      <point x="433" y="217" type="curve" smooth="yes"/>
      <point x="481" y="305"/>
      <point x="526" y="443"/>
      <point x="526" y="578" type="curve" smooth="yes"/>
      <point x="526" y="659"/>
      <point x="496" y="830"/>
      <point x="282" y="830" type="curve" smooth="yes"/>
      <point x="88" y="830"/>
      <point x="19" y="694"/>
      <point x="19" y="581" type="curve" smooth="yes"/>
      <point x="19" y="436"/>
      <point x="114" y="339"/>
      <point x="230" y="339" type="curve" smooth="yes"/>
      <point x="308" y="339"/>
      <point x="368" y="350"/>
      <point x="419" y="399" type="curve"/>
      <point x="386" y="277"/>
      <point x="303" y="126"/>
      <point x="183" y="45" type="curve" smooth="yes"/>
      <point x="164" y="32"/>
      <point x="159" y="22"/>
      <point x="159" y="6" type="curve" smooth="yes"/>
      <point x="159" y="-19"/>
      <point x="177" y="-24"/>
      <point x="195" y="-24" type="curve" smooth="yes"/>
      <point x="221" y="-24"/>
      <point x="239" y="-14"/>
    </contour>
    <contour>
      <point x="278" y="753" type="curve" smooth="yes"/>
      <point x="407" y="753"/>
      <point x="437" y="663"/>
      <point x="437" y="583" type="curve" smooth="yes"/>
      <point x="437" y="528"/>
      <point x="406" y="418"/>
      <point x="256" y="418" type="curve" smooth="yes"/>
      <point x="170" y="418"/>
      <point x="106" y="491"/>
      <point x="106" y="576" type="curve" smooth="yes"/>
      <point x="106" y="699"/>
      <point x="171" y="753"/>
    </contour>
  </outline>
</glyph>
<glyph name="colon" format="1">
  <advance width="248"/>
  <unicode hex="003A"/>
  <outline>
    <contour>
      <point x="55" y="35" type="curve" smooth="yes"/>
      <point x="55" y="7"/>
      <point x="74" y="-27"/>
      <point x="123" y="-27" type="curve" smooth="yes"/>
      <point x="169" y="-27"/>
      <point x="193" y="4"/>
      <point x="193" y="37" type="curve" smooth="yes"/>
      <point x="193" y="66"/>
      <point x="172" y="99"/>
      <point x="125" y="99" type="curve" smooth="yes"/>
      <point x="74" y="99"/>
      <point x="55" y="62"/>
    </contour>
    <contour>
      <point x="55" y="339" type="curve" smooth="yes"/>
      <point x="55" y="310"/>
      <point x="74" y="277"/>
      <point x="123" y="277" type="curve" smooth="yes"/>
      <point x="169" y="277"/>
      <point x="193" y="308"/>
      <point x="193" y="341" type="curve" smooth="yes"/>
      <point x="193" y="370"/>
      <point x="172" y="403"/>
      <point x="125" y="403" type="curve" smooth="yes"/>
      <point x="74" y="403"/>
      <point x="55" y="365"/>
    </contour>
  </outline>
</glyph>
<glyph name="semicolon" format="1">
  <advance width="246"/>
  <unicode hex="003B"/>
  <outline>
    <contour>
      <point x="54" y="339" type="curve" smooth="yes"/>
      <point x="54" y="310"/>
      <point x="72" y="277"/>
      <point x="121" y="277" type="curve" smooth="yes"/>
      <point x="167" y="277"/>
      <point x="192" y="308"/>
      <point x="192" y="341" type="curve" smooth="yes"/>
      <point x="192" y="370"/>
      <point x="170" y="403"/>
      <point x="123" y="403" type="curve" smooth="yes"/>
      <point x="72" y="403"/>
      <point x="54" y="365"/>
    </contour>
    <contour>
      <point x="59" y="36" type="curve" smooth="yes"/>
      <point x="59" y="5"/>
      <point x="95" y="3"/>
      <point x="95" y="-14" type="curve" smooth="yes" name="hr01"/>
      <point x="95" y="-54"/>
      <point x="80" y="-69"/>
      <point x="80" y="-83" type="curve" smooth="yes" name="hr02"/>
      <point x="80" y="-106"/>
      <point x="100" y="-106"/>
      <point x="106" y="-106" type="curve" smooth="yes"/>
      <point x="122" y="-106"/>
      <point x="187" y="-67"/>
      <point x="187" y="13" type="curve" smooth="yes"/>
      <point x="187" y="71"/>
      <point x="151" y="94"/>
      <point x="119" y="94" type="curve" smooth="yes"/>
      <point x="75" y="94"/>
      <point x="59" y="64"/>
    </contour>
  </outline>
</glyph>
<glyph name="less" format="1">
  <advance width="299"/>
  <unicode hex="003C"/>
  <outline>
    <contour>
      <point x="254" y="496" type="curve" smooth="yes"/>
      <point x="254" y="502"/>
      <point x="252" y="505"/>
      <point x="243" y="505" type="curve" smooth="yes"/>
      <point x="210" y="505"/>
      <point x="35" y="407"/>
      <point x="35" y="378" type="curve" smooth="yes"/>
      <point x="35" y="352"/>
      <point x="210" y="252"/>
      <point x="243" y="252" type="curve" smooth="yes"/>
      <point x="252" y="252"/>
      <point x="254" y="255"/>
      <point x="254" y="261" type="curve" smooth="yes"/>
      <point x="254" y="277"/>
      <point x="182" y="325"/>
      <point x="149" y="378" type="curve"/>
      <point x="182" y="431"/>
      <point x="254" y="480"/>
    </contour>
  </outline>
</glyph>
<glyph name="equal" format="1">
  <advance width="394"/>
  <unicode hex="003D"/>
  <outline>
    <contour>
      <point x="315" y="325" type="curve" smooth="yes"/>
      <point x="283" y="325"/>
      <point x="242" y="322"/>
      <point x="187" y="322" type="curve" smooth="yes"/>
      <point x="153" y="322"/>
      <point x="105" y="324"/>
      <point x="86" y="324" type="curve" smooth="yes"/>
      <point x="63" y="324"/>
      <point x="53" y="303"/>
      <point x="53" y="285" type="curve" smooth="yes"/>
      <point x="53" y="267"/>
      <point x="67" y="245"/>
      <point x="86" y="245" type="curve" smooth="yes"/>
      <point x="133" y="245"/>
      <point x="254" y="246"/>
      <point x="307" y="246" type="curve" smooth="yes" name="hr01"/>
      <point x="336" y="246"/>
      <point x="343" y="274"/>
      <point x="343" y="288" type="curve" smooth="yes"/>
      <point x="343" y="308"/>
      <point x="328" y="325"/>
    </contour>
    <contour>
      <point x="315" y="493" type="curve" smooth="yes"/>
      <point x="283" y="493"/>
      <point x="242" y="490"/>
      <point x="187" y="490" type="curve" smooth="yes" name="hr02"/>
      <point x="153" y="490"/>
      <point x="105" y="492"/>
      <point x="86" y="492" type="curve" smooth="yes" name="hr03"/>
      <point x="63" y="492"/>
      <point x="53" y="471"/>
      <point x="53" y="453" type="curve" smooth="yes"/>
      <point x="53" y="435"/>
      <point x="67" y="413"/>
      <point x="86" y="413" type="curve" smooth="yes" name="hr04"/>
      <point x="133" y="413"/>
      <point x="254" y="414"/>
      <point x="307" y="414" type="curve" smooth="yes"/>
      <point x="336" y="414"/>
      <point x="343" y="442"/>
      <point x="343" y="456" type="curve" smooth="yes"/>
      <point x="343" y="476"/>
      <point x="328" y="493"/>
    </contour>
  </outline>
</glyph>
<glyph name="greater" format="1">
  <advance width="299"/>
  <unicode hex="003E"/>
  <outline>
    <contour>
      <point x="46" y="496" type="curve" smooth="yes"/>
      <point x="46" y="480"/>
      <point x="118" y="431"/>
      <point x="151" y="378" type="curve"/>
      <point x="118" y="325"/>
      <point x="46" y="277"/>
      <point x="46" y="261" type="curve" smooth="yes"/>
      <point x="46" y="255"/>
      <point x="48" y="252"/>
      <point x="57" y="252" type="curve" smooth="yes"/>
      <point x="89" y="252"/>
      <point x="265" y="352"/>
      <point x="265" y="378" type="curve" smooth="yes"/>
      <point x="265" y="407"/>
      <point x="89" y="505"/>
      <point x="57" y="505" type="curve" smooth="yes"/>
      <point x="48" y="505"/>
      <point x="46" y="502"/>
    </contour>
  </outline>
</glyph>
<glyph name="question" format="1">
  <advance width="599"/>
  <unicode hex="003F"/>
  <outline>
    <contour>
      <point x="218" y="503" type="curve" smooth="yes"/>
      <point x="218" y="520"/>
      <point x="209" y="536"/>
      <point x="188" y="536" type="curve" smooth="yes"/>
      <point x="160" y="536"/>
      <point x="169" y="513"/>
      <point x="153" y="513" type="curve" smooth="yes" name="hr01"/>
      <point x="135" y="513"/>
      <point x="118" y="540"/>
      <point x="118" y="593" type="curve" smooth="yes"/>
      <point x="118" y="677"/>
      <point x="147" y="752"/>
      <point x="285" y="752" type="curve" smooth="yes"/>
      <point x="383" y="752"/>
      <point x="477" y="705"/>
      <point x="477" y="594" type="curve" smooth="yes"/>
      <point x="477" y="489"/>
      <point x="417" y="418"/>
      <point x="369" y="380" type="curve" smooth="yes"/>
      <point x="284" y="313"/>
      <point x="161" y="283"/>
      <point x="161" y="152" type="curve" smooth="yes"/>
      <point x="161" y="135"/>
      <point x="163" y="110"/>
      <point x="165" y="96" type="curve" smooth="yes"/>
      <point x="167" y="82"/>
      <point x="180" y="58"/>
      <point x="211" y="58" type="curve" smooth="yes"/>
      <point x="242" y="58"/>
      <point x="255" y="77"/>
      <point x="255" y="97" type="curve" smooth="yes"/>
      <point x="255" y="119"/>
      <point x="244" y="149"/>
      <point x="244" y="174" type="curve" smooth="yes"/>
      <point x="244" y="231"/>
      <point x="309" y="256"/>
      <point x="383" y="303" type="curve" smooth="yes"/>
      <point x="451" y="346"/>
      <point x="573" y="453"/>
      <point x="573" y="592" type="curve" smooth="yes"/>
      <point x="573" y="779"/>
      <point x="407" y="831"/>
      <point x="288" y="831" type="curve" smooth="yes"/>
      <point x="140" y="831"/>
      <point x="33" y="754"/>
      <point x="33" y="603" type="curve" smooth="yes"/>
      <point x="33" y="528"/>
      <point x="63" y="431"/>
      <point x="149" y="431" type="curve" smooth="yes"/>
      <point x="192" y="431"/>
      <point x="218" y="463"/>
    </contour>
    <contour>
      <point x="140" y="-40" type="curve" smooth="yes" name="hr03"/>
      <point x="140" y="-65"/>
      <point x="154" y="-105"/>
      <point x="213" y="-105" type="curve" smooth="yes"/>
      <point x="266" y="-105"/>
      <point x="290" y="-70"/>
      <point x="290" y="-38" type="curve" smooth="yes"/>
      <point x="290" y="-10"/>
      <point x="271" y="28"/>
      <point x="215" y="28" type="curve" smooth="yes"/>
      <point x="156" y="28"/>
      <point x="140" y="-16"/>
    </contour>
  </outline>
</glyph>
<glyph name="at" format="1">
  <advance width="704"/>
  <unicode hex="0040"/>
  <outline>
    <contour>
      <point x="581" y="236" type="curve" smooth="yes"/>
      <point x="581" y="160"/>
      <point x="542" y="133"/>
      <point x="530" y="133" type="curve" smooth="yes"/>
      <point x="515" y="133"/>
      <point x="506" y="134"/>
      <point x="504" y="174" type="curve" smooth="yes"/>
      <point x="503" y="197"/>
      <point x="503" y="216"/>
      <point x="503" y="237" type="curve" smooth="yes"/>
      <point x="503" y="288"/>
      <point x="505" y="324"/>
      <point x="505" y="376" type="curve" smooth="yes"/>
      <point x="505" y="391"/>
      <point x="491" y="411"/>
      <point x="463" y="411" type="curve" smooth="yes"/>
      <point x="439" y="411"/>
      <point x="419" y="399"/>
      <point x="419" y="380" type="curve" smooth="yes"/>
      <point x="419" y="372"/>
      <point x="420" y="370"/>
      <point x="421" y="360" type="curve"/>
      <point x="400" y="392"/>
      <point x="363" y="399"/>
      <point x="335" y="399" type="curve" smooth="yes" name="hr01"/>
      <point x="239" y="399"/>
      <point x="168" y="318"/>
      <point x="168" y="215" type="curve" smooth="yes"/>
      <point x="168" y="123"/>
      <point x="230" y="49"/>
      <point x="321" y="49" type="curve" smooth="yes"/>
      <point x="370" y="49"/>
      <point x="404" y="71"/>
      <point x="425" y="97" type="curve"/>
      <point x="433" y="77"/>
      <point x="451" y="54"/>
      <point x="496" y="54" type="curve" smooth="yes"/>
      <point x="585" y="54"/>
      <point x="665" y="103"/>
      <point x="665" y="237" type="curve"/>
      <point x="664" y="401"/>
      <point x="551" y="541"/>
      <point x="344" y="541" type="curve" smooth="yes"/>
      <point x="168" y="541"/>
      <point x="40" y="409"/>
      <point x="40" y="227" type="curve" smooth="yes"/>
      <point x="40" y="43"/>
      <point x="171" y="-84"/>
      <point x="321" y="-84" type="curve" smooth="yes"/>
      <point x="345" y="-84"/>
      <point x="368" y="-77"/>
      <point x="368" y="-48" type="curve" smooth="yes"/>
      <point x="368" y="-19"/>
      <point x="352" y="-4"/>
      <point x="322" y="-4" type="curve" smooth="yes"/>
      <point x="213" y="-4"/>
      <point x="127" y="90"/>
      <point x="127" y="227" type="curve" smooth="yes"/>
      <point x="127" y="363"/>
      <point x="214" y="459"/>
      <point x="345" y="459" type="curve" smooth="yes"/>
      <point x="506" y="459"/>
      <point x="581" y="358"/>
    </contour>
    <contour>
      <point x="419" y="223" type="line"/>
      <point x="419" y="193"/>
      <point x="399" y="127"/>
      <point x="326" y="127" type="curve" smooth="yes"/>
      <point x="286" y="127"/>
      <point x="261" y="158"/>
      <point x="261" y="216" type="curve" smooth="yes" name="hr02"/>
      <point x="261" y="281"/>
      <point x="294" y="321"/>
      <point x="333" y="321" type="curve" smooth="yes"/>
      <point x="391" y="321"/>
      <point x="419" y="281"/>
      <point x="419" y="231" type="curve" smooth="yes"/>
    </contour>
  </outline>
</glyph>
<glyph name="B" format="1">
  <advance width="705"/>
  <unicode hex="0042"/>
  <outline>
    <contour>
      <point x="81" y="76" type="curve" smooth="yes"/>
      <point x="56" y="76"/>
      <point x="46" y="58"/>
      <point x="46" y="35" type="curve" smooth="yes"/>
      <point x="46" y="12"/>
      <point x="60" y="0"/>
      <point x="94" y="0" type="curve" smooth="yes"/>
      <point x="308" y="0" type="line" smooth="yes"/>
      <point x="501" y="0"/>
      <point x="676" y="58"/>
      <point x="676" y="220" type="curve" smooth="yes"/>
      <point x="676" y="325"/>
      <point x="602" y="400"/>
      <point x="488" y="421" type="curve"/>
      <point x="578" y="445"/>
      <point x="634" y="519"/>
      <point x="634" y="612" type="curve" smooth="yes" name="hr01"/>
      <point x="634" y="750"/>
      <point x="509" y="821"/>
      <point x="367" y="821" type="curve" smooth="yes"/>
      <point x="341" y="821"/>
      <point x="182" y="818"/>
      <point x="79" y="818" type="curve" smooth="yes"/>
      <point x="58" y="818"/>
      <point x="40" y="801"/>
      <point x="40" y="780" type="curve" smooth="yes"/>
      <point x="40" y="755"/>
      <point x="50" y="738"/>
      <point x="80" y="738" type="curve" smooth="yes"/>
      <point x="118" y="738"/>
      <point x="128" y="732"/>
      <point x="130" y="701" type="curve" smooth="yes"/>
      <point x="134" y="634"/>
      <point x="138" y="445"/>
      <point x="138" y="313" type="curve" smooth="yes"/>
      <point x="138" y="262"/>
      <point x="137" y="185"/>
      <point x="137" y="100" type="curve" smooth="yes"/>
      <point x="137" y="80"/>
      <point x="103" y="76"/>
    </contour>
    <contour>
      <point x="308" y="371" type="curve" smooth="yes"/>
      <point x="440" y="371"/>
      <point x="581" y="355"/>
      <point x="581" y="222" type="curve" smooth="yes"/>
      <point x="581" y="113"/>
      <point x="460" y="80"/>
      <point x="229" y="80" type="curve"/>
      <point x="229" y="368" type="line"/>
      <point x="256" y="369"/>
      <point x="269" y="371"/>
    </contour>
    <contour>
      <point x="310" y="741" type="curve" smooth="yes"/>
      <point x="421" y="741"/>
      <point x="541" y="715"/>
      <point x="541" y="605" type="curve" smooth="yes" name="hr02"/>
      <point x="541" y="486"/>
      <point x="432" y="454"/>
      <point x="299" y="453" type="curve"/>
      <point x="255" y="453"/>
      <point x="239" y="454"/>
      <point x="229" y="456" type="curve"/>
      <point x="229" y="737" type="line"/>
      <point x="240" y="738"/>
      <point x="264" y="741"/>
    </contour>
  </outline>
</glyph>
<glyph name="F" format="1">
  <advance width="611"/>
  <unicode hex="0046"/>
  <outline>
    <contour>
      <point x="135" y="119" type="curve" smooth="yes"/>
      <point x="134" y="81"/>
      <point x="113" y="73"/>
      <point x="78" y="70" type="curve" smooth="yes"/>
      <point x="56" y="68"/>
      <point x="40" y="58"/>
      <point x="40" y="31" type="curve" smooth="yes"/>
      <point x="40" y="8"/>
      <point x="54" y="0"/>
      <point x="83" y="0" type="curve" smooth="yes"/>
      <point x="359" y="0" type="line" smooth="yes"/>
      <point x="380" y="0"/>
      <point x="406" y="7"/>
      <point x="406" y="41" type="curve" smooth="yes"/>
      <point x="406" y="72"/>
      <point x="381" y="78"/>
      <point x="353" y="78" type="curve" smooth="yes"/>
      <point x="232" y="78" type="line"/>
      <point x="232" y="89"/>
      <point x="229" y="165"/>
      <point x="229" y="205" type="curve" smooth="yes"/>
      <point x="229" y="253"/>
      <point x="230" y="329"/>
      <point x="230" y="377" type="curve"/>
      <point x="268" y="379"/>
      <point x="281" y="380"/>
      <point x="319" y="380" type="curve" smooth="yes"/>
      <point x="338" y="380"/>
      <point x="359" y="379"/>
      <point x="378" y="376" type="curve" smooth="yes"/>
      <point x="397" y="373"/>
      <point x="418" y="360"/>
      <point x="420" y="305" type="curve" smooth="yes"/>
      <point x="421" y="280"/>
      <point x="439" y="266"/>
      <point x="462" y="266" type="curve" smooth="yes" name="hr01"/>
      <point x="488" y="266"/>
      <point x="503" y="276"/>
      <point x="503" y="304" type="curve" smooth="yes"/>
      <point x="503" y="336"/>
      <point x="501" y="382"/>
      <point x="501" y="415" type="curve" smooth="yes"/>
      <point x="501" y="448"/>
      <point x="503" y="486"/>
      <point x="503" y="519" type="curve" smooth="yes"/>
      <point x="503" y="547"/>
      <point x="498" y="566"/>
      <point x="462" y="566" type="curve" smooth="yes"/>
      <point x="423" y="566"/>
      <point x="418" y="544"/>
      <point x="418" y="513" type="curve" smooth="yes"/>
      <point x="418" y="505"/>
      <point x="418" y="464"/>
      <point x="404" y="464" type="curve" smooth="yes" name="hr02"/>
      <point x="396" y="464"/>
      <point x="345" y="462"/>
      <point x="316" y="462" type="curve" smooth="yes" name="hr03"/>
      <point x="279" y="462"/>
      <point x="269" y="462"/>
      <point x="230" y="464" type="curve" name="hr04"/>
      <point x="230" y="737" type="line"/>
      <point x="480" y="737" type="line" smooth="yes"/>
      <point x="507" y="737"/>
      <point x="519" y="732"/>
      <point x="519" y="696" type="curve" smooth="yes"/>
      <point x="519" y="655" type="line" smooth="yes"/>
      <point x="519" y="631"/>
      <point x="527" y="597"/>
      <point x="561" y="597" type="curve" smooth="yes" name="hr05"/>
      <point x="595" y="597"/>
      <point x="607" y="614"/>
      <point x="607" y="655" type="curve" smooth="yes"/>
      <point x="607" y="773" type="line" smooth="yes"/>
      <point x="607" y="808"/>
      <point x="601" y="821"/>
      <point x="573" y="821" type="curve" smooth="yes"/>
      <point x="503" y="821"/>
      <point x="433" y="819"/>
      <point x="363" y="819" type="curve" smooth="yes"/>
      <point x="278" y="819"/>
      <point x="169" y="821"/>
      <point x="84" y="821" type="curve" smooth="yes"/>
      <point x="51" y="821"/>
      <point x="36" y="813"/>
      <point x="36" y="787" type="curve" smooth="yes"/>
      <point x="36" y="762"/>
      <point x="50" y="752"/>
      <point x="77" y="751" type="curve" smooth="yes" name="hr06"/>
      <point x="115" y="750"/>
      <point x="131" y="735"/>
      <point x="133" y="708" type="curve" smooth="yes"/>
      <point x="138" y="634"/>
      <point x="140" y="576"/>
      <point x="140" y="489" type="curve" smooth="yes"/>
      <point x="140" y="361"/>
      <point x="138" y="247"/>
    </contour>
  </outline>
</glyph>
<glyph name="J" format="1">
  <advance width="538"/>
  <unicode hex="004A"/>
  <outline>
    <contour>
      <point x="65" y="135" type="curve" smooth="yes"/>
      <point x="65" y="155"/>
      <point x="72" y="176"/>
      <point x="79" y="181" type="curve"/>
      <point x="88" y="173"/>
      <point x="101" y="168"/>
      <point x="114" y="168" type="curve" smooth="yes"/>
      <point x="142" y="168"/>
      <point x="163" y="189"/>
      <point x="163" y="222" type="curve" smooth="yes" name="hr01"/>
      <point x="163" y="265"/>
      <point x="126" y="280"/>
      <point x="98" y="280" type="curve" smooth="yes"/>
      <point x="43" y="280"/>
      <point x="-5" y="226"/>
      <point x="-5" y="145" type="curve" smooth="yes"/>
      <point x="-5" y="50"/>
      <point x="60" y="-14"/>
      <point x="185" y="-14" type="curve" smooth="yes"/>
      <point x="339" y="-14"/>
      <point x="429" y="84"/>
      <point x="429" y="279" type="curve" smooth="yes"/>
      <point x="429" y="723" type="line" smooth="yes"/>
      <point x="429" y="742"/>
      <point x="445" y="752"/>
      <point x="490" y="752" type="curve" smooth="yes"/>
      <point x="514" y="752"/>
      <point x="533" y="764"/>
      <point x="533" y="786" type="curve" smooth="yes" name="hr02"/>
      <point x="533" y="807"/>
      <point x="523" y="821"/>
      <point x="481" y="821" type="curve" smooth="yes"/>
      <point x="244" y="821" type="line" smooth="yes"/>
      <point x="222" y="821"/>
      <point x="207" y="812"/>
      <point x="207" y="787" type="curve" smooth="yes" name="hr03"/>
      <point x="207" y="764"/>
      <point x="223" y="753"/>
      <point x="254" y="753" type="curve" smooth="yes"/>
      <point x="282" y="753"/>
      <point x="333" y="753"/>
      <point x="333" y="730" type="curve" smooth="yes"/>
      <point x="333" y="697"/>
      <point x="336" y="530"/>
      <point x="336" y="371" type="curve" smooth="yes" name="hr04"/>
      <point x="336" y="212"/>
      <point x="333" y="53"/>
      <point x="176" y="53" type="curve" smooth="yes"/>
      <point x="104" y="53"/>
      <point x="65" y="87"/>
    </contour>
  </outline>
</glyph>
<glyph name="M" format="1">
  <advance width="1057"/>
  <unicode hex="004D"/>
  <outline>
    <contour>
      <point x="987" y="707" type="curve" smooth="yes"/>
      <point x="1016" y="709"/>
      <point x="1032" y="728"/>
      <point x="1032" y="752" type="curve" smooth="yes"/>
      <point x="1032" y="777"/>
      <point x="1010" y="781"/>
      <point x="980" y="781" type="curve" smooth="yes"/>
      <point x="840" y="781" type="line" smooth="yes"/>
      <point x="757" y="781"/>
      <point x="749" y="778"/>
      <point x="736" y="738" type="curve" smooth="yes"/>
      <point x="691" y="600"/>
      <point x="575" y="252"/>
      <point x="522" y="108" type="curve"/>
      <point x="459" y="253"/>
      <point x="298" y="638"/>
      <point x="258" y="756" type="curve" smooth="yes"/>
      <point x="246" y="792"/>
      <point x="231" y="801"/>
      <point x="214" y="801" type="curve" smooth="yes"/>
      <point x="116" y="801" type="line" smooth="yes"/>
      <point x="37" y="801"/>
      <point x="8" y="794"/>
      <point x="8" y="765" type="curve" smooth="yes"/>
      <point x="8" y="700"/>
      <point x="133" y="749"/>
      <point x="133" y="686" type="curve" smooth="yes"/>
      <point x="133" y="582"/>
      <point x="136" y="493"/>
      <point x="136" y="383" type="curve" smooth="yes"/>
      <point x="136" y="250"/>
      <point x="132" y="214"/>
      <point x="128" y="123" type="curve" smooth="yes"/>
      <point x="126" y="82"/>
      <point x="117" y="67"/>
      <point x="93" y="64" type="curve" smooth="yes"/>
      <point x="53" y="59"/>
      <point x="24" y="55"/>
      <point x="24" y="28" type="curve" smooth="yes" name="hr01"/>
      <point x="24" y="5"/>
      <point x="34" y="0"/>
      <point x="58" y="0" type="curve" smooth="yes"/>
      <point x="311" y="0" type="line" smooth="yes"/>
      <point x="342" y="0"/>
      <point x="351" y="15"/>
      <point x="351" y="29" type="curve" smooth="yes" name="hr02"/>
      <point x="351" y="59"/>
      <point x="327" y="63"/>
      <point x="301" y="63" type="curve" smooth="yes"/>
      <point x="228" y="63" type="line" name="hr03"/>
      <point x="228" y="607" type="line"/>
      <point x="268" y="486"/>
      <point x="406" y="178"/>
      <point x="458" y="30" type="curve" smooth="yes"/>
      <point x="463" y="16"/>
      <point x="478" y="-28"/>
      <point x="515" y="-28" type="curve" smooth="yes"/>
      <point x="545" y="-28"/>
      <point x="565" y="-19"/>
      <point x="577" y="18" type="curve" smooth="yes"/>
      <point x="601" y="94"/>
      <point x="691" y="320"/>
      <point x="778" y="580" type="curve"/>
      <point x="778" y="84" type="line" smooth="yes"/>
      <point x="778" y="39"/>
      <point x="763" y="30"/>
      <point x="735" y="26" type="curve" smooth="yes"/>
      <point x="699" y="21"/>
      <point x="677" y="13"/>
      <point x="677" y="-7" type="curve" smooth="yes" name="hr04"/>
      <point x="677" y="-33"/>
      <point x="682" y="-41"/>
      <point x="728" y="-41" type="curve" smooth="yes" name="hr05"/>
      <point x="969" y="-41" type="line" smooth="yes"/>
      <point x="1002" y="-41"/>
      <point x="1009" y="-26"/>
      <point x="1009" y="-7" type="curve" smooth="yes" name="hr06"/>
      <point x="1009" y="15"/>
      <point x="995" y="22"/>
      <point x="959" y="22" type="curve" smooth="yes" name="hr07"/>
      <point x="875" y="22" type="line"/>
      <point x="875" y="76"/>
      <point x="870" y="270"/>
      <point x="870" y="380" type="curve" smooth="yes"/>
      <point x="870" y="521"/>
      <point x="874" y="597"/>
      <point x="874" y="652" type="curve" smooth="yes"/>
      <point x="874" y="677"/>
      <point x="878" y="696"/>
      <point x="905" y="699" type="curve"/>
      <point x="934" y="704"/>
      <point x="959" y="704"/>
    </contour>
  </outline>
</glyph>
<glyph name="P" format="1">
  <advance width="642"/>
  <unicode hex="0050"/>
  <outline>
    <contour>
      <point x="78" y="60" type="curve" smooth="yes"/>
      <point x="31" y="56"/>
      <point x="20" y="47"/>
      <point x="20" y="30" type="curve" smooth="yes"/>
      <point x="20" y="5"/>
      <point x="39" y="0"/>
      <point x="81" y="0" type="curve" smooth="yes"/>
      <point x="334" y="0" type="line" smooth="yes"/>
      <point x="371" y="0"/>
      <point x="379" y="13"/>
      <point x="379" y="32" type="curve" smooth="yes" name="hr01"/>
      <point x="379" y="55"/>
      <point x="365" y="63"/>
      <point x="336" y="63" type="curve" smooth="yes"/>
      <point x="231" y="63" type="line" name="hr02"/>
      <point x="231" y="332" type="line"/>
      <point x="260" y="331"/>
      <point x="279" y="330"/>
      <point x="299" y="330" type="curve" smooth="yes"/>
      <point x="445" y="330"/>
      <point x="636" y="396"/>
      <point x="636" y="595" type="curve" smooth="yes"/>
      <point x="636" y="761"/>
      <point x="507" y="821"/>
      <point x="345" y="821" type="curve" smooth="yes"/>
      <point x="234" y="821"/>
      <point x="159" y="818"/>
      <point x="63" y="818" type="curve" smooth="yes"/>
      <point x="39" y="818"/>
      <point x="25" y="806"/>
      <point x="25" y="787" type="curve" smooth="yes"/>
      <point x="25" y="769"/>
      <point x="33" y="756"/>
      <point x="48" y="755" type="curve" smooth="yes"/>
      <point x="100" y="751" type="line" smooth="yes"/>
      <point x="125" y="749"/>
      <point x="131" y="735"/>
      <point x="132" y="712" type="curve" smooth="yes"/>
      <point x="135" y="648"/>
      <point x="138" y="551"/>
      <point x="138" y="437" type="curve" smooth="yes" name="hr03"/>
      <point x="138" y="288"/>
      <point x="137" y="251"/>
      <point x="137" y="106" type="curve" smooth="yes"/>
      <point x="137" y="74"/>
      <point x="114" y="63"/>
    </contour>
    <contour>
      <point x="303" y="741" type="curve" smooth="yes"/>
      <point x="378" y="741"/>
      <point x="540" y="735"/>
      <point x="540" y="592" type="curve" smooth="yes"/>
      <point x="540" y="483"/>
      <point x="446" y="412"/>
      <point x="302" y="412" type="curve" smooth="yes"/>
      <point x="281" y="412"/>
      <point x="252" y="413"/>
      <point x="231" y="414" type="curve"/>
      <point x="231" y="734" type="line"/>
      <point x="254" y="738"/>
      <point x="278" y="741"/>
    </contour>
  </outline>
</glyph>
<glyph name="Q" format="1">
  <advance width="723"/>
  <unicode hex="0051"/>
  <outline>
    <contour>
      <point x="34" y="404" type="curve" smooth="yes"/>
      <point x="34" y="142"/>
      <point x="145" y="14"/>
      <point x="297" y="-11" type="curve"/>
      <point x="250" y="-25"/>
      <point x="197" y="-52"/>
      <point x="197" y="-87" type="curve" smooth="yes"/>
      <point x="197" y="-105"/>
      <point x="221" y="-109"/>
      <point x="243" y="-109" type="curve" smooth="yes"/>
      <point x="262" y="-109"/>
      <point x="304" y="-85"/>
      <point x="353" y="-85" type="curve" smooth="yes" name="hr01"/>
      <point x="391" y="-85"/>
      <point x="444" y="-128"/>
      <point x="495" y="-128" type="curve" smooth="yes" name="hr02"/>
      <point x="550" y="-128"/>
      <point x="614" y="-97"/>
      <point x="614" y="-67" type="curve" smooth="yes"/>
      <point x="614" y="-49"/>
      <point x="604" y="-35"/>
      <point x="580" y="-35" type="curve" smooth="yes"/>
      <point x="541" y="-35"/>
      <point x="502" y="-48"/>
      <point x="494" y="-48" type="curve" smooth="yes" name="hr03"/>
      <point x="467" y="-48"/>
      <point x="431" y="-27"/>
      <point x="398" y="-13" type="curve"/>
      <point x="534" y="5"/>
      <point x="689" y="113"/>
      <point x="689" y="408" type="curve" smooth="yes"/>
      <point x="689" y="639"/>
      <point x="581" y="838"/>
      <point x="367" y="838" type="curve" smooth="yes"/>
      <point x="126" y="838"/>
      <point x="34" y="608"/>
    </contour>
    <contour>
      <point x="130" y="400" type="curve" smooth="yes"/>
      <point x="130" y="590"/>
      <point x="208" y="762"/>
      <point x="371" y="762" type="curve" smooth="yes"/>
      <point x="509" y="762"/>
      <point x="593" y="604"/>
      <point x="593" y="410" type="curve" smooth="yes"/>
      <point x="593" y="182"/>
      <point x="505" y="63"/>
      <point x="357" y="63" type="curve" smooth="yes" name="hr04"/>
      <point x="226" y="63"/>
      <point x="130" y="194"/>
    </contour>
  </outline>
</glyph>
<glyph name="R" format="1">
  <advance width="715"/>
  <unicode hex="0052"/>
  <outline>
    <contour>
      <point x="540" y="588" type="curve" smooth="yes"/>
      <point x="540" y="441"/>
      <point x="385" y="411"/>
      <point x="274" y="411" type="curve" smooth="yes"/>
      <point x="261" y="411"/>
      <point x="244" y="412"/>
      <point x="231" y="414" type="curve"/>
      <point x="231" y="732" type="line"/>
      <point x="245" y="735"/>
      <point x="275" y="739"/>
      <point x="303" y="739" type="curve" smooth="yes"/>
      <point x="372" y="739"/>
      <point x="540" y="717"/>
    </contour>
    <contour>
      <point x="348" y="163" type="line" smooth="yes"/>
      <point x="422" y="54"/>
      <point x="492" y="-44"/>
      <point x="510" y="-44" type="curve" smooth="yes"/>
      <point x="702" y="-44"/>
      <point x="711" y="-39"/>
      <point x="711" y="-8" type="curve" smooth="yes"/>
      <point x="711" y="15"/>
      <point x="696" y="22"/>
      <point x="661" y="22" type="curve" smooth="yes"/>
      <point x="553" y="22" type="line"/>
      <point x="466" y="123"/>
      <point x="335" y="330"/>
      <point x="335" y="330" type="curve"/>
      <point x="494" y="350"/>
      <point x="636" y="428"/>
      <point x="636" y="594" type="curve" smooth="yes"/>
      <point x="636" y="762"/>
      <point x="461" y="821"/>
      <point x="339" y="821" type="curve" smooth="yes"/>
      <point x="219" y="821"/>
      <point x="170" y="818"/>
      <point x="64" y="818" type="curve" smooth="yes"/>
      <point x="35" y="818"/>
      <point x="25" y="800"/>
      <point x="25" y="785" type="curve" smooth="yes"/>
      <point x="25" y="765"/>
      <point x="40" y="753"/>
      <point x="72" y="749" type="curve" smooth="yes"/>
      <point x="109" y="744"/>
      <point x="131" y="733"/>
      <point x="133" y="685" type="curve" smooth="yes"/>
      <point x="137" y="578"/>
      <point x="139" y="519"/>
      <point x="139" y="412" type="curve" smooth="yes"/>
      <point x="139" y="311"/>
      <point x="137" y="209"/>
      <point x="137" y="109" type="curve" smooth="yes"/>
      <point x="137" y="71"/>
      <point x="113" y="65"/>
      <point x="89" y="62" type="curve" smooth="yes"/>
      <point x="39" y="55"/>
      <point x="25" y="47"/>
      <point x="25" y="31" type="curve" smooth="yes"/>
      <point x="25" y="10"/>
      <point x="30" y="0"/>
      <point x="69" y="0" type="curve" smooth="yes" name="hr01"/>
      <point x="280" y="0" type="line" smooth="yes"/>
      <point x="339" y="0"/>
      <point x="347" y="16"/>
      <point x="347" y="33" type="curve" smooth="yes"/>
      <point x="347" y="60"/>
      <point x="321" y="63"/>
      <point x="296" y="63" type="curve" smooth="yes"/>
      <point x="226" y="63" type="line"/>
      <point x="226" y="325" type="line"/>
      <point x="236" y="325" type="line"/>
    </contour>
  </outline>
</glyph>
<glyph name="T" format="1">
  <advance width="653"/>
  <unicode hex="0054"/>
  <outline>
    <contour>
      <point x="275" y="737" type="line"/>
      <point x="275" y="635"/>
      <point x="279" y="503"/>
      <point x="279" y="401" type="curve" smooth="yes"/>
      <point x="279" y="296"/>
      <point x="275" y="218"/>
      <point x="275" y="120" type="curve" smooth="yes"/>
      <point x="275" y="77"/>
      <point x="244" y="73"/>
      <point x="209" y="70" type="curve" smooth="yes"/>
      <point x="178" y="67"/>
      <point x="163" y="54"/>
      <point x="163" y="26" type="curve" smooth="yes" name="hr01"/>
      <point x="163" y="3"/>
      <point x="187" y="0"/>
      <point x="205" y="0" type="curve" smooth="yes"/>
      <point x="465" y="0" type="line" smooth="yes"/>
      <point x="482" y="0"/>
      <point x="492" y="17"/>
      <point x="492" y="32" type="curve" smooth="yes" name="hr02"/>
      <point x="492" y="62"/>
      <point x="465" y="67"/>
      <point x="450" y="67" type="curve" smooth="yes"/>
      <point x="371" y="67" type="line" name="hr03"/>
      <point x="371" y="737" type="line"/>
      <point x="515" y="737" type="line" smooth="yes"/>
      <point x="550" y="737"/>
      <point x="552" y="728"/>
      <point x="552" y="688" type="curve" smooth="yes"/>
      <point x="552" y="614" type="line" smooth="yes"/>
      <point x="552" y="572"/>
      <point x="563" y="559"/>
      <point x="600" y="559" type="curve" smooth="yes"/>
      <point x="619" y="559"/>
      <point x="640" y="563"/>
      <point x="640" y="603" type="curve" smooth="yes"/>
      <point x="640" y="624"/>
      <point x="639" y="671"/>
      <point x="639" y="693" type="curve" smooth="yes"/>
      <point x="639" y="714"/>
      <point x="640" y="756"/>
      <point x="640" y="778" type="curve" smooth="yes"/>
      <point x="640" y="817"/>
      <point x="634" y="821"/>
      <point x="602" y="821" type="curve" smooth="yes"/>
      <point x="503" y="821"/>
      <point x="425" y="819"/>
      <point x="326" y="819" type="curve" smooth="yes"/>
      <point x="228" y="819"/>
      <point x="149" y="821"/>
      <point x="51" y="821" type="curve" smooth="yes"/>
      <point x="20" y="821"/>
      <point x="13" y="817"/>
      <point x="13" y="778" type="curve" smooth="yes"/>
      <point x="13" y="756"/>
      <point x="14" y="714"/>
      <point x="14" y="693" type="curve" smooth="yes"/>
      <point x="14" y="671"/>
      <point x="13" y="624"/>
      <point x="13" y="603" type="curve" smooth="yes"/>
      <point x="13" y="564"/>
      <point x="38" y="559"/>
      <point x="56" y="559" type="curve" smooth="yes"/>
      <point x="84" y="559"/>
      <point x="101" y="572"/>
      <point x="101" y="614" type="curve" smooth="yes"/>
      <point x="101" y="688" type="line" smooth="yes"/>
      <point x="101" y="726"/>
      <point x="103" y="737"/>
      <point x="138" y="737" type="curve" smooth="yes"/>
    </contour>
  </outline>
</glyph>
<glyph name="V" format="1">
  <advance width="691"/>
  <unicode hex="0056"/>
  <outline>
    <contour>
      <point x="344" y="125" type="curve"/>
      <point x="342" y="130"/>
      <point x="189" y="686"/>
      <point x="189" y="731" type="curve" smooth="yes"/>
      <point x="189" y="769"/>
      <point x="285" y="740"/>
      <point x="285" y="794" type="curve" smooth="yes"/>
      <point x="285" y="816"/>
      <point x="274" y="821"/>
      <point x="247" y="821" type="curve" smooth="yes"/>
      <point x="39" y="821" type="line" smooth="yes"/>
      <point x="3" y="821"/>
      <point x="-15" y="814"/>
      <point x="-15" y="793" type="curve" smooth="yes"/>
      <point x="-15" y="767"/>
      <point x="18" y="760"/>
      <point x="40" y="759" type="curve" smooth="yes"/>
      <point x="70" y="758"/>
      <point x="87" y="752"/>
      <point x="95" y="725" type="curve" smooth="yes"/>
      <point x="299" y="-9" type="line" smooth="yes"/>
      <point x="303" y="-25"/>
      <point x="318" y="-38"/>
      <point x="345" y="-38" type="curve" smooth="yes"/>
      <point x="377" y="-38"/>
      <point x="388" y="-19"/>
      <point x="391" y="-9" type="curve" smooth="yes"/>
      <point x="432" y="126"/>
      <point x="531" y="493"/>
      <point x="593" y="665" type="curve" smooth="yes"/>
      <point x="602" y="689"/>
      <point x="613" y="700"/>
      <point x="642" y="703" type="curve" smooth="yes"/>
      <point x="652" y="704"/>
      <point x="699" y="708"/>
      <point x="721" y="709" type="curve" smooth="yes"/>
      <point x="738" y="710"/>
      <point x="758" y="714"/>
      <point x="758" y="736" type="curve" smooth="yes"/>
      <point x="758" y="762"/>
      <point x="749" y="766"/>
      <point x="718" y="766" type="curve" smooth="yes" name="hr01"/>
      <point x="455" y="766" type="line" smooth="yes"/>
      <point x="419" y="766"/>
      <point x="403" y="756"/>
      <point x="403" y="731" type="curve" smooth="yes"/>
      <point x="403" y="707"/>
      <point x="415" y="696"/>
      <point x="450" y="695" type="curve" smooth="yes"/>
      <point x="488" y="694"/>
      <point x="500" y="692"/>
      <point x="500" y="679" type="curve" smooth="yes"/>
      <point x="500" y="626"/>
      <point x="346" y="131"/>
    </contour>
  </outline>
</glyph>
<glyph name="X" format="1">
  <advance width="689"/>
  <unicode hex="0058"/>
  <outline>
    <contour>
      <point x="211" y="722" type="curve" smooth="yes"/>
      <point x="211" y="748"/>
      <point x="282" y="730"/>
      <point x="282" y="772" type="curve" smooth="yes"/>
      <point x="282" y="791"/>
      <point x="275" y="799"/>
      <point x="251" y="799" type="curve" smooth="yes"/>
      <point x="52" y="799" type="line" smooth="yes"/>
      <point x="21" y="799"/>
      <point x="1" y="790"/>
      <point x="1" y="772" type="curve" smooth="yes"/>
      <point x="1" y="747"/>
      <point x="16" y="741"/>
      <point x="50" y="738" type="curve" smooth="yes"/>
      <point x="81" y="735"/>
      <point x="108" y="730"/>
      <point x="119" y="709" type="curve" smooth="yes"/>
      <point x="273" y="412" type="line"/>
      <point x="122" y="104" type="line" smooth="yes"/>
      <point x="109" y="78"/>
      <point x="95" y="74"/>
      <point x="71" y="67" type="curve" smooth="yes"/>
      <point x="61" y="64"/>
      <point x="21" y="58"/>
      <point x="18" y="57" type="curve" smooth="yes"/>
      <point x="1" y="54"/>
      <point x="-21" y="48"/>
      <point x="-21" y="24" type="curve" smooth="yes" name="hr01"/>
      <point x="-21" y="4"/>
      <point x="-7" y="0"/>
      <point x="11" y="0" type="curve" smooth="yes" name="hr02"/>
      <point x="247" y="0" type="line" smooth="yes"/>
      <point x="273" y="0"/>
      <point x="283" y="7"/>
      <point x="283" y="27" type="curve" smooth="yes"/>
      <point x="283" y="49"/>
      <point x="271" y="55"/>
      <point x="248" y="58" type="curve" smooth="yes"/>
      <point x="224" y="61"/>
      <point x="204" y="64"/>
      <point x="204" y="74" type="curve" smooth="yes"/>
      <point x="204" y="97"/>
      <point x="317" y="321"/>
      <point x="317" y="324" type="curve"/>
      <point x="317" y="324"/>
      <point x="459" y="55"/>
      <point x="459" y="34" type="curve" smooth="yes"/>
      <point x="459" y="17"/>
      <point x="395" y="32"/>
      <point x="395" y="-10" type="curve" smooth="yes"/>
      <point x="395" y="-23"/>
      <point x="402" y="-37"/>
      <point x="426" y="-37" type="curve" smooth="yes" name="hr03"/>
      <point x="678" y="-37" type="line" smooth="yes"/>
      <point x="706" y="-37"/>
      <point x="722" y="-31"/>
      <point x="722" y="-10" type="curve" smooth="yes"/>
      <point x="722" y="13"/>
      <point x="706" y="24"/>
      <point x="676" y="24" type="curve" smooth="yes"/>
      <point x="603" y="24"/>
      <point x="561" y="31"/>
      <point x="546" y="59" type="curve" smooth="yes"/>
      <point x="359" y="414" type="line"/>
      <point x="519" y="720" type="line" smooth="yes"/>
      <point x="531" y="743"/>
      <point x="539" y="755"/>
      <point x="568" y="758" type="curve" smooth="yes"/>
      <point x="578" y="759"/>
      <point x="614" y="758"/>
      <point x="642" y="764" type="curve" smooth="yes"/>
      <point x="657" y="767"/>
      <point x="679" y="775"/>
      <point x="679" y="794" type="curve" smooth="yes"/>
      <point x="679" y="815"/>
      <point x="669" y="821"/>
      <point x="639" y="821" type="curve" smooth="yes"/>
      <point x="408" y="821" type="line" smooth="yes"/>
      <point x="372" y="821"/>
      <point x="361" y="815"/>
      <point x="361" y="793" type="curve" smooth="yes"/>
      <point x="361" y="773"/>
      <point x="377" y="766"/>
      <point x="399" y="763" type="curve" smooth="yes"/>
      <point x="425" y="759"/>
      <point x="436" y="749"/>
      <point x="436" y="737" type="curve" smooth="yes"/>
      <point x="436" y="716"/>
      <point x="346" y="570"/>
      <point x="315" y="504" type="curve"/>
      <point x="315" y="504"/>
      <point x="211" y="702"/>
    </contour>
  </outline>
</glyph>
<glyph name="Z" format="1">
  <advance width="659"/>
  <unicode hex="005A"/>
  <outline>
    <contour>
      <point x="621" y="273" type="curve" smooth="yes"/>
      <point x="621" y="296"/>
      <point x="613" y="317"/>
      <point x="581" y="317" type="curve" smooth="yes"/>
      <point x="543" y="317"/>
      <point x="539" y="288"/>
      <point x="539" y="268" type="curve" smooth="yes"/>
      <point x="539" y="238"/>
      <point x="534" y="157"/>
      <point x="529" y="117" type="curve" smooth="yes"/>
      <point x="526" y="92"/>
      <point x="512" y="83"/>
      <point x="469" y="83" type="curve" smooth="yes"/>
      <point x="187" y="83" type="line" smooth="yes"/>
      <point x="171" y="83"/>
      <point x="167" y="85"/>
      <point x="167" y="93" type="curve" smooth="yes"/>
      <point x="167" y="103"/>
      <point x="467" y="558"/>
      <point x="577" y="738" type="curve" smooth="yes"/>
      <point x="581" y="745"/>
      <point x="611" y="794"/>
      <point x="611" y="807" type="curve" smooth="yes"/>
      <point x="611" y="819"/>
      <point x="604" y="821"/>
      <point x="589" y="821" type="curve" smooth="yes"/>
      <point x="521" y="821"/>
      <point x="425" y="819"/>
      <point x="357" y="819" type="curve" smooth="yes"/>
      <point x="289" y="819"/>
      <point x="222" y="821"/>
      <point x="154" y="821" type="curve" smooth="yes"/>
      <point x="63" y="821"/>
      <point x="49" y="814"/>
      <point x="49" y="780" type="curve" smooth="yes"/>
      <point x="49" y="750"/>
      <point x="50" y="720"/>
      <point x="50" y="690" type="curve" smooth="yes"/>
      <point x="50" y="660"/>
      <point x="49" y="637"/>
      <point x="49" y="607" type="curve" smooth="yes"/>
      <point x="49" y="587"/>
      <point x="57" y="555"/>
      <point x="95" y="555" type="curve" smooth="yes"/>
      <point x="125" y="555"/>
      <point x="132" y="577"/>
      <point x="132" y="626" type="curve" smooth="yes"/>
      <point x="132" y="645"/>
      <point x="133" y="680"/>
      <point x="133" y="694" type="curve" smooth="yes"/>
      <point x="133" y="726"/>
      <point x="137" y="737"/>
      <point x="175" y="737" type="curve" smooth="yes"/>
      <point x="419" y="737" type="line" smooth="yes"/>
      <point x="464" y="737"/>
      <point x="467" y="734"/>
      <point x="467" y="721" type="curve" smooth="yes"/>
      <point x="467" y="693"/>
      <point x="75" y="115"/>
      <point x="38" y="61" type="curve" smooth="yes"/>
      <point x="23" y="39"/>
      <point x="19" y="30"/>
      <point x="19" y="19" type="curve" smooth="yes"/>
      <point x="19" y="3"/>
      <point x="29" y="0"/>
      <point x="72" y="0" type="curve" smooth="yes"/>
      <point x="149" y="0"/>
      <point x="266" y="1"/>
      <point x="343" y="1" type="curve" smooth="yes" name="hr01"/>
      <point x="420" y="1"/>
      <point x="498" y="0"/>
      <point x="575" y="0" type="curve" smooth="yes" name="hr02"/>
      <point x="604" y="0"/>
      <point x="611" y="6"/>
      <point x="611" y="31" type="curve" smooth="yes"/>
      <point x="611" y="63"/>
      <point x="621" y="269"/>
    </contour>
  </outline>
</glyph>
<glyph name="bracketleft" format="1">
  <advance width="334"/>
  <unicode hex="005B"/>
  <outline>
    <contour>
      <point x="103" y="835" type="curve" smooth="yes"/>
      <point x="93" y="834"/>
      <point x="82" y="816"/>
      <point x="82" y="800" type="curve"/>
      <point x="86" y="591"/>
      <point x="86" y="575"/>
      <point x="86" y="366" type="curve" smooth="yes"/>
      <point x="86" y="251"/>
      <point x="86" y="42"/>
      <point x="85" y="-23" type="curve"/>
      <point x="85" y="-51"/>
      <point x="92" y="-58"/>
      <point x="104" y="-58" type="curve" smooth="yes"/>
      <point x="230" y="-58" type="line" smooth="yes"/>
      <point x="276" y="-58"/>
      <point x="323" y="-54"/>
      <point x="323" y="-27" type="curve" smooth="yes"/>
      <point x="323" y="-3"/>
      <point x="297" y="5"/>
      <point x="242" y="5" type="curve" smooth="yes"/>
      <point x="200" y="5"/>
      <point x="176" y="5"/>
      <point x="176" y="22" type="curve" smooth="yes" name="hr01"/>
      <point x="176" y="744" type="line" smooth="yes"/>
      <point x="176" y="753"/>
      <point x="180" y="773"/>
      <point x="197" y="774" type="curve" smooth="yes"/>
      <point x="290" y="782" type="line" smooth="yes"/>
      <point x="310" y="784"/>
      <point x="325" y="788"/>
      <point x="325" y="810" type="curve" smooth="yes"/>
      <point x="325" y="833"/>
      <point x="303" y="838"/>
      <point x="289" y="838" type="curve" smooth="yes"/>
      <point x="265" y="838"/>
      <point x="167" y="838"/>
    </contour>
  </outline>
</glyph>
<glyph name="backslash" format="1">
  <advance width="548"/>
  <unicode hex="005C"/>
  <outline>
    <contour>
      <point x="525" y="24" type="curve" smooth="yes"/>
      <point x="459" y="151"/>
      <point x="439" y="186"/>
      <point x="310" y="423" type="curve" smooth="yes"/>
      <point x="194" y="636"/>
      <point x="224" y="582"/>
      <point x="129" y="774" type="curve" smooth="yes"/>
      <point x="103" y="826"/>
      <point x="93" y="838"/>
      <point x="65" y="838" type="curve" smooth="yes"/>
      <point x="37" y="838"/>
      <point x="20" y="823"/>
      <point x="20" y="807" type="curve" smooth="yes"/>
      <point x="20" y="797"/>
      <point x="29" y="776"/>
      <point x="34" y="768" type="curve" smooth="yes"/>
      <point x="439" y="5" type="line" smooth="yes"/>
      <point x="446" y="-9"/>
      <point x="463" y="-19"/>
      <point x="490" y="-19" type="curve" smooth="yes"/>
      <point x="504" y="-19"/>
      <point x="527" y="-7"/>
      <point x="527" y="14" type="curve"/>
      <point x="527" y="16"/>
      <point x="526" y="22"/>
    </contour>
  </outline>
</glyph>
<glyph name="bracketright" format="1">
  <advance width="334"/>
  <unicode hex="005D"/>
  <outline>
    <contour>
      <point x="231" y="835" type="curve" smooth="yes"/>
      <point x="167" y="838"/>
      <point x="69" y="838"/>
      <point x="45" y="838" type="curve" smooth="yes"/>
      <point x="31" y="838"/>
      <point x="9" y="833"/>
      <point x="9" y="810" type="curve" smooth="yes"/>
      <point x="9" y="788"/>
      <point x="24" y="784"/>
      <point x="44" y="782" type="curve" smooth="yes"/>
      <point x="137" y="774" type="line" smooth="yes"/>
      <point x="154" y="773"/>
      <point x="158" y="753"/>
      <point x="158" y="744" type="curve" smooth="yes" name="hr01"/>
      <point x="158" y="22" type="line" smooth="yes"/>
      <point x="158" y="5"/>
      <point x="134" y="5"/>
      <point x="92" y="5" type="curve" smooth="yes"/>
      <point x="37" y="5"/>
      <point x="11" y="-3"/>
      <point x="11" y="-27" type="curve" smooth="yes"/>
      <point x="11" y="-54"/>
      <point x="58" y="-58"/>
      <point x="104" y="-58" type="curve" smooth="yes"/>
      <point x="230" y="-58" type="line" smooth="yes"/>
      <point x="242" y="-58"/>
      <point x="249" y="-51"/>
      <point x="249" y="-23" type="curve"/>
      <point x="248" y="42"/>
      <point x="248" y="251"/>
      <point x="248" y="366" type="curve" smooth="yes"/>
      <point x="248" y="575"/>
      <point x="248" y="591"/>
      <point x="252" y="800" type="curve"/>
      <point x="252" y="816"/>
      <point x="241" y="834"/>
    </contour>
  </outline>
</glyph>
<glyph name="asciicircum" format="1">
  <advance width="315"/>
  <unicode hex="005E"/>
  <outline>
    <contour>
      <point x="277" y="510" type="curve" smooth="yes"/>
      <point x="286" y="510"/>
      <point x="290" y="521"/>
      <point x="290" y="531" type="curve" smooth="yes"/>
      <point x="290" y="573"/>
      <point x="180" y="664"/>
      <point x="157" y="664" type="curve" smooth="yes"/>
      <point x="139" y="664"/>
      <point x="25" y="576"/>
      <point x="25" y="524" type="curve" smooth="yes"/>
      <point x="25" y="517"/>
      <point x="30" y="510"/>
      <point x="38" y="510" type="curve" smooth="yes"/>
      <point x="52" y="510"/>
      <point x="111" y="549"/>
      <point x="157" y="572" type="curve"/>
      <point x="203" y="549"/>
      <point x="263" y="510"/>
    </contour>
    <contour>
      <point x="157" y="510" type="move" name="_top"/>
    </contour>
  </outline>
</glyph>
<glyph name="underscore" format="1">
  <advance width="270"/>
  <unicode hex="005F"/>
  <outline>
    <contour>
      <point x="298" y="-16" type="curve" smooth="yes"/>
      <point x="253" y="-16"/>
      <point x="195" y="-19"/>
      <point x="118" y="-19" type="curve" smooth="yes" name="hr01"/>
      <point x="70" y="-19"/>
      <point x="3" y="-17"/>
      <point x="-24" y="-17" type="curve" smooth="yes"/>
      <point x="-51" y="-17"/>
      <point x="-63" y="-38"/>
      <point x="-63" y="-56" type="curve" smooth="yes"/>
      <point x="-63" y="-74"/>
      <point x="-45" y="-96"/>
      <point x="-24" y="-96" type="curve" smooth="yes"/>
      <point x="42" y="-96"/>
      <point x="212" y="-95"/>
      <point x="286" y="-95" type="curve" smooth="yes" name="hr02"/>
      <point x="321" y="-95"/>
      <point x="330" y="-67"/>
      <point x="330" y="-53" type="curve" smooth="yes"/>
      <point x="330" y="-33"/>
      <point x="313" y="-16"/>
    </contour>
  </outline>
</glyph>
<glyph name="grave" format="1">
  <advance width="154"/>
  <unicode hex="0060"/>
  <outline>
    <contour>
      <point x="1" y="658" type="curve" smooth="yes"/>
      <point x="1" y="634"/>
      <point x="78" y="499"/>
      <point x="129" y="499" type="curve" smooth="yes"/>
      <point x="143" y="499"/>
      <point x="153" y="509"/>
      <point x="153" y="524" type="curve" smooth="yes"/>
      <point x="153" y="538"/>
      <point x="120" y="690"/>
      <point x="61" y="690" type="curve" smooth="yes"/>
      <point x="37" y="690"/>
      <point x="1" y="677"/>
    </contour>
    <contour>
      <point x="77" y="510" type="move" name="_top"/>
    </contour>
  </outline>
</glyph>
<glyph name="b" format="1">
  <advance width="532"/>
  <unicode hex="0062"/>
  <outline>
    <contour>
      <point x="154" y="782" type="line" smooth="yes"/>
      <point x="154" y="816"/>
      <point x="140" y="818"/>
      <point x="128" y="818" type="curve" smooth="yes"/>
      <point x="38" y="818" type="line" smooth="yes"/>
      <point x="-47" y="818"/>
      <point x="-53" y="802"/>
      <point x="-53" y="783" type="curve" smooth="yes"/>
      <point x="-53" y="764"/>
      <point x="-29" y="755"/>
      <point x="-7" y="755" type="curve" smooth="yes"/>
      <point x="17" y="755" type="line" smooth="yes"/>
      <point x="46" y="755"/>
      <point x="62" y="746"/>
      <point x="62" y="728" type="curve" smooth="yes"/>
      <point x="62" y="693"/>
      <point x="63" y="591"/>
      <point x="63" y="498" type="curve" smooth="yes" name="hr01"/>
      <point x="63" y="197"/>
      <point x="55" y="155"/>
      <point x="54" y="24" type="curve"/>
      <point x="54" y="0"/>
      <point x="74" y="-12"/>
      <point x="97" y="-12" type="curve" smooth="yes"/>
      <point x="142" y="-12"/>
      <point x="142" y="0"/>
      <point x="146" y="64" type="curve"/>
      <point x="168" y="28"/>
      <point x="203" y="-9"/>
      <point x="283" y="-9" type="curve" smooth="yes" name="hr02"/>
      <point x="377" y="-9"/>
      <point x="504" y="47"/>
      <point x="504" y="220" type="curve" smooth="yes"/>
      <point x="504" y="321"/>
      <point x="461" y="458"/>
      <point x="329" y="458" type="curve" smooth="yes"/>
      <point x="253" y="458"/>
      <point x="191" y="417"/>
      <point x="154" y="339" type="curve"/>
    </contour>
    <contour>
      <point x="160" y="219" type="curve" smooth="yes"/>
      <point x="160" y="247"/>
      <point x="182" y="376"/>
      <point x="305" y="376" type="curve" smooth="yes"/>
      <point x="360" y="376"/>
      <point x="410" y="342"/>
      <point x="410" y="225" type="curve" smooth="yes"/>
      <point x="410" y="104"/>
      <point x="331" y="70"/>
      <point x="280" y="70" type="curve" smooth="yes"/>
      <point x="217" y="70"/>
      <point x="160" y="106"/>
    </contour>
  </outline>
</glyph>
<glyph name="d" format="1">
  <advance width="554"/>
  <unicode hex="0064"/>
  <outline>
    <contour>
      <point x="482" y="76" type="curve"/>
      <point x="481" y="200"/>
      <point x="480" y="325"/>
      <point x="480" y="325" type="curve"/>
      <point x="480" y="358"/>
      <point x="483" y="700"/>
      <point x="483" y="771" type="curve" smooth="yes"/>
      <point x="483" y="808"/>
      <point x="449" y="809"/>
      <point x="397" y="809" type="curve" smooth="yes"/>
      <point x="247" y="809"/>
      <point x="225" y="798"/>
      <point x="225" y="760" type="curve" smooth="yes"/>
      <point x="225" y="748"/>
      <point x="236" y="740"/>
      <point x="257" y="740" type="curve" smooth="yes"/>
      <point x="277" y="740"/>
      <point x="320" y="742"/>
      <point x="343" y="742" type="curve" smooth="yes"/>
      <point x="371" y="742"/>
      <point x="389" y="739"/>
      <point x="389" y="708" type="curve" smooth="yes"/>
      <point x="389" y="416" type="line"/>
      <point x="368" y="443"/>
      <point x="320" y="477"/>
      <point x="241" y="477" type="curve" smooth="yes"/>
      <point x="56" y="477"/>
      <point x="27" y="292"/>
      <point x="27" y="218" type="curve" smooth="yes"/>
      <point x="27" y="121"/>
      <point x="77" y="-9"/>
      <point x="218" y="-9" type="curve" smooth="yes"/>
      <point x="288" y="-9"/>
      <point x="358" y="23"/>
      <point x="386" y="83" type="curve"/>
      <point x="388" y="29" type="line" smooth="yes"/>
      <point x="389" y="-11"/>
      <point x="398" y="-23"/>
      <point x="425" y="-27" type="curve" smooth="yes"/>
      <point x="438" y="-29"/>
      <point x="496" y="-30"/>
      <point x="533" y="-30" type="curve" smooth="yes" name="hr01"/>
      <point x="556" y="-30"/>
      <point x="579" y="-18"/>
      <point x="579" y="10" type="curve" smooth="yes"/>
      <point x="579" y="44"/>
      <point x="547" y="46"/>
      <point x="499" y="48" type="curve"/>
      <point x="491" y="48"/>
      <point x="482" y="50"/>
    </contour>
    <contour>
      <point x="251" y="67" type="curve" smooth="yes"/>
      <point x="189" y="67"/>
      <point x="121" y="98"/>
      <point x="121" y="221" type="curve" smooth="yes"/>
      <point x="121" y="320"/>
      <point x="165" y="397"/>
      <point x="263" y="397" type="curve" smooth="yes"/>
      <point x="335" y="397"/>
      <point x="365" y="355"/>
      <point x="377" y="327" type="curve" smooth="yes"/>
      <point x="389" y="299"/>
      <point x="391" y="270"/>
      <point x="391" y="247" type="curve" smooth="yes"/>
      <point x="391" y="129"/>
      <point x="338" y="67"/>
    </contour>
  </outline>
</glyph>
<glyph name="f" format="1">
  <advance width="333"/>
  <unicode hex="0066"/>
  <outline>
    <contour>
      <point x="81" y="93" type="curve" smooth="yes"/>
      <point x="79" y="75"/>
      <point x="75" y="74"/>
      <point x="58" y="72" type="curve" smooth="yes"/>
      <point x="46" y="71"/>
      <point x="9" y="67"/>
      <point x="9" y="33" type="curve" smooth="yes"/>
      <point x="9" y="0"/>
      <point x="44" y="0"/>
      <point x="60" y="0" type="curve" smooth="yes"/>
      <point x="75" y="0"/>
      <point x="128" y="3"/>
      <point x="164" y="3" type="curve" smooth="yes" name="hr01"/>
      <point x="193" y="3"/>
      <point x="252" y="1"/>
      <point x="273" y="1" type="curve" smooth="yes" name="hr02"/>
      <point x="311" y="1"/>
      <point x="333" y="8"/>
      <point x="333" y="41" type="curve" smooth="yes"/>
      <point x="333" y="78"/>
      <point x="305" y="78"/>
      <point x="287" y="78" type="curve" smooth="yes" name="hr03"/>
      <point x="178" y="78" type="line"/>
      <point x="178" y="392" type="line" smooth="yes"/>
      <point x="178" y="399"/>
      <point x="180" y="403"/>
      <point x="196" y="403" type="curve" smooth="yes"/>
      <point x="208" y="403"/>
      <point x="250" y="401"/>
      <point x="262" y="401" type="curve" smooth="yes"/>
      <point x="273" y="401"/>
      <point x="308" y="401"/>
      <point x="308" y="441" type="curve" smooth="yes" name="hr04"/>
      <point x="308" y="479"/>
      <point x="277" y="479"/>
      <point x="264" y="479" type="curve" smooth="yes"/>
      <point x="186" y="479" type="line" smooth="yes"/>
      <point x="181" y="479"/>
      <point x="178" y="480"/>
      <point x="178" y="484" type="curve" smooth="yes" name="hr05"/>
      <point x="178" y="559"/>
      <point x="178" y="751"/>
      <point x="321" y="751" type="curve" smooth="yes"/>
      <point x="348" y="751"/>
      <point x="365" y="744"/>
      <point x="365" y="736" type="curve" smooth="yes"/>
      <point x="365" y="730"/>
      <point x="356" y="723"/>
      <point x="350" y="716" type="curve" smooth="yes"/>
      <point x="337" y="701"/>
      <point x="335" y="685"/>
      <point x="335" y="677" type="curve" smooth="yes"/>
      <point x="335" y="651"/>
      <point x="358" y="627"/>
      <point x="390" y="627" type="curve" smooth="yes" name="hr06"/>
      <point x="431" y="627"/>
      <point x="456" y="665"/>
      <point x="456" y="714" type="curve" smooth="yes"/>
      <point x="456" y="757"/>
      <point x="436" y="825"/>
      <point x="320" y="825" type="curve" smooth="yes"/>
      <point x="100" y="825"/>
      <point x="88" y="583"/>
      <point x="84" y="491" type="curve"/>
      <point x="84" y="485"/>
      <point x="83" y="479"/>
      <point x="72" y="479" type="curve" smooth="yes"/>
      <point x="59" y="479" type="line" smooth="yes"/>
      <point x="37" y="479"/>
      <point x="10" y="478"/>
      <point x="10" y="443" type="curve" smooth="yes"/>
      <point x="10" y="410"/>
      <point x="33" y="403"/>
      <point x="56" y="403" type="curve" smooth="yes"/>
      <point x="72" y="403" type="line" smooth="yes"/>
      <point x="83" y="403"/>
      <point x="85" y="402"/>
      <point x="85" y="398" type="curve"/>
      <point x="86" y="330"/>
      <point x="87" y="216"/>
      <point x="87" y="215" type="curve"/>
      <point x="87" y="180"/>
      <point x="84" y="119"/>
    </contour>
  </outline>
</glyph>
<glyph name="h" format="1">
  <advance width="566"/>
  <unicode hex="0068"/>
  <outline>
    <contour>
      <point x="61" y="0" type="curve" smooth="yes"/>
      <point x="82" y="0"/>
      <point x="97" y="1"/>
      <point x="150" y="1" type="curve" smooth="yes" name="hr01"/>
      <point x="181" y="1"/>
      <point x="217" y="2"/>
      <point x="230" y="2" type="curve" smooth="yes"/>
      <point x="262" y="2"/>
      <point x="278" y="8"/>
      <point x="278" y="36" type="curve" smooth="yes"/>
      <point x="278" y="68"/>
      <point x="264" y="77"/>
      <point x="228" y="77" type="curve" smooth="yes"/>
      <point x="156" y="77" type="line"/>
      <point x="156" y="182" type="line" smooth="yes"/>
      <point x="156" y="265"/>
      <point x="228" y="343"/>
      <point x="307" y="343" type="curve" smooth="yes"/>
      <point x="331" y="343"/>
      <point x="345" y="336"/>
      <point x="353" y="329" type="curve" smooth="yes"/>
      <point x="371" y="313"/>
      <point x="377" y="290"/>
      <point x="377" y="211" type="curve" smooth="yes"/>
      <point x="377" y="166"/>
      <point x="375" y="90"/>
      <point x="373" y="61" type="curve" smooth="yes"/>
      <point x="371" y="28"/>
      <point x="369" y="20"/>
      <point x="343" y="10" type="curve" smooth="yes"/>
      <point x="327" y="4"/>
      <point x="321" y="-9"/>
      <point x="321" y="-28" type="curve" smooth="yes"/>
      <point x="321" y="-54"/>
      <point x="346" y="-59"/>
      <point x="407" y="-59" type="curve" smooth="yes" name="hr02"/>
      <point x="438" y="-59"/>
      <point x="458" y="-58"/>
      <point x="468" y="-58" type="curve" smooth="yes" name="hr03"/>
      <point x="486" y="-58"/>
      <point x="525" y="-56"/>
      <point x="542" y="-56" type="curve" smooth="yes"/>
      <point x="563" y="-56"/>
      <point x="584" y="-46"/>
      <point x="584" y="-19" type="curve" smooth="yes"/>
      <point x="584" y="14"/>
      <point x="556" y="19"/>
      <point x="527" y="19" type="curve" smooth="yes" name="hr04"/>
      <point x="466" y="19" type="line"/>
      <point x="466" y="187" type="line" smooth="yes"/>
      <point x="466" y="279"/>
      <point x="457" y="336"/>
      <point x="448" y="360" type="curve" smooth="yes"/>
      <point x="426" y="416"/>
      <point x="387" y="430"/>
      <point x="326" y="430" type="curve" smooth="yes"/>
      <point x="256" y="430"/>
      <point x="181" y="389"/>
      <point x="158" y="332" type="curve"/>
      <point x="158" y="791" type="line" smooth="yes"/>
      <point x="158" y="819"/>
      <point x="147" y="823"/>
      <point x="101" y="823" type="curve" smooth="yes"/>
      <point x="-10" y="823"/>
      <point x="-51" y="806"/>
      <point x="-51" y="784" type="curve" smooth="yes"/>
      <point x="-51" y="757"/>
      <point x="-19" y="751"/>
      <point x="21" y="751" type="curve" smooth="yes"/>
      <point x="52" y="751" type="line" smooth="yes"/>
      <point x="63" y="751"/>
      <point x="66" y="736"/>
      <point x="66" y="721" type="curve" smooth="yes"/>
      <point x="66" y="668"/>
      <point x="66" y="610"/>
      <point x="64" y="398" type="curve" smooth="yes" name="hr05"/>
      <point x="63" y="260"/>
      <point x="61" y="176"/>
      <point x="61" y="135" type="curve" smooth="yes"/>
      <point x="61" y="88"/>
      <point x="53" y="75"/>
      <point x="32" y="72" type="curve" smooth="yes"/>
      <point x="13" y="69"/>
      <point x="-2" y="58"/>
      <point x="-2" y="37" type="curve" smooth="yes" name="hr06"/>
      <point x="-2" y="4"/>
      <point x="22" y="0"/>
    </contour>
  </outline>
</glyph>
<glyph name="i" format="1">
  <advance width="306"/>
  <unicode hex="0069"/>
  <outline>
    <contour>
      <point x="211" y="401" type="line" smooth="yes"/>
      <point x="211" y="422"/>
      <point x="204" y="436"/>
      <point x="184" y="436" type="curve" smooth="yes"/>
      <point x="161" y="436"/>
      <point x="120" y="435"/>
      <point x="82" y="432" type="curve" smooth="yes"/>
      <point x="22" y="428"/>
      <point x="2" y="422"/>
      <point x="2" y="395" type="curve" smooth="yes"/>
      <point x="2" y="376"/>
      <point x="11" y="362"/>
      <point x="33" y="362" type="curve" smooth="yes"/>
      <point x="42" y="362"/>
      <point x="92" y="364"/>
      <point x="101" y="364" type="curve" smooth="yes"/>
      <point x="116" y="364"/>
      <point x="119" y="350"/>
      <point x="120" y="331" type="curve" smooth="yes"/>
      <point x="123" y="287"/>
      <point x="124" y="258"/>
      <point x="124" y="213" type="curve" smooth="yes" name="hr01"/>
      <point x="124" y="193"/>
      <point x="122" y="125"/>
      <point x="120" y="95" type="curve" smooth="yes"/>
      <point x="119" y="81"/>
      <point x="101" y="76"/>
      <point x="80" y="74" type="curve" smooth="yes"/>
      <point x="45" y="71"/>
      <point x="24" y="61"/>
      <point x="24" y="36" type="curve" smooth="yes" name="hr02"/>
      <point x="24" y="2"/>
      <point x="61" y="0"/>
      <point x="93" y="0" type="curve" smooth="yes"/>
      <point x="282" y="0" type="line" smooth="yes"/>
      <point x="299" y="0"/>
      <point x="312" y="16"/>
      <point x="312" y="37" type="curve" smooth="yes" name="hr03"/>
      <point x="312" y="68"/>
      <point x="293" y="76"/>
      <point x="264" y="76" type="curve" smooth="yes"/>
      <point x="211" y="76" type="line" name="hr04"/>
    </contour>
    <contour>
      <point x="92" y="580" type="curve" smooth="yes" name="hr05"/>
      <point x="92" y="540"/>
      <point x="119" y="509"/>
      <point x="153" y="509" type="curve" smooth="yes"/>
      <point x="181" y="509"/>
      <point x="221" y="529"/>
      <point x="221" y="584" type="curve" smooth="yes"/>
      <point x="221" y="625"/>
      <point x="193" y="650"/>
      <point x="160" y="650" type="curve" smooth="yes"/>
      <point x="112" y="650"/>
      <point x="92" y="604"/>
    </contour>
  </outline>
</glyph>
<glyph name="j" format="1">
  <advance width="290"/>
  <unicode hex="006A"/>
  <outline>
    <contour>
      <point x="33" y="-73" type="curve" smooth="yes"/>
      <point x="33" y="-43"/>
      <point x="9" y="-25"/>
      <point x="-32" y="-25" type="curve" smooth="yes"/>
      <point x="-70" y="-25"/>
      <point x="-105" y="-56"/>
      <point x="-105" y="-120" type="curve" smooth="yes"/>
      <point x="-105" y="-172"/>
      <point x="-66" y="-240"/>
      <point x="21" y="-240" type="curve" smooth="yes"/>
      <point x="113" y="-240"/>
      <point x="203" y="-186"/>
      <point x="223" y="-44" type="curve" smooth="yes"/>
      <point x="226" y="-21"/>
      <point x="229" y="38"/>
      <point x="229" y="61" type="curve" smooth="yes"/>
      <point x="229" y="90"/>
      <point x="232" y="372"/>
      <point x="232" y="402" type="curve" smooth="yes" name="hr01"/>
      <point x="232" y="427"/>
      <point x="225" y="440"/>
      <point x="204" y="440" type="curve" smooth="yes"/>
      <point x="8" y="440"/>
      <point x="-16" y="429"/>
      <point x="-16" y="399" type="curve" smooth="yes"/>
      <point x="-16" y="384"/>
      <point x="-6" y="368"/>
      <point x="22" y="368" type="curve" smooth="yes"/>
      <point x="119" y="368" type="line" smooth="yes"/>
      <point x="138" y="368"/>
      <point x="144" y="362"/>
      <point x="144" y="342" type="curve" smooth="yes" name="hr02"/>
      <point x="144" y="278" type="line" smooth="yes"/>
      <point x="144" y="223"/>
      <point x="142" y="17"/>
      <point x="136" y="-40" type="curve" smooth="yes"/>
      <point x="129" y="-104"/>
      <point x="97" y="-173"/>
      <point x="27" y="-173" type="curve" smooth="yes"/>
      <point x="-18" y="-173"/>
      <point x="-25" y="-147"/>
      <point x="-25" y="-140" type="curve" smooth="yes"/>
      <point x="-25" y="-132"/>
      <point x="-19" y="-125"/>
      <point x="-9" y="-124" type="curve" smooth="yes"/>
      <point x="25" y="-122"/>
      <point x="33" y="-98"/>
    </contour>
    <contour>
      <point x="102" y="581" type="curve" smooth="yes" name="hr03"/>
      <point x="102" y="537"/>
      <point x="131" y="509"/>
      <point x="162" y="509" type="curve" smooth="yes"/>
      <point x="191" y="509"/>
      <point x="231" y="528"/>
      <point x="231" y="585" type="curve" smooth="yes"/>
      <point x="231" y="624"/>
      <point x="203" y="650"/>
      <point x="171" y="650" type="curve" smooth="yes"/>
      <point x="120" y="650"/>
      <point x="102" y="601"/>
    </contour>
  </outline>
</glyph>
<glyph name="k" format="1">
  <advance width="497"/>
  <unicode hex="006B"/>
  <outline>
    <contour>
      <point x="153" y="788" type="line" smooth="yes"/>
      <point x="153" y="809"/>
      <point x="146" y="817"/>
      <point x="128" y="817" type="curve" smooth="yes"/>
      <point x="-24" y="817"/>
      <point x="-47" y="795"/>
      <point x="-47" y="775" type="curve" smooth="yes"/>
      <point x="-47" y="753"/>
      <point x="-18" y="749"/>
      <point x="-2" y="749" type="curve" smooth="yes"/>
      <point x="38" y="749" type="line" smooth="yes"/>
      <point x="54" y="749"/>
      <point x="60" y="740"/>
      <point x="60" y="726" type="curve" smooth="yes"/>
      <point x="60" y="656"/>
      <point x="64" y="556"/>
      <point x="64" y="370" type="curve" smooth="yes" name="hr01"/>
      <point x="64" y="257"/>
      <point x="61" y="235"/>
      <point x="59" y="123" type="curve"/>
      <point x="59" y="96"/>
      <point x="57" y="71"/>
      <point x="50" y="69" type="curve" smooth="yes"/>
      <point x="11" y="58"/>
      <point x="-5" y="46"/>
      <point x="-5" y="28" type="curve" smooth="yes" name="hr02"/>
      <point x="-5" y="0"/>
      <point x="23" y="-6"/>
      <point x="45" y="-6" type="curve" smooth="yes"/>
      <point x="63" y="-6"/>
      <point x="97" y="-4"/>
      <point x="118" y="-4" type="curve" smooth="yes" name="hr03"/>
      <point x="168" y="-4"/>
      <point x="185" y="-6"/>
      <point x="201" y="-6" type="curve" smooth="yes" name="hr04"/>
      <point x="227" y="-6"/>
      <point x="240" y="7"/>
      <point x="240" y="28" type="curve" smooth="yes"/>
      <point x="240" y="52"/>
      <point x="228" y="69"/>
      <point x="200" y="69" type="curve" smooth="yes"/>
      <point x="153" y="69" type="line" name="hr05"/>
      <point x="153" y="185" type="line"/>
      <point x="182" y="211" type="line"/>
      <point x="244" y="211"/>
      <point x="283" y="201"/>
      <point x="283" y="116" type="curve" smooth="yes"/>
      <point x="283" y="50" type="line" smooth="yes"/>
      <point x="283" y="-45"/>
      <point x="323" y="-80"/>
      <point x="389" y="-80" type="curve" smooth="yes" name="hr06"/>
      <point x="444" y="-80"/>
      <point x="481" y="-40"/>
      <point x="481" y="9" type="curve" smooth="yes"/>
      <point x="481" y="31"/>
      <point x="471" y="52"/>
      <point x="442" y="52" type="curve" smooth="yes"/>
      <point x="416" y="52"/>
      <point x="402" y="37"/>
      <point x="402" y="12" type="curve" smooth="yes"/>
      <point x="402" y="6"/>
      <point x="397" y="2"/>
      <point x="391" y="2" type="curve" smooth="yes"/>
      <point x="380" y="2"/>
      <point x="369" y="6"/>
      <point x="369" y="68" type="curve" smooth="yes"/>
      <point x="369" y="116" type="line" smooth="yes"/>
      <point x="369" y="234"/>
      <point x="334" y="272"/>
      <point x="246" y="272" type="curve"/>
      <point x="345" y="366" type="line" smooth="yes"/>
      <point x="352" y="373"/>
      <point x="373" y="380"/>
      <point x="387" y="382" type="curve" smooth="yes"/>
      <point x="465" y="393"/>
      <point x="483" y="398"/>
      <point x="483" y="419" type="curve" smooth="yes"/>
      <point x="483" y="441"/>
      <point x="446" y="446"/>
      <point x="345" y="446" type="curve" smooth="yes" name="hr07"/>
      <point x="255" y="446"/>
      <point x="223" y="437"/>
      <point x="223" y="410" type="curve" smooth="yes"/>
      <point x="223" y="388"/>
      <point x="234" y="381"/>
      <point x="252" y="381" type="curve" smooth="yes"/>
      <point x="262" y="381" type="line" smooth="yes"/>
      <point x="265" y="381"/>
      <point x="267" y="379"/>
      <point x="267" y="377" type="curve"/>
      <point x="267" y="370"/>
      <point x="220" y="333"/>
      <point x="153" y="270" type="curve"/>
    </contour>
  </outline>
</glyph>
<glyph name="l" format="1">
  <advance width="269"/>
  <unicode hex="006C"/>
  <outline>
    <contour>
      <point x="185" y="761" type="curve" smooth="yes"/>
      <point x="185" y="819"/>
      <point x="180" y="821"/>
      <point x="135" y="821" type="curve" smooth="yes"/>
      <point x="-4" y="821"/>
      <point x="-29" y="808"/>
      <point x="-29" y="779" type="curve" smooth="yes"/>
      <point x="-29" y="763"/>
      <point x="-16" y="755"/>
      <point x="18" y="755" type="curve" smooth="yes"/>
      <point x="61" y="755" type="line" smooth="yes"/>
      <point x="80" y="755"/>
      <point x="94" y="746"/>
      <point x="94" y="723" type="curve" smooth="yes"/>
      <point x="94" y="649"/>
      <point x="95" y="577"/>
      <point x="95" y="413" type="curve" smooth="yes" name="hr01"/>
      <point x="95" y="256"/>
      <point x="94" y="173"/>
      <point x="90" y="103" type="curve" smooth="yes"/>
      <point x="89" y="84"/>
      <point x="73" y="72"/>
      <point x="53" y="71" type="curve" smooth="yes"/>
      <point x="16" y="69" type="line" smooth="yes"/>
      <point x="3" y="68"/>
      <point x="-10" y="60"/>
      <point x="-10" y="39" type="curve" smooth="yes" name="hr02"/>
      <point x="-10" y="18"/>
      <point x="6" y="0"/>
      <point x="42" y="0" type="curve" smooth="yes"/>
      <point x="63" y="0"/>
      <point x="93" y="2"/>
      <point x="129" y="2" type="curve" smooth="yes"/>
      <point x="150" y="2"/>
      <point x="214" y="-1"/>
      <point x="233" y="-1" type="curve" smooth="yes" name="hr03"/>
      <point x="266" y="-1"/>
      <point x="278" y="22"/>
      <point x="278" y="34" type="curve" smooth="yes"/>
      <point x="278" y="55"/>
      <point x="268" y="75"/>
      <point x="221" y="75" type="curve" smooth="yes" name="hr04"/>
      <point x="186" y="75" type="line"/>
      <point x="186" y="161"/>
      <point x="184" y="335"/>
      <point x="184" y="626" type="curve" smooth="yes"/>
      <point x="184" y="643"/>
      <point x="185" y="695"/>
    </contour>
  </outline>
</glyph>
<glyph name="m" format="1">
  <advance width="838"/>
  <unicode hex="006D"/>
  <outline>
    <contour>
      <point x="740" y="282" type="line"/>
      <point x="740" y="396"/>
      <point x="683" y="444"/>
      <point x="607" y="444" type="curve" smooth="yes"/>
      <point x="545" y="444"/>
      <point x="490" y="412"/>
      <point x="452" y="347" type="curve"/>
      <point x="432" y="404"/>
      <point x="389" y="434"/>
      <point x="329" y="434" type="curve" smooth="yes"/>
      <point x="264" y="434"/>
      <point x="210" y="399"/>
      <point x="186" y="341" type="curve"/>
      <point x="183" y="406" type="line" smooth="yes"/>
      <point x="182" y="423"/>
      <point x="177" y="428"/>
      <point x="166" y="428" type="curve" smooth="yes" name="hr01"/>
      <point x="62" y="428"/>
      <point x="2" y="419"/>
      <point x="2" y="388" type="curve" smooth="yes"/>
      <point x="2" y="367"/>
      <point x="14" y="354"/>
      <point x="63" y="354" type="curve" smooth="yes"/>
      <point x="76" y="354" type="line" smooth="yes"/>
      <point x="91" y="354"/>
      <point x="100" y="350"/>
      <point x="100" y="264" type="curve" smooth="yes" name="hr02"/>
      <point x="100" y="186"/>
      <point x="91" y="119"/>
      <point x="89" y="108" type="curve" smooth="yes"/>
      <point x="83" y="79"/>
      <point x="73" y="77"/>
      <point x="55" y="74" type="curve" smooth="yes"/>
      <point x="35" y="71"/>
      <point x="26" y="57"/>
      <point x="26" y="41" type="curve" smooth="yes"/>
      <point x="26" y="21"/>
      <point x="36" y="2"/>
      <point x="61" y="2" type="curve" smooth="yes"/>
      <point x="229" y="2"/>
      <point x="241" y="1"/>
      <point x="252" y="1" type="curve" smooth="yes"/>
      <point x="284" y="1"/>
      <point x="290" y="25"/>
      <point x="290" y="37" type="curve" smooth="yes"/>
      <point x="290" y="58"/>
      <point x="277" y="77"/>
      <point x="234" y="77" type="curve" smooth="yes"/>
      <point x="189" y="77" type="line"/>
      <point x="189" y="197" type="line" smooth="yes"/>
      <point x="189" y="303"/>
      <point x="246" y="356"/>
      <point x="320" y="356" type="curve" smooth="yes"/>
      <point x="351" y="356"/>
      <point x="368" y="325"/>
      <point x="370" y="265" type="curve" smooth="yes" name="hr03"/>
      <point x="371" y="235"/>
      <point x="371" y="204"/>
      <point x="371" y="202" type="curve"/>
      <point x="371" y="163"/>
      <point x="374" y="122"/>
      <point x="374" y="109" type="curve" smooth="yes"/>
      <point x="374" y="99"/>
      <point x="373" y="92"/>
      <point x="352" y="88" type="curve" smooth="yes"/>
      <point x="342" y="86" type="line" smooth="yes"/>
      <point x="333" y="84"/>
      <point x="320" y="74"/>
      <point x="320" y="50" type="curve" smooth="yes" name="hr04"/>
      <point x="320" y="28"/>
      <point x="333" y="9"/>
      <point x="367" y="9" type="curve" smooth="yes"/>
      <point x="385" y="9"/>
      <point x="515" y="10"/>
      <point x="526" y="10" type="curve" smooth="yes"/>
      <point x="543" y="10"/>
      <point x="554" y="24"/>
      <point x="554" y="47" type="curve" smooth="yes"/>
      <point x="554" y="62"/>
      <point x="548" y="83"/>
      <point x="517" y="83" type="curve" smooth="yes"/>
      <point x="461" y="83" type="line" name="hr05"/>
      <point x="461" y="262" type="line"/>
      <point x="486" y="314"/>
      <point x="531" y="366"/>
      <point x="588" y="366" type="curve" smooth="yes"/>
      <point x="626" y="366"/>
      <point x="651" y="325"/>
      <point x="651" y="220" type="curve" smooth="yes"/>
      <point x="651" y="166"/>
      <point x="646" y="107"/>
      <point x="644" y="89" type="curve" smooth="yes"/>
      <point x="641" y="61"/>
      <point x="633" y="58"/>
      <point x="621" y="58" type="curve" smooth="yes"/>
      <point x="615" y="58" type="line" smooth="yes"/>
      <point x="594" y="58"/>
      <point x="583" y="43"/>
      <point x="583" y="21" type="curve" smooth="yes" name="hr06"/>
      <point x="583" y="-10"/>
      <point x="597" y="-21"/>
      <point x="653" y="-21" type="curve" smooth="yes"/>
      <point x="685" y="-21"/>
      <point x="793" y="-20"/>
      <point x="815" y="-19" type="curve" smooth="yes"/>
      <point x="842" y="-18"/>
      <point x="855" y="-1"/>
      <point x="855" y="16" type="curve" smooth="yes"/>
      <point x="855" y="30"/>
      <point x="848" y="54"/>
      <point x="804" y="54" type="curve" smooth="yes"/>
      <point x="740" y="54" type="line"/>
    </contour>
  </outline>
</glyph>
<glyph name="o" format="1">
  <advance width="544"/>
  <unicode hex="006F"/>
  <outline>
    <contour>
      <point x="518" y="231" type="curve" smooth="yes"/>
      <point x="518" y="358"/>
      <point x="432" y="472"/>
      <point x="276" y="472" type="curve" smooth="yes"/>
      <point x="119" y="472"/>
      <point x="26" y="369"/>
      <point x="26" y="230" type="curve" smooth="yes"/>
      <point x="26" y="88"/>
      <point x="118" y="-11"/>
      <point x="267" y="-11" type="curve" smooth="yes"/>
      <point x="385" y="-11"/>
      <point x="518" y="69"/>
    </contour>
    <contour>
      <point x="278" y="394" type="curve" smooth="yes"/>
      <point x="364" y="394"/>
      <point x="424" y="327"/>
      <point x="424" y="235" type="curve" smooth="yes"/>
      <point x="424" y="120"/>
      <point x="334" y="68"/>
      <point x="269" y="68" type="curve" smooth="yes"/>
      <point x="203" y="68"/>
      <point x="122" y="121"/>
      <point x="122" y="231" type="curve" smooth="yes"/>
      <point x="122" y="336"/>
      <point x="196" y="394"/>
    </contour>
  </outline>
</glyph>
<glyph name="p" format="1">
  <advance width="564"/>
  <unicode hex="0070"/>
  <outline>
    <contour>
      <point x="182" y="413" type="line"/>
      <point x="182" y="444"/>
      <point x="176" y="449"/>
      <point x="157" y="449" type="curve" smooth="yes"/>
      <point x="-11" y="449"/>
      <point x="-22" y="429"/>
      <point x="-22" y="408" type="curve" smooth="yes"/>
      <point x="-22" y="383"/>
      <point x="13" y="377"/>
      <point x="30" y="377" type="curve" smooth="yes"/>
      <point x="56" y="377" type="line" smooth="yes"/>
      <point x="88" y="377"/>
      <point x="90" y="374"/>
      <point x="90" y="355" type="curve" smooth="yes"/>
      <point x="90" y="300"/>
      <point x="94" y="259"/>
      <point x="94" y="124" type="curve" smooth="yes" name="hr01"/>
      <point x="94" y="7"/>
      <point x="91" y="-33"/>
      <point x="91" y="-86" type="curve" smooth="yes"/>
      <point x="91" y="-122"/>
      <point x="89" y="-124"/>
      <point x="80" y="-126" type="curve" smooth="yes"/>
      <point x="44" y="-134"/>
      <point x="17" y="-140"/>
      <point x="17" y="-166" type="curve" smooth="yes" name="hr02"/>
      <point x="17" y="-193"/>
      <point x="35" y="-202"/>
      <point x="62" y="-202" type="curve" smooth="yes"/>
      <point x="267" y="-202" type="line" smooth="yes"/>
      <point x="293" y="-202"/>
      <point x="314" y="-195"/>
      <point x="314" y="-170" type="curve" smooth="yes" name="hr03"/>
      <point x="314" y="-138"/>
      <point x="282" y="-126"/>
      <point x="247" y="-126" type="curve" smooth="yes"/>
      <point x="182" y="-126" type="line" name="hr04"/>
      <point x="182" y="68" type="line"/>
      <point x="200" y="34"/>
      <point x="242" y="-11"/>
      <point x="330" y="-11" type="curve" smooth="yes"/>
      <point x="399" y="-11"/>
      <point x="536" y="47"/>
      <point x="536" y="238" type="curve" smooth="yes"/>
      <point x="536" y="348"/>
      <point x="491" y="471"/>
      <point x="356" y="471" type="curve" smooth="yes"/>
      <point x="265" y="471"/>
      <point x="217" y="417"/>
      <point x="182" y="346" type="curve"/>
    </contour>
    <contour>
      <point x="181" y="219" type="curve" smooth="yes"/>
      <point x="181" y="320"/>
      <point x="251" y="391"/>
      <point x="323" y="391" type="curve" smooth="yes"/>
      <point x="412" y="391"/>
      <point x="441" y="316"/>
      <point x="441" y="240" type="curve" smooth="yes"/>
      <point x="441" y="99"/>
      <point x="360" y="67"/>
      <point x="312" y="67" type="curve" smooth="yes"/>
      <point x="230" y="67"/>
      <point x="181" y="131"/>
    </contour>
  </outline>
</glyph>
<glyph name="q" format="1">
  <advance width="537"/>
  <unicode hex="0071"/>
  <outline>
    <contour>
      <point x="413" y="372" type="curve"/>
      <point x="367" y="420"/>
      <point x="317" y="454"/>
      <point x="238" y="454" type="curve" smooth="yes"/>
      <point x="143" y="454"/>
      <point x="28" y="381"/>
      <point x="28" y="217" type="curve" smooth="yes"/>
      <point x="28" y="87"/>
      <point x="101" y="-10"/>
      <point x="219" y="-10" type="curve" smooth="yes"/>
      <point x="297" y="-10"/>
      <point x="351" y="32"/>
      <point x="370" y="81" type="curve" name="hr01"/>
      <point x="370" y="-50" type="line" smooth="yes"/>
      <point x="370" y="-97"/>
      <point x="368" y="-110"/>
      <point x="359" y="-116" type="curve" smooth="yes"/>
      <point x="353" y="-120"/>
      <point x="341" y="-125"/>
      <point x="289" y="-127" type="curve" smooth="yes"/>
      <point x="255" y="-128"/>
      <point x="238" y="-139"/>
      <point x="238" y="-165" type="curve" smooth="yes" name="hr02"/>
      <point x="238" y="-187"/>
      <point x="255" y="-203"/>
      <point x="278" y="-203" type="curve" smooth="yes"/>
      <point x="502" y="-203" type="line" smooth="yes"/>
      <point x="530" y="-203"/>
      <point x="539" y="-180"/>
      <point x="539" y="-162" type="curve" smooth="yes" name="hr03"/>
      <point x="539" y="-146"/>
      <point x="526" y="-126"/>
      <point x="487" y="-126" type="curve" smooth="yes"/>
      <point x="462" y="-126" type="line"/>
      <point x="462" y="-104"/>
      <point x="460" y="9"/>
      <point x="460" y="37" type="curve" smooth="yes"/>
      <point x="460" y="87"/>
      <point x="459" y="211"/>
      <point x="459" y="270" type="curve" smooth="yes" name="hr04"/>
      <point x="459" y="287"/>
      <point x="466" y="308"/>
      <point x="477" y="327" type="curve" smooth="yes"/>
      <point x="487" y="344"/>
      <point x="502" y="360"/>
      <point x="519" y="376" type="curve" smooth="yes"/>
      <point x="532" y="388"/>
      <point x="544" y="402"/>
      <point x="544" y="423" type="curve" smooth="yes"/>
      <point x="544" y="444"/>
      <point x="533" y="457"/>
      <point x="510" y="457" type="curve" smooth="yes" name="hr05"/>
      <point x="467" y="457"/>
      <point x="447" y="413"/>
    </contour>
    <contour>
      <point x="246" y="68" type="curve" smooth="yes"/>
      <point x="165" y="68"/>
      <point x="122" y="144"/>
      <point x="122" y="214" type="curve" smooth="yes"/>
      <point x="122" y="289"/>
      <point x="159" y="376"/>
      <point x="243" y="376" type="curve" smooth="yes" name="hr06"/>
      <point x="343" y="376"/>
      <point x="377" y="308"/>
      <point x="377" y="245" type="curve" smooth="yes"/>
      <point x="377" y="151"/>
      <point x="328" y="68"/>
    </contour>
  </outline>
</glyph>
<glyph name="r" format="1">
  <advance width="453"/>
  <unicode hex="0072"/>
  <outline>
    <contour>
      <point x="436" y="323" type="curve" smooth="yes"/>
      <point x="436" y="410"/>
      <point x="364" y="439"/>
      <point x="312" y="439" type="curve" smooth="yes"/>
      <point x="259" y="439"/>
      <point x="219" y="409"/>
      <point x="188" y="364" type="curve"/>
      <point x="188" y="413" type="line" smooth="yes"/>
      <point x="188" y="448"/>
      <point x="179" y="451"/>
      <point x="144" y="451" type="curve" smooth="yes" name="hr01"/>
      <point x="34" y="451"/>
      <point x="-6" y="440"/>
      <point x="-6" y="412" type="curve" smooth="yes"/>
      <point x="-6" y="385"/>
      <point x="27" y="379"/>
      <point x="49" y="379" type="curve" smooth="yes"/>
      <point x="79" y="379" type="line" smooth="yes"/>
      <point x="89" y="379"/>
      <point x="94" y="373"/>
      <point x="94" y="365" type="curve" smooth="yes" name="hr02"/>
      <point x="94" y="193"/>
      <point x="94" y="150"/>
      <point x="93" y="118" type="curve" smooth="yes"/>
      <point x="92" y="89"/>
      <point x="72" y="84"/>
      <point x="51" y="79" type="curve" smooth="yes"/>
      <point x="29" y="74"/>
      <point x="22" y="59"/>
      <point x="22" y="42" type="curve" smooth="yes"/>
      <point x="22" y="22"/>
      <point x="31" y="0"/>
      <point x="63" y="0" type="curve" smooth="yes"/>
      <point x="103" y="0"/>
      <point x="121" y="3"/>
      <point x="163" y="3" type="curve" smooth="yes"/>
      <point x="203" y="3"/>
      <point x="246" y="0"/>
      <point x="288" y="0" type="curve" smooth="yes"/>
      <point x="314" y="0"/>
      <point x="325" y="13"/>
      <point x="325" y="35" type="curve" smooth="yes"/>
      <point x="325" y="66"/>
      <point x="300" y="79"/>
      <point x="231" y="79" type="curve" smooth="yes"/>
      <point x="183" y="79" type="line" name="hr03"/>
      <point x="183" y="195" type="line" smooth="yes"/>
      <point x="183" y="314"/>
      <point x="263" y="370"/>
      <point x="311" y="370" type="curve" smooth="yes"/>
      <point x="336" y="370"/>
      <point x="356" y="357"/>
      <point x="356" y="335" type="curve" smooth="yes"/>
      <point x="356" y="300"/>
      <point x="304" y="306"/>
      <point x="304" y="264" type="curve" smooth="yes" name="hr04"/>
      <point x="304" y="233"/>
      <point x="332" y="222"/>
      <point x="358" y="222" type="curve" smooth="yes"/>
      <point x="417" y="222"/>
      <point x="436" y="278"/>
    </contour>
  </outline>
</glyph>
<glyph name="u" format="1">
  <advance width="599"/>
  <unicode hex="0075"/>
  <outline>
    <contour>
      <point x="436" y="191" type="line" smooth="yes"/>
      <point x="435" y="122"/>
      <point x="372" y="58"/>
      <point x="297" y="58" type="curve" smooth="yes"/>
      <point x="202" y="58"/>
      <point x="202" y="165"/>
      <point x="202" y="243" type="curve" smooth="yes"/>
      <point x="202" y="302"/>
      <point x="206" y="392"/>
      <point x="206" y="427" type="curve" smooth="yes"/>
      <point x="206" y="469"/>
      <point x="191" y="472"/>
      <point x="121" y="472" type="curve" smooth="yes"/>
      <point x="35" y="472"/>
      <point x="10" y="460"/>
      <point x="10" y="432" type="curve" smooth="yes" name="hr01"/>
      <point x="10" y="402"/>
      <point x="30" y="399"/>
      <point x="55" y="399" type="curve" smooth="yes" name="hr02"/>
      <point x="79" y="399" type="line" smooth="yes"/>
      <point x="110" y="399"/>
      <point x="111" y="391"/>
      <point x="111" y="361" type="curve" smooth="yes"/>
      <point x="111" y="187" type="line" smooth="yes"/>
      <point x="111" y="82"/>
      <point x="151" y="-20"/>
      <point x="275" y="-20" type="curve" smooth="yes"/>
      <point x="368" y="-20"/>
      <point x="417" y="38"/>
      <point x="436" y="81" type="curve"/>
      <point x="437" y="-1"/>
      <point x="439" y="-22"/>
      <point x="466" y="-22" type="curve" smooth="yes" name="hr03"/>
      <point x="603" y="-22"/>
      <point x="609" y="-7"/>
      <point x="609" y="22" type="curve" smooth="yes"/>
      <point x="609" y="43"/>
      <point x="599" y="50"/>
      <point x="586" y="53" type="curve" smooth="yes"/>
      <point x="581" y="54"/>
      <point x="565" y="55"/>
      <point x="556" y="55" type="curve" smooth="yes"/>
      <point x="533" y="55"/>
      <point x="528" y="63"/>
      <point x="528" y="78" type="curve" smooth="yes"/>
      <point x="528" y="82"/>
      <point x="527" y="103"/>
      <point x="527" y="156" type="curve" smooth="yes" name="hr04"/>
      <point x="527" y="308"/>
      <point x="530" y="355"/>
      <point x="530" y="383" type="curve" smooth="yes"/>
      <point x="530" y="431"/>
      <point x="510" y="432"/>
      <point x="436" y="432" type="curve" smooth="yes"/>
      <point x="339" y="432"/>
      <point x="324" y="416"/>
      <point x="324" y="390" type="curve" smooth="yes" name="hr05"/>
      <point x="324" y="372"/>
      <point x="335" y="359"/>
      <point x="358" y="359" type="curve" smooth="yes"/>
      <point x="411" y="359" type="line" smooth="yes" name="hr06"/>
      <point x="435" y="359"/>
      <point x="438" y="340"/>
      <point x="438" y="318" type="curve"/>
    </contour>
  </outline>
</glyph>
<glyph name="v" format="1">
  <advance width="523"/>
  <unicode hex="0076"/>
  <outline>
    <contour>
      <point x="423" y="337" type="curve" smooth="yes"/>
      <point x="432" y="359"/>
      <point x="449" y="362"/>
      <point x="468" y="363" type="curve" smooth="yes"/>
      <point x="527" y="367"/>
      <point x="548" y="377"/>
      <point x="548" y="397" type="curve" smooth="yes"/>
      <point x="548" y="419"/>
      <point x="538" y="423"/>
      <point x="410" y="423" type="curve" smooth="yes"/>
      <point x="315" y="423"/>
      <point x="301" y="421"/>
      <point x="301" y="389" type="curve" smooth="yes"/>
      <point x="301" y="377"/>
      <point x="311" y="369"/>
      <point x="322" y="367" type="curve" smooth="yes"/>
      <point x="327" y="366"/>
      <point x="332" y="364"/>
      <point x="332" y="358" type="curve"/>
      <point x="333" y="344"/>
      <point x="285" y="190"/>
      <point x="260" y="131" type="curve"/>
      <point x="198" y="318"/>
      <point x="180" y="379"/>
      <point x="180" y="383" type="curve" smooth="yes"/>
      <point x="180" y="394"/>
      <point x="195" y="398"/>
      <point x="209" y="399" type="curve" smooth="yes"/>
      <point x="229" y="400"/>
      <point x="243" y="410"/>
      <point x="243" y="428" type="curve" smooth="yes"/>
      <point x="243" y="453"/>
      <point x="222" y="454"/>
      <point x="201" y="454" type="curve" smooth="yes"/>
      <point x="191" y="454"/>
      <point x="57" y="453"/>
      <point x="45" y="453" type="curve" smooth="yes" name="hr01"/>
      <point x="27" y="453"/>
      <point x="2" y="450"/>
      <point x="2" y="429" type="curve" smooth="yes"/>
      <point x="2" y="407"/>
      <point x="43" y="401"/>
      <point x="58" y="399" type="curve" smooth="yes"/>
      <point x="75" y="397"/>
      <point x="81" y="390"/>
      <point x="93" y="358" type="curve" smooth="yes"/>
      <point x="139" y="233"/>
      <point x="147" y="205"/>
      <point x="203" y="31" type="curve" smooth="yes"/>
      <point x="213" y="0"/>
      <point x="229" y="-14"/>
      <point x="257" y="-14" type="curve" smooth="yes"/>
      <point x="284" y="-14"/>
      <point x="302" y="0"/>
      <point x="313" y="36" type="curve" smooth="yes"/>
      <point x="320" y="60"/>
      <point x="400" y="280"/>
    </contour>
  </outline>
</glyph>
<glyph name="x" format="1">
  <advance width="559"/>
  <unicode hex="0078"/>
  <outline>
    <contour>
      <point x="273" y="39" type="curve" smooth="yes"/>
      <point x="259" y="31"/>
      <point x="252" y="20"/>
      <point x="252" y="1" type="curve" smooth="yes"/>
      <point x="252" y="-20"/>
      <point x="266" y="-28"/>
      <point x="318" y="-28" type="curve" smooth="yes"/>
      <point x="341" y="-28"/>
      <point x="368" y="-27"/>
      <point x="391" y="-27" type="curve" smooth="yes" name="hr01"/>
      <point x="422" y="-27"/>
      <point x="441" y="-28"/>
      <point x="474" y="-28" type="curve" smooth="yes" name="hr02"/>
      <point x="496" y="-28"/>
      <point x="524" y="-24"/>
      <point x="524" y="4" type="curve" smooth="yes"/>
      <point x="524" y="30"/>
      <point x="515" y="38"/>
      <point x="445" y="44" type="curve" smooth="yes"/>
      <point x="406" y="47"/>
      <point x="400" y="53"/>
      <point x="288" y="208" type="curve"/>
      <point x="344" y="288"/>
      <point x="355" y="301"/>
      <point x="361" y="308" type="curve" smooth="yes"/>
      <point x="380" y="329"/>
      <point x="387" y="334"/>
      <point x="475" y="338" type="curve" smooth="yes"/>
      <point x="522" y="340"/>
      <point x="527" y="355"/>
      <point x="527" y="375" type="curve" smooth="yes"/>
      <point x="527" y="400"/>
      <point x="514" y="408"/>
      <point x="464" y="408" type="curve" smooth="yes"/>
      <point x="290" y="408" type="line" smooth="yes"/>
      <point x="258" y="408"/>
      <point x="244" y="393"/>
      <point x="244" y="368" type="curve" smooth="yes"/>
      <point x="244" y="350"/>
      <point x="251" y="344"/>
      <point x="256" y="340" type="curve" smooth="yes"/>
      <point x="264" y="334"/>
      <point x="276" y="335"/>
      <point x="276" y="332" type="curve" smooth="yes"/>
      <point x="276" y="329"/>
      <point x="275" y="327"/>
      <point x="269" y="318" type="curve" smooth="yes"/>
      <point x="238" y="274" type="line"/>
      <point x="196" y="330"/>
      <point x="186" y="353"/>
      <point x="186" y="361" type="curve" smooth="yes"/>
      <point x="186" y="374"/>
      <point x="221" y="374"/>
      <point x="221" y="403" type="curve" smooth="yes" name="hr03"/>
      <point x="221" y="423"/>
      <point x="217" y="447"/>
      <point x="176" y="447" type="curve" smooth="yes"/>
      <point x="62" y="447" type="line" smooth="yes"/>
      <point x="0" y="447"/>
      <point x="-12" y="436"/>
      <point x="-12" y="408" type="curve" smooth="yes" name="hr04"/>
      <point x="-12" y="380"/>
      <point x="16" y="376"/>
      <point x="60" y="372" type="curve" smooth="yes"/>
      <point x="78" y="370"/>
      <point x="79" y="368"/>
      <point x="101" y="336" type="curve" smooth="yes"/>
      <point x="190" y="207" type="line"/>
      <point x="166" y="173"/>
      <point x="180" y="194"/>
      <point x="106" y="95" type="curve" smooth="yes"/>
      <point x="82" y="63"/>
      <point x="7" y="83"/>
      <point x="7" y="39" type="curve" smooth="yes" name="hr05"/>
      <point x="7" y="2"/>
      <point x="48" y="1"/>
      <point x="63" y="1" type="curve" smooth="yes"/>
      <point x="82" y="1"/>
      <point x="94" y="2"/>
      <point x="123" y="2" type="curve" smooth="yes"/>
      <point x="156" y="2"/>
      <point x="164" y="0"/>
      <point x="196" y="0" type="curve" smooth="yes"/>
      <point x="211" y="0"/>
      <point x="232" y="9"/>
      <point x="232" y="35" type="curve" smooth="yes"/>
      <point x="232" y="51"/>
      <point x="224" y="61"/>
      <point x="211" y="64" type="curve" smooth="yes"/>
      <point x="200" y="67"/>
      <point x="196" y="71"/>
      <point x="196" y="74" type="curve" smooth="yes"/>
      <point x="196" y="84"/>
      <point x="220" y="112"/>
      <point x="239" y="145" type="curve"/>
      <point x="284" y="80"/>
      <point x="293" y="65"/>
      <point x="293" y="57" type="curve" smooth="yes"/>
      <point x="293" y="49"/>
      <point x="283" y="45"/>
    </contour>
  </outline>
</glyph>
<glyph name="braceleft" format="1">
  <advance width="349"/>
  <unicode hex="007B"/>
  <outline>
    <contour>
      <point x="211" y="201" type="line"/>
      <point x="211" y="201"/>
      <point x="210" y="374"/>
      <point x="99" y="374" type="curve"/>
      <point x="210" y="374"/>
      <point x="211" y="579"/>
      <point x="211" y="579" type="curve"/>
      <point x="211" y="749" type="line" smooth="yes"/>
      <point x="211" y="761"/>
      <point x="215" y="773"/>
      <point x="264" y="778" type="curve" smooth="yes"/>
      <point x="305" y="783" type="line" smooth="yes"/>
      <point x="314" y="784"/>
      <point x="340" y="788"/>
      <point x="340" y="810" type="curve" smooth="yes" name="hr01"/>
      <point x="340" y="836"/>
      <point x="315" y="838"/>
      <point x="304" y="838" type="curve" smooth="yes"/>
      <point x="277" y="838"/>
      <point x="217" y="835"/>
      <point x="197" y="835" type="curve" smooth="yes" name="hr02"/>
      <point x="127" y="835"/>
      <point x="117" y="775"/>
      <point x="117" y="747" type="curve" smooth="yes"/>
      <point x="117" y="670"/>
      <point x="118" y="615"/>
      <point x="118" y="580" type="curve" smooth="yes"/>
      <point x="118" y="400"/>
      <point x="52" y="400"/>
      <point x="37" y="400" type="curve" smooth="yes"/>
      <point x="12" y="400"/>
      <point x="-5" y="392"/>
      <point x="-5" y="374" type="curve" smooth="yes"/>
      <point x="-5" y="356"/>
      <point x="8" y="348"/>
      <point x="31" y="348" type="curve" smooth="yes"/>
      <point x="46" y="348"/>
      <point x="120" y="339"/>
      <point x="120" y="200" type="curve" smooth="yes"/>
      <point x="120" y="32" type="line" smooth="yes"/>
      <point x="120" y="-47"/>
      <point x="146" y="-58"/>
      <point x="188" y="-58" type="curve" smooth="yes"/>
      <point x="245" y="-58" type="line" smooth="yes"/>
      <point x="306" y="-58"/>
      <point x="338" y="-48"/>
      <point x="338" y="-31" type="curve" smooth="yes"/>
      <point x="338" y="0"/>
      <point x="288" y="5"/>
      <point x="257" y="5" type="curve" smooth="yes"/>
      <point x="216" y="5"/>
      <point x="211" y="14"/>
      <point x="211" y="59" type="curve" smooth="yes"/>
    </contour>
  </outline>
</glyph>
<glyph name="bar" format="1">
  <advance width="257"/>
  <unicode hex="007C"/>
  <outline>
    <contour>
      <point x="174" y="802" type="curve" smooth="yes"/>
      <point x="174" y="824"/>
      <point x="162" y="856"/>
      <point x="129" y="856" type="curve" smooth="yes"/>
      <point x="116" y="856"/>
      <point x="83" y="849"/>
      <point x="83" y="818" type="curve" smooth="yes"/>
      <point x="83" y="671"/>
      <point x="84" y="494"/>
      <point x="84" y="348" type="curve" smooth="yes"/>
      <point x="84" y="201"/>
      <point x="83" y="15"/>
      <point x="83" y="-131" type="curve" smooth="yes"/>
      <point x="83" y="-149"/>
      <point x="103" y="-161"/>
      <point x="128" y="-161" type="curve" smooth="yes"/>
      <point x="162" y="-161"/>
      <point x="173" y="-154"/>
      <point x="173" y="-128" type="curve" smooth="yes"/>
      <point x="173" y="15"/>
      <point x="172" y="199"/>
      <point x="172" y="342" type="curve" smooth="yes"/>
      <point x="172" y="485"/>
      <point x="174" y="658"/>
    </contour>
  </outline>
</glyph>
<glyph name="braceright" format="1">
  <advance width="349"/>
  <unicode hex="007D"/>
  <outline>
    <contour>
      <point x="138" y="579" type="line"/>
      <point x="138" y="579"/>
      <point x="139" y="406"/>
      <point x="250" y="406" type="curve"/>
      <point x="139" y="406"/>
      <point x="138" y="201"/>
      <point x="138" y="201" type="curve"/>
      <point x="138" y="31" type="line" smooth="yes"/>
      <point x="138" y="19"/>
      <point x="134" y="7"/>
      <point x="85" y="2" type="curve" smooth="yes"/>
      <point x="44" y="-3" type="line" smooth="yes"/>
      <point x="35" y="-4"/>
      <point x="9" y="-8"/>
      <point x="9" y="-30" type="curve" smooth="yes" name="hr01"/>
      <point x="9" y="-56"/>
      <point x="34" y="-58"/>
      <point x="45" y="-58" type="curve" smooth="yes"/>
      <point x="72" y="-58"/>
      <point x="132" y="-55"/>
      <point x="152" y="-55" type="curve" smooth="yes"/>
      <point x="222" y="-55"/>
      <point x="232" y="5"/>
      <point x="232" y="33" type="curve" smooth="yes"/>
      <point x="232" y="110"/>
      <point x="231" y="165"/>
      <point x="231" y="200" type="curve" smooth="yes"/>
      <point x="231" y="380"/>
      <point x="297" y="380"/>
      <point x="312" y="380" type="curve" smooth="yes"/>
      <point x="337" y="380"/>
      <point x="354" y="388"/>
      <point x="354" y="406" type="curve" smooth="yes"/>
      <point x="354" y="424"/>
      <point x="341" y="432"/>
      <point x="318" y="432" type="curve" smooth="yes"/>
      <point x="303" y="432"/>
      <point x="229" y="441"/>
      <point x="229" y="580" type="curve" smooth="yes"/>
      <point x="229" y="748" type="line" smooth="yes"/>
      <point x="229" y="827"/>
      <point x="203" y="838"/>
      <point x="161" y="838" type="curve" smooth="yes"/>
      <point x="104" y="838" type="line" smooth="yes"/>
      <point x="43" y="838"/>
      <point x="11" y="828"/>
      <point x="11" y="811" type="curve" smooth="yes"/>
      <point x="11" y="780"/>
      <point x="61" y="775"/>
      <point x="92" y="775" type="curve" smooth="yes"/>
      <point x="133" y="775"/>
      <point x="138" y="766"/>
      <point x="138" y="721" type="curve" smooth="yes" name="hr02"/>
    </contour>
  </outline>
</glyph>
<glyph name="asciitilde" format="1">
  <advance width="441"/>
  <unicode hex="007E"/>
  <outline>
    <contour>
      <point x="47" y="534" type="curve" smooth="yes"/>
      <point x="47" y="514"/>
      <point x="54" y="498"/>
      <point x="66" y="498" type="curve" smooth="yes"/>
      <point x="86" y="498"/>
      <point x="111" y="523"/>
      <point x="150" y="523" type="curve" smooth="yes"/>
      <point x="188" y="523"/>
      <point x="236" y="499"/>
      <point x="287" y="499" type="curve" smooth="yes" name="hr01"/>
      <point x="317" y="499"/>
      <point x="398" y="515"/>
      <point x="398" y="574" type="curve" smooth="yes"/>
      <point x="398" y="595"/>
      <point x="383" y="609"/>
      <point x="376" y="609" type="curve" smooth="yes"/>
      <point x="370" y="609"/>
      <point x="360" y="604"/>
      <point x="346" y="596" type="curve" smooth="yes"/>
      <point x="327" y="586"/>
      <point x="304" y="579"/>
      <point x="286" y="579" type="curve" smooth="yes"/>
      <point x="245" y="579"/>
      <point x="189" y="607"/>
      <point x="149" y="607" type="curve" smooth="yes" name="hr02"/>
      <point x="123" y="607"/>
      <point x="102" y="601"/>
      <point x="81" y="589" type="curve" smooth="yes" name="hr03"/>
      <point x="63" y="579"/>
      <point x="47" y="563"/>
    </contour>
    <contour>
      <point x="226" y="510" type="move" name="_top"/>
    </contour>
  </outline>
</glyph>
<glyph name="exclamdown" format="1">
  <advance width="262"/>
  <unicode hex="00A1"/>
  <outline>
    <contour>
      <point x="210" y="622" type="curve" smooth="yes"/>
      <point x="210" y="653"/>
      <point x="188" y="690"/>
      <point x="133" y="690" type="curve" smooth="yes"/>
      <point x="75" y="690"/>
      <point x="60" y="649"/>
      <point x="60" y="625" type="curve" smooth="yes"/>
      <point x="60" y="604"/>
      <point x="74" y="558"/>
      <point x="134" y="558" type="curve" smooth="yes"/>
      <point x="189" y="558"/>
      <point x="210" y="594"/>
    </contour>
    <contour>
      <point x="91" y="496" type="curve" smooth="yes"/>
      <point x="86" y="482"/>
      <point x="82" y="-129"/>
      <point x="82" y="-172" type="curve" smooth="yes" name="hr01"/>
      <point x="82" y="-211"/>
      <point x="108" y="-219"/>
      <point x="126" y="-219" type="curve" smooth="yes"/>
      <point x="135" y="-219"/>
      <point x="173" y="-219"/>
      <point x="173" y="-172" type="curve" smooth="yes"/>
      <point x="173" y="451" type="line" smooth="yes"/>
      <point x="173" y="507"/>
      <point x="167" y="522"/>
      <point x="131" y="522" type="curve" smooth="yes"/>
      <point x="99" y="522"/>
      <point x="92" y="499"/>
    </contour>
  </outline>
</glyph>
<glyph name="cent" format="1">
  <advance width="504"/>
  <unicode hex="00A2"/>
  <outline>
    <contour>
      <point x="271" y="17" type="curve" smooth="yes"/>
      <point x="304" y="17"/>
      <point x="317" y="39"/>
      <point x="317" y="55" type="curve" smooth="yes"/>
      <point x="317" y="79"/>
      <point x="317" y="90"/>
      <point x="318" y="155" type="curve"/>
      <point x="369" y="164"/>
      <point x="407" y="190"/>
      <point x="464" y="250" type="curve" smooth="yes"/>
      <point x="470" y="256"/>
      <point x="472" y="267"/>
      <point x="472" y="277" type="curve" smooth="yes"/>
      <point x="472" y="295"/>
      <point x="460" y="310"/>
      <point x="440" y="310" type="curve" smooth="yes"/>
      <point x="426" y="310"/>
      <point x="416" y="305"/>
      <point x="397" y="287" type="curve" smooth="yes"/>
      <point x="367" y="258"/>
      <point x="338" y="241"/>
      <point x="309" y="231" type="curve"/>
      <point x="309" y="564" type="line"/>
      <point x="334" y="561"/>
      <point x="341" y="556"/>
      <point x="341" y="544" type="curve" smooth="yes" name="hr01"/>
      <point x="341" y="527"/>
      <point x="318" y="525"/>
      <point x="318" y="495" type="curve" smooth="yes" name="hr02"/>
      <point x="318" y="472"/>
      <point x="329" y="441"/>
      <point x="377" y="441" type="curve" smooth="yes"/>
      <point x="443" y="441"/>
      <point x="464" y="493"/>
      <point x="464" y="525" type="curve" smooth="yes"/>
      <point x="464" y="584"/>
      <point x="397" y="628"/>
      <point x="316" y="639" type="curve"/>
      <point x="317" y="680"/>
      <point x="317" y="723"/>
      <point x="317" y="770" type="curve" smooth="yes"/>
      <point x="317" y="792"/>
      <point x="304" y="824"/>
      <point x="272" y="824" type="curve" smooth="yes"/>
      <point x="259" y="824"/>
      <point x="224" y="816"/>
      <point x="224" y="786" type="curve" smooth="yes"/>
      <point x="224" y="732"/>
      <point x="225" y="684"/>
      <point x="225" y="637" type="curve"/>
      <point x="105" y="616"/>
      <point x="31" y="512"/>
      <point x="31" y="386" type="curve" smooth="yes"/>
      <point x="31" y="268"/>
      <point x="87" y="172"/>
      <point x="224" y="154" type="curve"/>
      <point x="224" y="54" type="line" smooth="yes"/>
      <point x="224" y="36"/>
      <point x="243" y="17"/>
    </contour>
    <contour>
      <point x="133" y="383" type="curve" smooth="yes"/>
      <point x="133" y="467"/>
      <point x="158" y="530"/>
      <point x="225" y="556" type="curve"/>
      <point x="225" y="318"/>
      <point x="225" y="274"/>
      <point x="224" y="233" type="curve"/>
      <point x="152" y="251"/>
      <point x="133" y="308"/>
    </contour>
  </outline>
</glyph>
<glyph name="sterling" format="1">
  <advance width="651"/>
  <unicode hex="00A3"/>
  <outline>
    <contour>
      <point x="266" y="577" type="line" smooth="yes"/>
      <point x="266" y="683"/>
      <point x="296" y="760"/>
      <point x="358" y="760" type="curve" smooth="yes"/>
      <point x="425" y="760"/>
      <point x="466" y="676"/>
      <point x="466" y="653" type="curve" smooth="yes"/>
      <point x="466" y="636"/>
      <point x="470" y="602"/>
      <point x="507" y="602" type="curve" smooth="yes" name="hr01"/>
      <point x="542" y="602"/>
      <point x="546" y="627"/>
      <point x="546" y="639" type="curve" smooth="yes"/>
      <point x="546" y="664"/>
      <point x="544" y="690"/>
      <point x="544" y="715" type="curve" smooth="yes"/>
      <point x="544" y="744"/>
      <point x="547" y="767"/>
      <point x="547" y="796" type="curve" smooth="yes"/>
      <point x="547" y="802"/>
      <point x="545" y="831"/>
      <point x="505" y="831" type="curve" smooth="yes" name="hr02"/>
      <point x="479" y="831"/>
      <point x="470" y="816"/>
      <point x="470" y="808" type="curve" smooth="yes"/>
      <point x="470" y="799"/>
      <point x="470" y="794"/>
      <point x="473" y="756" type="curve"/>
      <point x="461" y="790"/>
      <point x="424" y="838"/>
      <point x="357" y="838" type="curve" smooth="yes" name="hr03"/>
      <point x="226" y="838"/>
      <point x="172" y="733"/>
      <point x="172" y="577" type="curve" smooth="yes"/>
      <point x="172" y="539"/>
      <point x="176" y="497"/>
      <point x="176" y="442" type="curve"/>
      <point x="145" y="443"/>
      <point x="114" y="444"/>
      <point x="102" y="444" type="curve" smooth="yes"/>
      <point x="91" y="444"/>
      <point x="69" y="438"/>
      <point x="69" y="404" type="curve" smooth="yes" name="hr04"/>
      <point x="69" y="370"/>
      <point x="93" y="363"/>
      <point x="102" y="363" type="curve" smooth="yes"/>
      <point x="175" y="363" type="line"/>
      <point x="174" y="300"/>
      <point x="172" y="263"/>
      <point x="172" y="241" type="curve" smooth="yes" name="hr05"/>
      <point x="172" y="96"/>
      <point x="123" y="76"/>
      <point x="80" y="76" type="curve" smooth="yes"/>
      <point x="58" y="76"/>
      <point x="29" y="62"/>
      <point x="29" y="32" type="curve" smooth="yes" name="hr06"/>
      <point x="29" y="17"/>
      <point x="47" y="0"/>
      <point x="69" y="0" type="curve" smooth="yes" name="hr07"/>
      <point x="569" y="0" type="line" smooth="yes"/>
      <point x="584" y="0"/>
      <point x="602" y="2"/>
      <point x="603" y="29" type="curve" smooth="yes"/>
      <point x="606" y="99"/>
      <point x="613" y="151"/>
      <point x="613" y="200" type="curve" smooth="yes"/>
      <point x="613" y="214"/>
      <point x="604" y="236"/>
      <point x="576" y="236" type="curve" smooth="yes" name="hr08"/>
      <point x="541" y="236"/>
      <point x="536" y="200"/>
      <point x="534" y="170" type="curve" smooth="yes"/>
      <point x="533" y="153"/>
      <point x="527" y="122"/>
      <point x="526" y="115" type="curve" smooth="yes"/>
      <point x="522" y="89"/>
      <point x="507" y="84"/>
      <point x="486" y="84" type="curve" smooth="yes" name="hr09"/>
      <point x="221" y="84" type="line"/>
      <point x="222" y="85"/>
      <point x="266" y="125"/>
      <point x="266" y="226" type="curve" smooth="yes"/>
      <point x="266" y="363" type="line"/>
      <point x="306" y="363"/>
      <point x="342" y="364"/>
      <point x="363" y="364" type="curve" smooth="yes"/>
      <point x="378" y="364"/>
      <point x="399" y="377"/>
      <point x="399" y="404" type="curve" smooth="yes" name="hr10"/>
      <point x="399" y="432"/>
      <point x="376" y="445"/>
      <point x="371" y="445" type="curve" smooth="yes"/>
      <point x="347" y="445"/>
      <point x="307" y="443"/>
      <point x="266" y="442" type="curve" name="hr11"/>
    </contour>
  </outline>
</glyph>
<glyph name="currency" format="1">
  <advance width="583"/>
  <unicode hex="00A4"/>
  <outline>
    <contour>
      <point x="279" y="197" type="curve" smooth="yes"/>
      <point x="315" y="197"/>
      <point x="366" y="209"/>
      <point x="409" y="241" type="curve"/>
      <point x="420" y="211"/>
      <point x="459" y="173"/>
      <point x="484" y="173" type="curve" smooth="yes"/>
      <point x="503" y="173"/>
      <point x="518" y="194"/>
      <point x="518" y="212" type="curve" smooth="yes"/>
      <point x="518" y="224"/>
      <point x="470" y="269"/>
      <point x="452" y="288" type="curve"/>
      <point x="467" y="313"/>
      <point x="476" y="344"/>
      <point x="476" y="383" type="curve" smooth="yes" name="hr01"/>
      <point x="476" y="417"/>
      <point x="470" y="446"/>
      <point x="459" y="471" type="curve"/>
      <point x="480" y="492"/>
      <point x="518" y="532"/>
      <point x="518" y="541" type="curve" smooth="yes" name="hr02"/>
      <point x="518" y="559"/>
      <point x="510" y="580"/>
      <point x="484" y="580" type="curve" smooth="yes"/>
      <point x="466" y="580"/>
      <point x="427" y="539"/>
      <point x="416" y="522" type="curve"/>
      <point x="384" y="547"/>
      <point x="342" y="561"/>
      <point x="293" y="561" type="curve" smooth="yes" name="hr03"/>
      <point x="243" y="561"/>
      <point x="199" y="550"/>
      <point x="163" y="526" type="curve"/>
      <point x="160" y="533"/>
      <point x="123" y="580"/>
      <point x="97" y="580" type="curve" smooth="yes" name="hr04"/>
      <point x="74" y="580"/>
      <point x="64" y="561"/>
      <point x="64" y="544" type="curve" smooth="yes" name="hr05"/>
      <point x="64" y="529"/>
      <point x="103" y="492"/>
      <point x="118" y="475" type="curve"/>
      <point x="104" y="450"/>
      <point x="97" y="419"/>
      <point x="97" y="380" type="curve" smooth="yes" name="hr06"/>
      <point x="97" y="337"/>
      <point x="106" y="303"/>
      <point x="119" y="278" type="curve"/>
      <point x="96" y="256"/>
      <point x="64" y="224"/>
      <point x="64" y="210" type="curve" smooth="yes" name="hr07"/>
      <point x="64" y="186"/>
      <point x="72" y="173"/>
      <point x="97" y="173" type="curve" smooth="yes" name="hr08"/>
      <point x="125" y="173"/>
      <point x="155" y="216"/>
      <point x="163" y="229" type="curve"/>
      <point x="198" y="206"/>
      <point x="238" y="197"/>
    </contour>
    <contour>
      <point x="282" y="275" type="curve" smooth="yes"/>
      <point x="249" y="275"/>
      <point x="190" y="306"/>
      <point x="190" y="379" type="curve" smooth="yes"/>
      <point x="190" y="449"/>
      <point x="242" y="484"/>
      <point x="279" y="484" type="curve" smooth="yes"/>
      <point x="346" y="484"/>
      <point x="383" y="444"/>
      <point x="383" y="382" type="curve" smooth="yes"/>
      <point x="383" y="305"/>
      <point x="329" y="275"/>
    </contour>
  </outline>
</glyph>
<glyph name="yen" format="1">
  <advance width="791"/>
  <unicode hex="00A5"/>
  <outline>
    <contour>
      <point x="257" y="731" type="curve" smooth="yes"/>
      <point x="257" y="764"/>
      <point x="329" y="740"/>
      <point x="329" y="783" type="curve" smooth="yes"/>
      <point x="329" y="799"/>
      <point x="314" y="813"/>
      <point x="290" y="813" type="curve" smooth="yes"/>
      <point x="62" y="813" type="line" smooth="yes"/>
      <point x="39" y="813"/>
      <point x="16" y="804"/>
      <point x="16" y="783" type="curve" smooth="yes"/>
      <point x="16" y="761"/>
      <point x="41" y="751"/>
      <point x="65" y="749" type="curve" smooth="yes"/>
      <point x="132" y="743"/>
      <point x="151" y="733"/>
      <point x="162" y="712" type="curve" smooth="yes"/>
      <point x="226" y="593"/>
      <point x="247" y="547"/>
      <point x="297" y="435" type="curve"/>
      <point x="279" y="435"/>
      <point x="263" y="436"/>
      <point x="256" y="436" type="curve" smooth="yes"/>
      <point x="233" y="436"/>
      <point x="223" y="415"/>
      <point x="223" y="397" type="curve" smooth="yes" name="hr01"/>
      <point x="223" y="379"/>
      <point x="237" y="357"/>
      <point x="256" y="357" type="curve" smooth="yes"/>
      <point x="333" y="357" type="line"/>
      <point x="336" y="346"/>
      <point x="336" y="332"/>
      <point x="337" y="306" type="curve" name="hr02"/>
      <point x="304" y="307"/>
      <point x="269" y="308"/>
      <point x="256" y="308" type="curve" smooth="yes"/>
      <point x="233" y="308"/>
      <point x="223" y="287"/>
      <point x="223" y="269" type="curve" smooth="yes" name="hr03"/>
      <point x="223" y="251"/>
      <point x="237" y="229"/>
      <point x="256" y="229" type="curve" smooth="yes"/>
      <point x="337" y="229" type="line" name="hr04"/>
      <point x="337" y="109" type="line" smooth="yes"/>
      <point x="337" y="76"/>
      <point x="312" y="67"/>
      <point x="277" y="63" type="curve" smooth="yes"/>
      <point x="240" y="59"/>
      <point x="229" y="48"/>
      <point x="229" y="30" type="curve" smooth="yes"/>
      <point x="229" y="3"/>
      <point x="246" y="0"/>
      <point x="283" y="0" type="curve" smooth="yes"/>
      <point x="507" y="0" type="line" smooth="yes"/>
      <point x="530" y="0"/>
      <point x="545" y="5"/>
      <point x="545" y="31" type="curve" smooth="yes" name="hr05"/>
      <point x="545" y="57"/>
      <point x="519" y="63"/>
      <point x="494" y="63" type="curve" smooth="yes"/>
      <point x="428" y="63" type="line"/>
      <point x="428" y="114"/>
      <point x="427" y="177"/>
      <point x="427" y="230" type="curve" name="hr06"/>
      <point x="517" y="230" type="line" smooth="yes"/>
      <point x="546" y="230"/>
      <point x="553" y="258"/>
      <point x="553" y="272" type="curve" smooth="yes"/>
      <point x="553" y="292"/>
      <point x="539" y="309"/>
      <point x="525" y="309" type="curve" smooth="yes"/>
      <point x="502" y="309"/>
      <point x="465" y="307"/>
      <point x="425" y="306" type="curve"/>
      <point x="425" y="334" type="line"/>
      <point x="435" y="357" type="line"/>
      <point x="468" y="357"/>
      <point x="499" y="358"/>
      <point x="517" y="358" type="curve" smooth="yes"/>
      <point x="546" y="358"/>
      <point x="553" y="386"/>
      <point x="553" y="400" type="curve" smooth="yes"/>
      <point x="553" y="420"/>
      <point x="539" y="437"/>
      <point x="525" y="437" type="curve" smooth="yes"/>
      <point x="512" y="437"/>
      <point x="493" y="436"/>
      <point x="473" y="436" type="curve"/>
      <point x="510" y="511"/>
      <point x="555" y="596"/>
      <point x="595" y="674" type="curve" smooth="yes"/>
      <point x="609" y="701"/>
      <point x="617" y="706"/>
      <point x="644" y="712" type="curve" smooth="yes"/>
      <point x="654" y="714"/>
      <point x="709" y="717"/>
      <point x="730" y="718" type="curve"/>
      <point x="743" y="718"/>
      <point x="767" y="723"/>
      <point x="767" y="745" type="curve" smooth="yes"/>
      <point x="767" y="772"/>
      <point x="751" y="775"/>
      <point x="727" y="775" type="curve" smooth="yes"/>
      <point x="487" y="775" type="line" smooth="yes"/>
      <point x="454" y="775"/>
      <point x="445" y="766"/>
      <point x="445" y="744" type="curve" smooth="yes"/>
      <point x="445" y="722"/>
      <point x="460" y="714"/>
      <point x="487" y="714" type="curve" smooth="yes"/>
      <point x="495" y="714"/>
      <point x="507" y="713"/>
      <point x="507" y="698" type="curve" smooth="yes"/>
      <point x="507" y="664"/>
      <point x="424" y="507"/>
      <point x="387" y="440" type="curve"/>
      <point x="357" y="503"/>
      <point x="257" y="708"/>
    </contour>
  </outline>
</glyph>
<glyph name="brokenbar" format="1">
  <advance width="255"/>
  <unicode hex="00A6"/>
  <outline>
    <contour>
      <point x="174" y="817" type="curve" smooth="yes"/>
      <point x="174" y="830"/>
      <point x="158" y="856"/>
      <point x="128" y="856" type="curve" smooth="yes"/>
      <point x="114" y="856"/>
      <point x="83" y="839"/>
      <point x="83" y="823" type="curve" smooth="yes"/>
      <point x="83" y="754"/>
      <point x="84" y="679"/>
      <point x="84" y="610" type="curve" smooth="yes"/>
      <point x="84" y="542"/>
      <point x="83" y="468"/>
      <point x="83" y="400" type="curve" smooth="yes"/>
      <point x="83" y="385"/>
      <point x="103" y="380"/>
      <point x="127" y="380" type="curve" smooth="yes"/>
      <point x="154" y="380"/>
      <point x="174" y="387"/>
      <point x="174" y="404" type="curve" smooth="yes"/>
      <point x="174" y="471"/>
      <point x="172" y="541"/>
      <point x="172" y="608" type="curve" smooth="yes"/>
      <point x="172" y="674"/>
      <point x="174" y="750"/>
    </contour>
    <contour>
      <point x="172" y="292" type="curve" smooth="yes"/>
      <point x="172" y="300"/>
      <point x="160" y="314"/>
      <point x="128" y="314" type="curve" smooth="yes"/>
      <point x="114" y="314"/>
      <point x="83" y="310"/>
      <point x="83" y="295" type="curve" smooth="yes"/>
      <point x="83" y="226"/>
      <point x="84" y="153"/>
      <point x="84" y="84" type="curve" smooth="yes"/>
      <point x="84" y="16"/>
      <point x="83" y="-57"/>
      <point x="83" y="-125" type="curve" smooth="yes"/>
      <point x="83" y="-151"/>
      <point x="103" y="-162"/>
      <point x="127" y="-162" type="curve" smooth="yes"/>
      <point x="154" y="-162"/>
      <point x="172" y="-155"/>
      <point x="172" y="-123" type="curve" smooth="yes"/>
      <point x="172" y="-56"/>
      <point x="170" y="15"/>
      <point x="170" y="82" type="curve" smooth="yes"/>
      <point x="170" y="148"/>
      <point x="172" y="225"/>
    </contour>
  </outline>
</glyph>
<glyph name="section" format="1">
  <advance width="512"/>
  <unicode hex="00A7"/>
  <outline>
    <contour>
      <point x="86" y="320" type="curve" smooth="yes"/>
      <point x="86" y="201"/>
      <point x="189" y="180"/>
      <point x="278" y="160" type="curve" smooth="yes"/>
      <point x="369" y="140"/>
      <point x="373" y="125"/>
      <point x="373" y="100" type="curve" smooth="yes"/>
      <point x="373" y="55"/>
      <point x="316" y="46"/>
      <point x="284" y="46" type="curve" smooth="yes"/>
      <point x="205" y="46"/>
      <point x="165" y="94"/>
      <point x="156" y="118" type="curve" smooth="yes"/>
      <point x="154" y="124"/>
      <point x="151" y="139"/>
      <point x="151" y="152" type="curve" smooth="yes"/>
      <point x="151" y="174"/>
      <point x="132" y="188"/>
      <point x="105" y="188" type="curve" smooth="yes" name="hr01"/>
      <point x="72" y="188"/>
      <point x="68" y="171"/>
      <point x="68" y="148" type="curve" smooth="yes"/>
      <point x="68" y="118"/>
      <point x="71" y="84"/>
      <point x="71" y="57" type="curve" smooth="yes"/>
      <point x="71" y="40"/>
      <point x="70" y="-3"/>
      <point x="70" y="-5" type="curve"/>
      <point x="70" y="-26"/>
      <point x="95" y="-33"/>
      <point x="109" y="-33" type="curve" smooth="yes" name="hr02"/>
      <point x="139" y="-33"/>
      <point x="152" y="-20"/>
      <point x="153" y="34" type="curve"/>
      <point x="179" y="-20"/>
      <point x="240" y="-27"/>
      <point x="292" y="-27" type="curve" smooth="yes" name="hr03"/>
      <point x="364" y="-27"/>
      <point x="458" y="-12"/>
      <point x="458" y="101" type="curve" smooth="yes"/>
      <point x="458" y="157"/>
      <point x="434" y="186"/>
      <point x="383" y="209" type="curve"/>
      <point x="430" y="232"/>
      <point x="465" y="263"/>
      <point x="465" y="326" type="curve" smooth="yes"/>
      <point x="465" y="419"/>
      <point x="386" y="440"/>
      <point x="268" y="468" type="curve" smooth="yes"/>
      <point x="212" y="481"/>
      <point x="175" y="503"/>
      <point x="175" y="546" type="curve" smooth="yes"/>
      <point x="175" y="588"/>
      <point x="203" y="609"/>
      <point x="262" y="609" type="curve" smooth="yes"/>
      <point x="331" y="609"/>
      <point x="354" y="573"/>
      <point x="367" y="551" type="curve" smooth="yes"/>
      <point x="370" y="546"/>
      <point x="374" y="523"/>
      <point x="374" y="521" type="curve"/>
      <point x="374" y="511"/>
      <point x="392" y="495"/>
      <point x="412" y="495" type="curve" smooth="yes" name="hr04"/>
      <point x="428" y="495"/>
      <point x="450" y="503"/>
      <point x="452" y="522" type="curve" smooth="yes"/>
      <point x="454" y="541"/>
      <point x="460" y="621"/>
      <point x="460" y="665" type="curve" smooth="yes"/>
      <point x="460" y="705"/>
      <point x="439" y="718"/>
      <point x="418" y="718" type="curve" smooth="yes" name="hr05"/>
      <point x="394" y="718"/>
      <point x="373" y="708"/>
      <point x="373" y="679" type="curve" smooth="yes"/>
      <point x="373" y="675"/>
      <point x="374" y="648"/>
      <point x="375" y="631" type="curve"/>
      <point x="356" y="659"/>
      <point x="329" y="688"/>
      <point x="256" y="688" type="curve" smooth="yes" name="hr06"/>
      <point x="174" y="688"/>
      <point x="93" y="657"/>
      <point x="93" y="545" type="curve" smooth="yes"/>
      <point x="93" y="494"/>
      <point x="117" y="446"/>
      <point x="175" y="431" type="curve"/>
      <point x="144" y="410"/>
      <point x="86" y="380"/>
    </contour>
    <contour>
      <point x="168" y="318" type="curve" smooth="yes"/>
      <point x="168" y="358"/>
      <point x="200" y="377"/>
      <point x="265" y="384" type="curve"/>
      <point x="332" y="374"/>
      <point x="374" y="353"/>
      <point x="374" y="315" type="curve" smooth="yes"/>
      <point x="374" y="276"/>
      <point x="344" y="251"/>
      <point x="291" y="246" type="curve"/>
      <point x="226" y="252"/>
      <point x="168" y="277"/>
    </contour>
  </outline>
</glyph>
<glyph name="dieresis" format="1">
  <advance width="342"/>
  <unicode hex="00A8"/>
  <outline>
    <contour>
      <point x="5" y="575" type="curve" smooth="yes"/>
      <point x="5" y="537"/>
      <point x="31" y="509"/>
      <point x="64" y="509" type="curve" smooth="yes"/>
      <point x="94" y="509"/>
      <point x="131" y="524"/>
      <point x="131" y="579" type="curve" smooth="yes"/>
      <point x="131" y="615"/>
      <point x="103" y="640"/>
      <point x="71" y="640" type="curve" smooth="yes"/>
      <point x="23" y="640"/>
      <point x="5" y="597"/>
    </contour>
    <contour>
      <point x="212" y="552" type="curve" smooth="yes"/>
      <point x="212" y="514"/>
      <point x="238" y="486"/>
      <point x="271" y="486" type="curve" smooth="yes" name="hr01"/>
      <point x="301" y="486"/>
      <point x="338" y="501"/>
      <point x="338" y="556" type="curve" smooth="yes"/>
      <point x="338" y="592"/>
      <point x="310" y="617"/>
      <point x="278" y="617" type="curve" smooth="yes"/>
      <point x="230" y="617"/>
      <point x="212" y="574"/>
    </contour>
    <contour>
      <point x="170" y="510" type="move" name="_top"/>
    </contour>
  </outline>
</glyph>
<glyph name="copyright" format="1">
  <advance width="706"/>
  <unicode hex="00A9"/>
  <outline>
    <contour>
      <point x="665" y="250" type="curve" smooth="yes"/>
      <point x="665" y="418"/>
      <point x="550" y="558"/>
      <point x="353" y="558" type="curve" smooth="yes"/>
      <point x="165" y="558"/>
      <point x="40" y="426"/>
      <point x="40" y="244" type="curve" smooth="yes"/>
      <point x="40" y="60"/>
      <point x="167" y="-67"/>
      <point x="330" y="-67" type="curve" smooth="yes"/>
      <point x="476" y="-67"/>
      <point x="665" y="37"/>
    </contour>
    <contour>
      <point x="599" y="253" type="curve" smooth="yes"/>
      <point x="599" y="78"/>
      <point x="449" y="-5"/>
      <point x="330" y="-5" type="curve" smooth="yes"/>
      <point x="197" y="-5"/>
      <point x="109" y="96"/>
      <point x="109" y="244" type="curve" smooth="yes"/>
      <point x="109" y="391"/>
      <point x="197" y="494"/>
      <point x="351" y="494" type="curve" smooth="yes"/>
      <point x="509" y="494"/>
      <point x="599" y="385"/>
    </contour>
    <contour>
      <point x="418" y="361" type="curve"/>
      <point x="397" y="391"/>
      <point x="366" y="396"/>
      <point x="340" y="396" type="curve" smooth="yes"/>
      <point x="245" y="396"/>
      <point x="185" y="317"/>
      <point x="185" y="232" type="curve" smooth="yes"/>
      <point x="185" y="146"/>
      <point x="247" y="79"/>
      <point x="343" y="79" type="curve" smooth="yes"/>
      <point x="422" y="79"/>
      <point x="464" y="117"/>
      <point x="479" y="146" type="curve" smooth="yes"/>
      <point x="483" y="154"/>
      <point x="484" y="162"/>
      <point x="484" y="166" type="curve" smooth="yes"/>
      <point x="484" y="177"/>
      <point x="476" y="187"/>
      <point x="461" y="187" type="curve" smooth="yes"/>
      <point x="446" y="187"/>
      <point x="437" y="176"/>
      <point x="428" y="165" type="curve" smooth="yes"/>
      <point x="410" y="145"/>
      <point x="387" y="130"/>
      <point x="343" y="130" type="curve" smooth="yes" name="hr01"/>
      <point x="276" y="130"/>
      <point x="248" y="169"/>
      <point x="248" y="232" type="curve" smooth="yes"/>
      <point x="248" y="297"/>
      <point x="279" y="346"/>
      <point x="345" y="346" type="curve" smooth="yes"/>
      <point x="396" y="346"/>
      <point x="407" y="313"/>
      <point x="414" y="286" type="curve" smooth="yes"/>
      <point x="417" y="277"/>
      <point x="424" y="265"/>
      <point x="442" y="265" type="curve" smooth="yes" name="hr02"/>
      <point x="463" y="265"/>
      <point x="469" y="276"/>
      <point x="469" y="300" type="curve" smooth="yes"/>
      <point x="469" y="308"/>
      <point x="468" y="379"/>
      <point x="468" y="384" type="curve" smooth="yes"/>
      <point x="468" y="399"/>
      <point x="464" y="414"/>
      <point x="443" y="414" type="curve" smooth="yes"/>
      <point x="422" y="414"/>
      <point x="416" y="399"/>
      <point x="416" y="385" type="curve" smooth="yes"/>
      <point x="416" y="380"/>
      <point x="417" y="369"/>
    </contour>
  </outline>
</glyph>
<glyph name="ordfeminine" format="1">
  <advance width="274"/>
  <unicode hex="00AA"/>
  <outline>
    <contour>
      <point x="155" y="736" type="line"/>
      <point x="138" y="746"/>
      <point x="119" y="750"/>
      <point x="103" y="750" type="curve" smooth="yes"/>
      <point x="58" y="750"/>
      <point x="32" y="727"/>
      <point x="32" y="698" type="curve" smooth="yes" name="hr01"/>
      <point x="32" y="670"/>
      <point x="56" y="648"/>
      <point x="95" y="648" type="curve" smooth="yes"/>
      <point x="118" y="648"/>
      <point x="139" y="656"/>
      <point x="155" y="670" type="curve" name="hr02"/>
      <point x="160" y="654"/>
      <point x="179" y="648"/>
      <point x="195" y="648" type="curve" smooth="yes"/>
      <point x="223" y="648"/>
      <point x="248" y="659"/>
      <point x="248" y="679" type="curve" smooth="yes"/>
      <point x="248" y="684"/>
      <point x="247" y="699"/>
      <point x="229" y="699" type="curve" smooth="yes"/>
      <point x="217" y="699"/>
      <point x="212" y="689"/>
      <point x="211" y="686" type="curve" smooth="yes"/>
      <point x="209" y="681"/>
      <point x="208" y="679"/>
      <point x="206" y="679" type="curve"/>
      <point x="203" y="679"/>
      <point x="202" y="681"/>
      <point x="202" y="702" type="curve" smooth="yes"/>
      <point x="202" y="723"/>
      <point x="203" y="752"/>
      <point x="203" y="759" type="curve" smooth="yes"/>
      <point x="203" y="811"/>
      <point x="168" y="838"/>
      <point x="117" y="838" type="curve" smooth="yes"/>
      <point x="74" y="838"/>
      <point x="44" y="817"/>
      <point x="44" y="787" type="curve" smooth="yes" name="hr03"/>
      <point x="44" y="764"/>
      <point x="57" y="756"/>
      <point x="81" y="756" type="curve" smooth="yes"/>
      <point x="94" y="756"/>
      <point x="110" y="759"/>
      <point x="110" y="773" type="curve" smooth="yes"/>
      <point x="110" y="780"/>
      <point x="104" y="782"/>
      <point x="100" y="784" type="curve" smooth="yes"/>
      <point x="98" y="785"/>
      <point x="92" y="787"/>
      <point x="92" y="792" type="curve" smooth="yes"/>
      <point x="92" y="797"/>
      <point x="107" y="797"/>
      <point x="111" y="797" type="curve" smooth="yes"/>
      <point x="145" y="797"/>
      <point x="155" y="776"/>
      <point x="155" y="761" type="curve" smooth="yes" name="hr04"/>
    </contour>
    <contour>
      <point x="82" y="699" type="curve" smooth="yes"/>
      <point x="82" y="710"/>
      <point x="95" y="715"/>
      <point x="111" y="715" type="curve" smooth="yes"/>
      <point x="127" y="715"/>
      <point x="145" y="710"/>
      <point x="145" y="699" type="curve" smooth="yes"/>
      <point x="145" y="689"/>
      <point x="130" y="684"/>
      <point x="112" y="684" type="curve" smooth="yes" name="hr05"/>
      <point x="93" y="684"/>
      <point x="82" y="689"/>
    </contour>
  </outline>
</glyph>
<glyph name="guillemotleft" format="1">
  <advance width="432"/>
  <unicode hex="00AB"/>
  <outline>
    <contour>
      <point x="217" y="516" type="curve" smooth="yes"/>
      <point x="217" y="526"/>
      <point x="210" y="538"/>
      <point x="181" y="538" type="curve" smooth="yes"/>
      <point x="152" y="538"/>
      <point x="38" y="407"/>
      <point x="38" y="378" type="curve" smooth="yes"/>
      <point x="38" y="352"/>
      <point x="152" y="219"/>
      <point x="181" y="219" type="curve" smooth="yes"/>
      <point x="210" y="219"/>
      <point x="217" y="231"/>
      <point x="217" y="241" type="curve" smooth="yes"/>
      <point x="217" y="257"/>
      <point x="165" y="325"/>
      <point x="132" y="378" type="curve"/>
      <point x="165" y="431"/>
      <point x="217" y="500"/>
    </contour>
    <contour>
      <point x="360" y="516" type="curve" smooth="yes"/>
      <point x="360" y="526"/>
      <point x="353" y="538"/>
      <point x="324" y="538" type="curve" smooth="yes"/>
      <point x="295" y="538"/>
      <point x="181" y="407"/>
      <point x="181" y="378" type="curve" smooth="yes"/>
      <point x="181" y="352"/>
      <point x="295" y="219"/>
      <point x="324" y="219" type="curve" smooth="yes"/>
      <point x="353" y="219"/>
      <point x="360" y="231"/>
      <point x="360" y="241" type="curve" smooth="yes"/>
      <point x="360" y="257"/>
      <point x="308" y="325"/>
      <point x="275" y="378" type="curve"/>
      <point x="308" y="431"/>
      <point x="360" y="500"/>
    </contour>
  </outline>
</glyph>
<glyph name="logicalnot" format="1">
  <advance width="401"/>
  <unicode hex="00AC"/>
  <outline>
    <contour>
      <point x="80" y="310" type="curve"/>
      <point x="60" y="310"/>
      <point x="43" y="302"/>
      <point x="43" y="269" type="curve" smooth="yes"/>
      <point x="43" y="246"/>
      <point x="60" y="227"/>
      <point x="79" y="227" type="curve" smooth="yes" name="hr01"/>
      <point x="215" y="227" type="line" smooth="yes"/>
      <point x="253" y="227"/>
      <point x="256" y="223"/>
      <point x="256" y="215" type="curve" smooth="yes"/>
      <point x="256" y="183" type="line" smooth="yes"/>
      <point x="256" y="166"/>
      <point x="260" y="145"/>
      <point x="300" y="145" type="curve" smooth="yes" name="hr02"/>
      <point x="342" y="145"/>
      <point x="344" y="180"/>
      <point x="344" y="180" type="curve"/>
      <point x="344" y="252" type="line" smooth="yes"/>
      <point x="344" y="302"/>
      <point x="318" y="311"/>
      <point x="290" y="311" type="curve" smooth="yes"/>
      <point x="280" y="311"/>
      <point x="220" y="308"/>
      <point x="189" y="308" type="curve" smooth="yes"/>
      <point x="158" y="308"/>
      <point x="81" y="310"/>
    </contour>
  </outline>
</glyph>
<glyph name="registered" format="1">
  <advance width="707"/>
  <unicode hex="00AE"/>
  <outline>
    <contour>
      <point x="412" y="333" type="curve" smooth="yes"/>
      <point x="412" y="277"/>
      <point x="368" y="267"/>
      <point x="308" y="267" type="curve"/>
      <point x="308" y="382" type="line"/>
      <point x="317" y="383"/>
      <point x="331" y="385"/>
      <point x="341" y="385" type="curve" smooth="yes"/>
      <point x="377" y="385"/>
      <point x="412" y="370"/>
    </contour>
    <contour>
      <point x="409" y="73" type="line" name="hr01"/>
      <point x="494" y="73"/>
      <point x="496" y="79"/>
      <point x="496" y="95" type="curve" smooth="yes"/>
      <point x="496" y="110"/>
      <point x="488" y="115"/>
      <point x="467" y="115" type="curve" smooth="yes"/>
      <point x="435" y="115" type="line"/>
      <point x="402" y="155"/>
      <point x="346" y="223"/>
      <point x="346" y="223" type="curve"/>
      <point x="413" y="233"/>
      <point x="466" y="268"/>
      <point x="466" y="335" type="curve" smooth="yes" name="hr02"/>
      <point x="466" y="424"/>
      <point x="358" y="433"/>
      <point x="293" y="433" type="curve" smooth="yes"/>
      <point x="254" y="433"/>
      <point x="211" y="429"/>
      <point x="211" y="410" type="curve" smooth="yes"/>
      <point x="211" y="383"/>
      <point x="250" y="402"/>
      <point x="254" y="374" type="curve"/>
      <point x="255" y="335"/>
      <point x="255" y="302"/>
      <point x="255" y="259" type="curve" smooth="yes" name="hr03"/>
      <point x="255" y="142" type="line" smooth="yes"/>
      <point x="255" y="122"/>
      <point x="211" y="136"/>
      <point x="211" y="109" type="curve" smooth="yes" name="hr04"/>
      <point x="211" y="96"/>
      <point x="214" y="92"/>
      <point x="238" y="92" type="curve" smooth="yes"/>
      <point x="312" y="92" type="line" smooth="yes"/>
      <point x="344" y="92"/>
      <point x="349" y="100"/>
      <point x="349" y="110" type="curve" smooth="yes" name="hr05"/>
      <point x="349" y="131"/>
      <point x="340" y="133"/>
      <point x="324" y="133" type="curve" smooth="yes"/>
      <point x="307" y="133" type="line"/>
      <point x="307" y="201" type="line"/>
    </contour>
    <contour>
      <point x="665" y="250" type="curve" smooth="yes"/>
      <point x="665" y="418"/>
      <point x="550" y="558"/>
      <point x="353" y="558" type="curve" smooth="yes"/>
      <point x="165" y="558"/>
      <point x="40" y="426"/>
      <point x="40" y="244" type="curve" smooth="yes"/>
      <point x="40" y="60"/>
      <point x="167" y="-67"/>
      <point x="330" y="-67" type="curve" smooth="yes"/>
      <point x="476" y="-67"/>
      <point x="665" y="37"/>
    </contour>
    <contour>
      <point x="599" y="253" type="curve" smooth="yes"/>
      <point x="599" y="78"/>
      <point x="449" y="-5"/>
      <point x="330" y="-5" type="curve" smooth="yes"/>
      <point x="197" y="-5"/>
      <point x="109" y="96"/>
      <point x="109" y="244" type="curve" smooth="yes"/>
      <point x="109" y="391"/>
      <point x="197" y="494"/>
      <point x="351" y="494" type="curve" smooth="yes"/>
      <point x="509" y="494"/>
      <point x="599" y="385"/>
    </contour>
  </outline>
</glyph>
<glyph name="macron" format="1">
  <advance width="316"/>
  <unicode hex="00AF"/>
  <outline>
    <contour>
      <point x="285" y="566" type="curve" smooth="yes"/>
      <point x="253" y="566"/>
      <point x="212" y="563"/>
      <point x="157" y="563" type="curve" smooth="yes" name="hr01"/>
      <point x="123" y="563"/>
      <point x="55" y="565"/>
      <point x="36" y="565" type="curve" smooth="yes" name="hr02"/>
      <point x="13" y="565"/>
      <point x="3" y="544"/>
      <point x="3" y="526" type="curve" smooth="yes"/>
      <point x="3" y="508"/>
      <point x="17" y="486"/>
      <point x="36" y="486" type="curve" smooth="yes" name="hr03"/>
      <point x="83" y="486"/>
      <point x="224" y="487"/>
      <point x="277" y="487" type="curve" smooth="yes" name="hr04"/>
      <point x="306" y="487"/>
      <point x="313" y="515"/>
      <point x="313" y="529" type="curve" smooth="yes"/>
      <point x="313" y="549"/>
      <point x="299" y="566"/>
    </contour>
    <contour>
      <point x="145" y="510" type="move" name="_top"/>
    </contour>
  </outline>
</glyph>
<glyph name="degree" format="1">
  <advance width="253"/>
  <unicode hex="00B0"/>
  <outline>
    <contour>
      <point x="226" y="754" type="curve" smooth="yes"/>
      <point x="226" y="798"/>
      <point x="200" y="837"/>
      <point x="129" y="837" type="curve" smooth="yes"/>
      <point x="59" y="837"/>
      <point x="30" y="800"/>
      <point x="30" y="752" type="curve" smooth="yes"/>
      <point x="30" y="694"/>
      <point x="70" y="669"/>
      <point x="121" y="669" type="curve" smooth="yes"/>
      <point x="175" y="669"/>
      <point x="226" y="696"/>
    </contour>
    <contour>
      <point x="127" y="782" type="curve" smooth="yes"/>
      <point x="145" y="782"/>
      <point x="155" y="768"/>
      <point x="155" y="753" type="curve" smooth="yes"/>
      <point x="155" y="735"/>
      <point x="148" y="722"/>
      <point x="128" y="722" type="curve" smooth="yes" name="hr01"/>
      <point x="110" y="722"/>
      <point x="101" y="735"/>
      <point x="101" y="752" type="curve" smooth="yes"/>
      <point x="101" y="769"/>
      <point x="113" y="782"/>
    </contour>
  </outline>
</glyph>
<glyph name="plusminus" format="1">
  <advance width="477"/>
  <unicode hex="00B1"/>
  <outline>
    <contour>
      <point x="195" y="541" type="curve" smooth="yes"/>
      <point x="195" y="520"/>
      <point x="198" y="489"/>
      <point x="198" y="449" type="curve"/>
      <point x="104" y="449" type="line" smooth="yes"/>
      <point x="93" y="449"/>
      <point x="71" y="441"/>
      <point x="71" y="408" type="curve" smooth="yes" name="hr01"/>
      <point x="71" y="374"/>
      <point x="95" y="367"/>
      <point x="104" y="367" type="curve" smooth="yes"/>
      <point x="121" y="367"/>
      <point x="157" y="369"/>
      <point x="196" y="370" type="curve"/>
      <point x="195" y="339"/>
      <point x="193" y="295"/>
      <point x="193" y="276" type="curve" smooth="yes"/>
      <point x="193" y="265"/>
      <point x="209" y="250"/>
      <point x="236" y="250" type="curve" smooth="yes" name="hr02"/>
      <point x="269" y="250"/>
      <point x="282" y="265"/>
      <point x="282" y="276" type="curve"/>
      <point x="282" y="370" type="line" name="hr03"/>
      <point x="369" y="370" type="line" smooth="yes"/>
      <point x="387" y="370"/>
      <point x="405" y="383"/>
      <point x="405" y="415" type="curve" smooth="yes" name="hr04"/>
      <point x="405" y="449"/>
      <point x="382" y="454"/>
      <point x="377" y="454" type="curve" smooth="yes"/>
      <point x="354" y="454"/>
      <point x="322" y="449"/>
      <point x="282" y="449" type="curve" name="hr05"/>
      <point x="282" y="485"/>
      <point x="283" y="520"/>
      <point x="283" y="541" type="curve" smooth="yes"/>
      <point x="283" y="555"/>
      <point x="265" y="568"/>
      <point x="237" y="568" type="curve" smooth="yes" name="hr06"/>
      <point x="212" y="568"/>
      <point x="195" y="555"/>
    </contour>
    <contour>
      <point x="377" y="234" type="curve" smooth="yes"/>
      <point x="345" y="234"/>
      <point x="300" y="229"/>
      <point x="245" y="229" type="curve" smooth="yes"/>
      <point x="104" y="229" type="line" smooth="yes"/>
      <point x="93" y="229"/>
      <point x="71" y="221"/>
      <point x="71" y="188" type="curve" smooth="yes"/>
      <point x="71" y="155"/>
      <point x="95" y="147"/>
      <point x="104" y="147" type="curve" smooth="yes" name="hr07"/>
      <point x="151" y="147"/>
      <point x="310" y="152"/>
      <point x="369" y="152" type="curve" smooth="yes" name="hr08"/>
      <point x="384" y="152"/>
      <point x="405" y="165"/>
      <point x="405" y="195" type="curve" smooth="yes"/>
      <point x="405" y="229"/>
      <point x="382" y="234"/>
    </contour>
  </outline>
</glyph>
<glyph name="twosuperior" format="1">
  <advance width="269"/>
  <unicode hex="00B2"/>
  <outline>
    <contour>
      <point x="190" y="560" type="curve"/>
      <point x="189" y="559"/>
      <point x="185" y="559"/>
      <point x="177" y="559" type="curve"/>
      <point x="137" y="561" type="line"/>
      <point x="170" y="598"/>
      <point x="237" y="682"/>
      <point x="237" y="754" type="curve" smooth="yes"/>
      <point x="237" y="799"/>
      <point x="208" y="836"/>
      <point x="133" y="836" type="curve" smooth="yes"/>
      <point x="53" y="836"/>
      <point x="22" y="775"/>
      <point x="22" y="750" type="curve" smooth="yes"/>
      <point x="22" y="732"/>
      <point x="30" y="713"/>
      <point x="62" y="713" type="curve" smooth="yes"/>
      <point x="79" y="713"/>
      <point x="97" y="718"/>
      <point x="97" y="739" type="curve" smooth="yes"/>
      <point x="97" y="754"/>
      <point x="86" y="752"/>
      <point x="86" y="759" type="curve" smooth="yes"/>
      <point x="86" y="766"/>
      <point x="106" y="781"/>
      <point x="129" y="781" type="curve" smooth="yes" name="hr01"/>
      <point x="149" y="781"/>
      <point x="165" y="769"/>
      <point x="165" y="755" type="curve" smooth="yes"/>
      <point x="165" y="675"/>
      <point x="80" y="562"/>
      <point x="23" y="519" type="curve" smooth="yes"/>
      <point x="19" y="516"/>
      <point x="15" y="513"/>
      <point x="15" y="509" type="curve" smooth="yes"/>
      <point x="15" y="505"/>
      <point x="17" y="496"/>
      <point x="33" y="496" type="curve" smooth="yes"/>
      <point x="58" y="496"/>
      <point x="63" y="504"/>
      <point x="65" y="507" type="curve"/>
      <point x="65" y="507"/>
      <point x="157" y="503"/>
      <point x="211" y="503" type="curve" smooth="yes" name="hr02"/>
      <point x="217" y="503"/>
      <point x="222" y="510"/>
      <point x="223" y="512" type="curve" smooth="yes"/>
      <point x="225" y="516"/>
      <point x="247" y="549"/>
      <point x="247" y="562" type="curve" smooth="yes"/>
      <point x="247" y="570"/>
      <point x="240" y="579"/>
      <point x="225" y="579" type="curve" smooth="yes"/>
      <point x="199" y="579"/>
      <point x="192" y="562"/>
    </contour>
  </outline>
</glyph>
<glyph name="threesuperior" format="1">
  <advance width="253"/>
  <unicode hex="00B3"/>
  <outline>
    <contour>
      <point x="136" y="679" type="line"/>
      <point x="171" y="692"/>
      <point x="224" y="716"/>
      <point x="224" y="772" type="curve" smooth="yes"/>
      <point x="224" y="829"/>
      <point x="172" y="836"/>
      <point x="138" y="836" type="curve" smooth="yes"/>
      <point x="65" y="836"/>
      <point x="28" y="775"/>
      <point x="28" y="749" type="curve" smooth="yes"/>
      <point x="28" y="737"/>
      <point x="37" y="729"/>
      <point x="49" y="729" type="curve" smooth="yes"/>
      <point x="74" y="729"/>
      <point x="84" y="744"/>
      <point x="88" y="753" type="curve" smooth="yes"/>
      <point x="96" y="772"/>
      <point x="111" y="794"/>
      <point x="132" y="794" type="curve" smooth="yes" name="hr01"/>
      <point x="143" y="794"/>
      <point x="152" y="787"/>
      <point x="152" y="774" type="curve" smooth="yes"/>
      <point x="152" y="729"/>
      <point x="98" y="704"/>
      <point x="60" y="676" type="curve" smooth="yes"/>
      <point x="57" y="674"/>
      <point x="46" y="665"/>
      <point x="46" y="655" type="curve" smooth="yes" name="hr02"/>
      <point x="46" y="634"/>
      <point x="54" y="627"/>
      <point x="60" y="627" type="curve" smooth="yes"/>
      <point x="71" y="627"/>
      <point x="85" y="636"/>
      <point x="108" y="636" type="curve" smooth="yes"/>
      <point x="135" y="636"/>
      <point x="156" y="628"/>
      <point x="156" y="605" type="curve" smooth="yes"/>
      <point x="156" y="562"/>
      <point x="105" y="545"/>
      <point x="73" y="545" type="curve" smooth="yes"/>
      <point x="60" y="545"/>
      <point x="69" y="567"/>
      <point x="44" y="567" type="curve" smooth="yes" name="hr03"/>
      <point x="25" y="567"/>
      <point x="16" y="550"/>
      <point x="16" y="533" type="curve" smooth="yes"/>
      <point x="16" y="509"/>
      <point x="37" y="495"/>
      <point x="77" y="495" type="curve" smooth="yes"/>
      <point x="147" y="495"/>
      <point x="228" y="542"/>
      <point x="228" y="609" type="curve" smooth="yes"/>
      <point x="228" y="653"/>
      <point x="193" y="678"/>
      <point x="153" y="678" type="curve" smooth="yes"/>
      <point x="147" y="678"/>
      <point x="142" y="677"/>
      <point x="137" y="676" type="curve"/>
    </contour>
  </outline>
</glyph>
<glyph name="acute" format="1">
  <advance width="154"/>
  <unicode hex="00B4"/>
  <outline>
    <contour>
      <point x="157" y="658" type="curve" smooth="yes"/>
      <point x="157" y="677"/>
      <point x="121" y="690"/>
      <point x="97" y="690" type="curve" smooth="yes"/>
      <point x="46" y="690"/>
      <point x="5" y="549"/>
      <point x="5" y="524" type="curve" smooth="yes"/>
      <point x="5" y="509"/>
      <point x="15" y="499"/>
      <point x="28" y="499" type="curve" smooth="yes"/>
      <point x="76" y="499"/>
      <point x="157" y="616"/>
    </contour>
    <contour>
      <point x="78" y="510" type="move" name="_top"/>
    </contour>
  </outline>
</glyph>
